<?xml version="1.0" standalone="no"?>
<!DOCTYPE svg PUBLIC "-//W3C//DTD SVG 1.1//EN" "http://www.w3.org/Graphics/SVG/1.1/DTD/svg11.dtd" >
<svg xmlns="http://www.w3.org/2000/svg" xmlns:xlink="http://www.w3.org/1999/xlink" version="1.1">
<metadata>
Created by FontForge 20150318 at Mon Sep  7 15:27:48 2015
 By uniteet7
Copyright (c) 2011, 2011 Johan Kallas (johankallas@gmail.com), Copyright (c) 2011, 2011 Mihkel Virkus (mihkelvirkus@gmail.com), with Reserved Font Name Concert.
</metadata>
<defs>
<font id="ConcertOne-Regular" horiz-adv-x="1020" >
  <font-face 
    font-family="Concert One"
    font-weight="400"
    font-stretch="normal"
    units-per-em="2048"
    panose-1="0 0 0 0 0 0 0 0 0 0"
    ascent="1638"
    descent="-410"
    x-height="1000"
    cap-height="1400"
    bbox="-56 -400 1658 1958"
    underline-thickness="100"
    underline-position="-100"
    unicode-range="U+0020-2215"
  />
<missing-glyph horiz-adv-x="1304" 
d="M1066 128q0 -44 -9 -69t-30 -38.5t-56 -17t-87 -3.5h-464q-53 0 -88 3.5t-56 17t-29.5 38.5t-8.5 69v1144q0 43 8.5 68.5t29.5 39t56 17t88 3.5h464q52 0 87 -3.5t56 -17t30 -39t9 -68.5v-1144zM488 1186v-972h328v972h-328z" />
    <glyph glyph-name=".notdef" horiz-adv-x="1304" 
d="M1066 128q0 -44 -9 -69t-30 -38.5t-56 -17t-87 -3.5h-464q-53 0 -88 3.5t-56 17t-29.5 38.5t-8.5 69v1144q0 43 8.5 68.5t29.5 39t56 17t88 3.5h464q52 0 87 -3.5t56 -17t30 -39t9 -68.5v-1144zM488 1186v-972h328v972h-328z" />
    <glyph glyph-name=".null" horiz-adv-x="0" 
 />
    <glyph glyph-name="nonmarkingreturn" horiz-adv-x="1000" 
 />
    <glyph glyph-name="space" unicode=" " horiz-adv-x="798" 
 />
    <glyph glyph-name="space" unicode="&#xa0;" horiz-adv-x="798" 
 />
    <glyph glyph-name="exclam" unicode="!" horiz-adv-x="808" 
d="M506 608q0 -32 -3.5 -62t-15.5 -53.5t-34.5 -38t-60.5 -14.5t-60.5 14.5t-34.5 38t-15.5 53.5t-3.5 62l-52 324v244q0 42 7 82t25 71t50.5 50t83.5 19t83 -19.5t50 -51t24.5 -71.5t6.5 -82v-246zM556 164q0 -85 -43 -125.5t-121 -40.5q-80 0 -123 40.5t-43 125.5
q0 86 43 125t123 39q83 0 123.5 -39t40.5 -125z" />
    <glyph glyph-name="quotedbl" unicode="&#x22;" horiz-adv-x="898" 
d="M354 1048q0 -28 -3.5 -54t-16 -46t-36.5 -32t-64 -12q-44 0 -69 12t-37 32t-15 46t-3 54v212q0 25 3 51t15 46.5t37 33.5t69 13q40 0 64 -13t36.5 -33.5t16 -46.5t3.5 -51v-156v-56zM766 1052q0 -28 -3.5 -54t-16 -46t-36.5 -32t-64 -12q-44 0 -69 12t-37 32t-15 46
t-3 54v204q0 25 3 51t15 46.5t37 33.5t69 13q40 0 64 -13t36.5 -33.5t16 -46.5t3.5 -51v-148v-56z" />
    <glyph glyph-name="numbersign" unicode="#" horiz-adv-x="1268" 
d="M298 812q-21 0 -41 3t-35 12.5t-24.5 27.5t-9.5 49q0 34 9.5 53t24.5 28t35 11t41 2h130l22 130q1 10 5.5 26t14 31t25 26t39.5 11q19 0 38 -3t33.5 -12t23.5 -26t9 -45q0 -3 -0.5 -7.5t-2.5 -18t-6.5 -40t-12.5 -72.5h170l22 130q1 10 5.5 26t14 31t25 26t39.5 11
q19 0 38 -3t33.5 -12t23.5 -26t9 -45q0 -3 -0.5 -7.5t-2.5 -18t-6.5 -40t-12.5 -72.5h86q19 0 39 -2t35.5 -11t25.5 -28t10 -53q0 -31 -10 -49t-25.5 -27.5t-35.5 -12.5t-39 -3h-116l-40 -224h84q19 0 39 -2t35.5 -11t25.5 -28t10 -53q0 -32 -10 -50t-25.5 -27.5t-35.5 -12
t-39 -2.5h-116l-16 -104q-5 -29 -11.5 -54t-17 -43.5t-26 -29.5t-37.5 -11q-19 0 -37.5 2t-33.5 10.5t-24 24.5t-9 45q0 3 0.5 8.5t2.5 21.5t7 46.5t14 83.5h-170l-16 -104q-5 -29 -11.5 -54t-17 -43.5t-26 -29.5t-37.5 -11q-19 0 -37.5 2t-33.5 10.5t-24 24.5t-9 45
q0 3 0.5 8.5t2.5 21.5t7 46.5t14 83.5h-98q-21 0 -41 2.5t-35 12t-24.5 27.5t-9.5 50q0 34 9.5 53t24.5 28t35 11t41 2h128l40 224h-98zM546 588h168l40 224h-168z" />
    <glyph glyph-name="dollar" unicode="$" horiz-adv-x="1052" 
d="M688 748q71 -29 114 -56.5t65.5 -60t29.5 -72t7 -91.5q0 -64 -20 -114t-56 -86.5t-86.5 -59t-111.5 -30.5v-28q0 -28 -3.5 -54t-16 -46t-36.5 -32t-64 -12q-44 0 -69 12t-37 32t-15 46t-3 54v40q-81 19 -127.5 52t-69.5 68.5t-29 67t-6 48.5v16q0 10 3 30t18 40t46 35
t87 15q10 0 32.5 -2t45.5 -12.5t40.5 -32t17.5 -59.5q0 -36 28 -55t64 -19q32 0 53 13.5t21 52.5q0 19 -11 33.5t-28 26t-38.5 21t-42.5 17.5l-12 6q-80 33 -142.5 66t-105.5 70.5t-65.5 81.5t-22.5 100v58q0 55 18 95.5t50 69t77 46t99 25.5v76q0 25 3 51t15 46.5t37 33.5
t69 13q40 0 64 -13t36.5 -33.5t16 -46.5t3.5 -51v-76q74 -12 123 -38.5t77.5 -61t40 -73t11.5 -73.5q0 -39 -14.5 -61.5t-37 -34.5t-51.5 -15t-57 -3q-15 0 -37 3.5t-43 12.5t-35.5 26t-14.5 44q0 19 -3 34.5t-12 26.5t-25.5 17t-43.5 6q-15 0 -29 -1.5t-24.5 -8t-16.5 -20
t-6 -38.5q0 -32 30.5 -56.5t72.5 -43.5t85 -33t68 -25z" />
    <glyph glyph-name="percent" unicode="%" horiz-adv-x="1484" 
d="M560 92q-9 -15 -20 -31.5t-25.5 -30t-33 -22t-43.5 -8.5q-12 0 -25.5 5t-28.5 13q-39 21 -55.5 44.5t-18.5 47.5q2 30 10 51.5t20 42.5l576 1106q8 16 18 32t22 29t27 21t35 8q21 0 38.5 -4.5t35.5 -13.5q38 -20 54 -43t16 -47q0 -30 -9.5 -53t-20.5 -41zM664 1120
q0 -146 -73 -215t-207 -69q-137 0 -211.5 69t-74.5 215q0 145 74.5 212.5t211.5 67.5q143 0 211.5 -67t68.5 -213zM1384 278q0 -146 -73 -215t-207 -69q-137 0 -211.5 69t-74.5 215q0 145 74.5 212.5t211.5 67.5q143 0 211.5 -67t68.5 -213zM482 1120q0 100 -98 100
q-48 0 -74 -24.5t-26 -75.5q0 -50 26 -75t74 -25q98 0 98 100zM1202 278q0 100 -98 100q-48 0 -74 -24.5t-26 -75.5q0 -50 26 -75t74 -25q98 0 98 100z" />
    <glyph glyph-name="ampersand" unicode="&#x26;" horiz-adv-x="1296" 
d="M222 1076q0 73 21.5 134.5t64.5 105t108 68t152 24.5q73 0 138.5 -24.5t114 -70.5t77 -111t28.5 -146q0 -87 -49.5 -175t-164.5 -167l134 -156l52 62q33 41 69.5 70.5t78.5 29.5q39 0 82 -34q27 -24 38.5 -47t11.5 -47q0 -38 -22 -74t-52 -72l-82 -100l70 -82
q30 -36 52 -73t22 -73q0 -21 -12 -43.5t-36 -42.5q-20 -17 -41 -25.5t-41 -8.5q-39 0 -80 36t-102 114q-22 -29 -53.5 -56t-72.5 -47.5t-90.5 -32.5t-107.5 -12q-101 0 -180 32t-133.5 87t-83.5 129t-29 158q0 57 20.5 112t55 104t80.5 89t96 67q-24 36 -48 67t-43 64.5
t-31 73.5t-12 93zM500 596q-20 -16 -39 -37t-34 -46t-24 -52t-9 -55q0 -44 13 -72t32.5 -44.5t41.5 -23t39 -6.5q28 0 49 6.5t39 19.5t36 32t40 44zM568 1184q-22 0 -38.5 -10.5t-28 -27t-17.5 -37.5t-6 -43q0 -6 1.5 -18.5t11 -34.5t29.5 -54t58 -77q27 16 47.5 37.5
t34.5 45.5t21 49.5t7 49.5q0 25 -7.5 46.5t-22.5 38t-37.5 26t-52.5 9.5z" />
    <glyph glyph-name="quotesingle" unicode="'" horiz-adv-x="522" 
d="M374 1048q0 -28 -3.5 -54t-16 -46t-36.5 -32t-64 -12q-44 0 -69 12t-37 32t-15 46t-3 54v212q0 25 3 51t15 46.5t37 33.5t69 13q40 0 64 -13t36.5 -33.5t16 -46.5t3.5 -51v-156v-56z" />
    <glyph glyph-name="parenleft" unicode="(" horiz-adv-x="888" 
d="M814 -40q0 -25 -8.5 -46.5t-29.5 -37.5t-56.5 -25t-89.5 -9q-110 6 -195 52q-37 19 -72 49.5t-62.5 74t-44 103t-16.5 137.5v940q0 91 33.5 159t92 113.5t137 68.5t169.5 23q38 0 65 -9.5t44 -26t25 -38t8 -46.5q0 -50 -32 -84t-102 -34q-44 -2 -77 -20
q-15 -8 -28.5 -20.5t-24.5 -31t-17.5 -44t-6.5 -58.5v-910q0 -30 6.5 -53t17.5 -39.5t24.5 -28.5t28.5 -19q33 -18 77 -20q35 0 60.5 -9.5t42 -26t24 -38t7.5 -46.5z" />
    <glyph glyph-name="parenright" unicode=")" horiz-adv-x="888" 
d="M74 -40q0 25 7.5 46.5t24 38t42 26t60.5 9.5q43 2 77 20q14 7 28 19t25 28.5t17.5 39.5t6.5 53v910q0 33 -6.5 58.5t-17.5 44t-25 31t-28 20.5q-34 18 -77 20q-35 0 -60.5 9t-42 25t-24 37.5t-7.5 46.5t8 46.5t25 38t44 26t65 9.5q91 0 169.5 -23t137 -68.5t92 -113.5
t33.5 -159v-940q0 -78 -17 -137.5t-44.5 -103t-62.5 -74t-71 -49.5q-86 -46 -195 -52q-54 0 -89.5 9t-56.5 25t-29.5 37.5t-8.5 46.5z" />
    <glyph glyph-name="asterisk" unicode="*" horiz-adv-x="1194" 
d="M460 944l12 8v164q0 69 27 106.5t99 37.5q69 0 95.5 -37.5t26.5 -106.5v-164l10 -8l148 100q49 34 92 34q21 0 41.5 -13t36.5 -33t26 -44t10 -46q0 -32 -19.5 -58.5t-54.5 -47.5l-182 -110v-12l178 -106q36 -21 57 -48.5t21 -59.5q0 -22 -11 -46t-27.5 -44t-37.5 -33
t-40 -13q-42 0 -96 36l-142 96l-10 -8v-184q0 -63 -26.5 -101.5t-95.5 -38.5q-36 0 -60 10t-39 28.5t-21 44t-6 57.5v184l-10 8l-140 -96q-54 -36 -96 -36q-20 0 -40.5 13t-37 33t-27.5 44t-11 46q0 32 21 59.5t57 48.5l178 106v12l-182 110q-35 21 -54.5 47.5t-19.5 58.5
q0 22 10 46t26 44t36.5 33t41.5 13t45 -8.5t47 -25.5z" />
    <glyph glyph-name="plus" unicode="+" horiz-adv-x="1102" 
d="M336 600q-29 0 -55 3.5t-46.5 16t-32.5 36t-12 64.5q0 44 12 69t32 37t46 15t54 3h98v98q0 25 3 51t15 46.5t37 33.5t69 13q40 0 64 -13t36.5 -33.5t16 -46.5t3.5 -51v-98h100q25 0 51 -3t46.5 -15t33.5 -37t13 -69q0 -41 -13 -64.5t-33.5 -36t-46.5 -16t-51 -3.5h-100
v-100q0 -28 -3.5 -54t-16 -46t-36.5 -32t-64 -12q-44 0 -69 12t-37 32t-15 46t-3 54v100h-76h-20z" />
    <glyph glyph-name="comma" unicode="," horiz-adv-x="598" 
d="M464 166q0 -49 -11 -106.5t-33.5 -107t-57 -83t-80.5 -33.5q-17 0 -32.5 12t-15.5 38v8q1 10 6 20.5t11 20.5t10.5 20t4.5 21t-10 18t-24.5 15t-31.5 18.5t-31.5 28t-24.5 44t-10 66.5q0 86 43 125t123 39q83 0 123.5 -39t40.5 -125z" />
    <glyph glyph-name="hyphen" unicode="-" horiz-adv-x="966" 
d="M252 480q-28 0 -54 3.5t-46 16t-32 36t-12 64.5q0 44 12 69t32 37t46 15t54 3h442q25 0 51 -3t46.5 -15t33.5 -37t13 -69q0 -41 -13 -64.5t-33.5 -36t-46.5 -16t-51 -3.5h-386h-56z" />
    <glyph glyph-name="period" unicode="." horiz-adv-x="598" 
d="M464 166q0 -85 -43 -125.5t-121 -40.5q-80 0 -123 40.5t-43 125.5q0 86 43 125t123 39q83 0 123.5 -39t40.5 -125z" />
    <glyph glyph-name="slash" unicode="/" horiz-adv-x="906" 
d="M318 74q-8 -17 -17.5 -34.5t-23 -32t-31 -24t-40.5 -9.5q-25 0 -56 14q-41 18 -59 40t-21 46q0 29 6.5 50t15.5 44l488 1142q7 16 15 33t19 30.5t25.5 23t34.5 11.5q21 0 38.5 -3t37.5 -11q39 -17 56 -38.5t20 -45.5q0 -30 -6.5 -53t-15.5 -43z" />
    <glyph glyph-name="zero" unicode="0" horiz-adv-x="1118" 
d="M102 1000q0 97 27.5 165.5t70.5 113.5t95 71t101.5 39t89 16t58.5 3h34q19 0 59 -3t88.5 -16t100 -39t94 -71t69.5 -113.5t27 -165.5v-590q0 -100 -27 -170t-69.5 -116.5t-94 -72.5t-100 -39.5t-88.5 -16.5t-59 -3h-34q-19 0 -58.5 3t-89 16.5t-101.5 39.5t-95 72.5
t-70.5 116.5t-27.5 170v590zM430 358q3 -35 19 -62q13 -23 39.5 -42.5t73.5 -19.5q46 0 72 19.5t39 42.5q15 27 19 62v676q-4 35 -19 62q-13 23 -39 42.5t-72 19.5q-47 0 -73.5 -19.5t-39.5 -42.5q-16 -27 -19 -62v-676z" />
    <glyph glyph-name="one" unicode="1" horiz-adv-x="786" 
d="M360 962q-33 -30 -72 -47t-92 -17q-30 0 -55.5 11.5t-43.5 31t-28.5 44.5t-10.5 53t9 48.5t25 35.5t37 27t45 25q50 33 89.5 67t70.5 63.5t54 50.5t40 29q10 5 18.5 8.5t17.5 5t20 2t28 0.5q52 0 82.5 -21t46 -54.5t19.5 -75.5t4 -85v-928q0 -44 -4 -86.5t-19.5 -75.5
t-46 -53.5t-82.5 -20.5q-53 0 -83 20.5t-45.5 53.5t-19.5 75.5t-4 86.5v726z" />
    <glyph glyph-name="two" unicode="2" horiz-adv-x="1060" 
d="M552 1408q113 0 198.5 -30.5t142.5 -85t86 -130t29 -166.5q0 -60 -16.5 -111t-43 -93t-60.5 -76t-69 -60q-84 -62 -189 -100q-35 -14 -69.5 -33.5t-61.5 -45t-44 -59t-17 -76.5v-62h348q42 0 84 -4t76 -18t55 -41.5t21 -74.5q0 -48 -21 -76t-55 -43t-76 -19t-84 -4h-498
q-50 0 -82.5 16.5t-51.5 42t-26.5 57t-7.5 62.5v160q0 77 25.5 144.5t72 123t111 99.5t143.5 75t126 59.5t72.5 56t33.5 55.5t8 57q0 52 -17.5 82t-43 44.5t-53 18t-46.5 3.5q-50 0 -80 -14.5t-45.5 -36.5t-20 -48.5t-4.5 -50.5q0 -39 -15 -66.5t-37.5 -44.5t-49 -25
t-48.5 -8q-68 0 -110 37.5t-42 96.5q0 26 6 67t23 87t48 92t81 83t122 60t172 23z" />
    <glyph glyph-name="three" unicode="3" horiz-adv-x="1026" 
d="M542 1108v14h-260q-34 0 -70.5 4t-66.5 18t-49.5 42t-19.5 76q0 47 19.5 74.5t49.5 41.5t66.5 18t70.5 4h446q40 0 71.5 -13t53 -34.5t32.5 -49.5t11 -57q0 -17 -2.5 -33t-11.5 -31l-180 -300q46 -19 90 -50.5t78.5 -79.5t55 -113.5t20.5 -150.5q0 -96 -20.5 -170.5
t-55 -129.5t-81 -92.5t-99 -60.5t-108.5 -33t-110 -10q-41 0 -88 8t-93.5 25t-89 41.5t-75.5 58.5t-52.5 76t-19.5 93q0 25 7 47.5t21.5 40t36.5 28t53 10.5q41 0 76.5 -23t59.5 -71q6 -11 18.5 -25t33 -26t49.5 -20.5t67 -8.5q58 0 95.5 18.5t59.5 48.5t30.5 68t8.5 77
q0 45 -15 83t-40.5 66t-58 43.5t-66.5 15.5q-48 0 -78 29t-30 79q0 21 8 46.5t26 57.5z" />
    <glyph glyph-name="four" unicode="4" horiz-adv-x="1002" 
d="M764 926q49 0 77 -13.5t42.5 -36.5t18.5 -53.5t4 -64.5v-592q0 -35 -4 -65t-18 -52.5t-42 -35.5t-76 -13q-47 0 -75 12.5t-43 33.5t-19.5 50t-4.5 62v178h-342q-62 0 -102 10t-63.5 26.5t-33 38.5t-9.5 45q0 12 2.5 24t5.5 24l202 702q10 37 19.5 72t26 62t45.5 43.5
t79 16.5q36 0 59.5 -10t37.5 -26.5t19.5 -38t5.5 -45.5t-4 -48.5t-9.5 -45.5t-11 -37.5t-7.5 -24.5l-6 -21.5t-16 -56t-22 -79t-25 -90.5q-31 -108 -69 -245l8 -8h210v136q0 34 4 64t18 52.5t42 36t76 13.5z" />
    <glyph glyph-name="five" unicode="5" horiz-adv-x="1026" 
d="M386 888q41 15 89.5 21.5t86.5 6.5q36 0 80 -8t89 -27.5t88 -51.5t76 -79.5t53 -112.5t20 -149q0 -96 -20.5 -170.5t-55 -129.5t-81 -92.5t-99 -60.5t-108.5 -33t-110 -10q-59 0 -124.5 15.5t-124 47t-103 79t-60.5 112.5q-6 24 -6 48q0 25 7 47.5t21.5 40t36.5 28
t53 10.5q41 0 76.5 -23t59.5 -71q6 -11 18.5 -25t33 -26t49.5 -20.5t67 -8.5q58 0 95.5 18.5t59.5 48.5t30.5 68t8.5 77q0 49 -17 84.5t-45.5 59t-64.5 35t-73 11.5q-32 0 -63.5 -8.5t-63 -18.5t-63.5 -18.5t-66 -8.5q-23 0 -46 5t-41 18.5t-29.5 35.5t-11.5 57l58 550
q2 22 8.5 46.5t20 45.5t36 34.5t57.5 13.5h400q37 0 75.5 -4t69 -18t50 -41.5t19.5 -74.5q0 -48 -19.5 -76t-50 -42t-69 -18t-75.5 -4h-240q-8 0 -15.5 -0.5t-13 -4.5t-9 -12.5t-4.5 -24.5z" />
    <glyph glyph-name="six" unicode="6" horiz-adv-x="992" 
d="M122 490q0 47 0.5 108.5t0.5 121.5t0.5 110t0.5 74q0 58 12 117.5t34.5 114.5t54.5 103t71.5 84t85 56.5t96.5 20.5q35 -2 61.5 -13.5t44.5 -29t27 -39.5t9 -46q0 -33 -18 -66t-56 -62q-30 -24 -52 -43t-36.5 -38t-23 -40.5t-13 -49t-6 -64.5t-1.5 -87q10 21 29 35
t41.5 22t47.5 11.5t48 3.5q28 0 66.5 -5t79.5 -19.5t81 -41.5t71 -70.5t50.5 -106.5t19.5 -149v-92q0 -100 -24.5 -170t-62.5 -116.5t-85 -72.5t-92 -39.5t-83.5 -16.5t-58.5 -3q-27 0 -68.5 3t-88.5 16.5t-93.5 39.5t-84.5 72.5t-61.5 116.5t-23.5 170v80zM414 372
q2 -33 15 -59q11 -23 35 -41t68 -18t67 18t34 41q12 26 15 59v146q-3 33 -15 59q-11 22 -34.5 40.5t-66.5 18.5q-44 0 -68 -18.5t-35 -40.5q-13 -26 -15 -59v-146z" />
    <glyph glyph-name="seven" unicode="7" horiz-adv-x="1012" 
d="M576 1110v12h-314q-35 0 -72.5 4t-69 18t-52 42t-20.5 76q0 47 20.5 74.5t52 41.5t69 18t72.5 4h536q40 0 71.5 -13t53 -34.5t32.5 -49.5t11 -57q0 -17 -3 -33t-11 -31l-288 -526q-25 -45 -39.5 -77.5t-22 -61.5t-10 -60t-2.5 -73v-150q0 -44 -2.5 -86t-17.5 -75
t-47.5 -53t-92.5 -20q-59 0 -90.5 20t-46 53t-17 75t-2.5 86v150q0 71 3.5 116t13.5 79.5t27 67.5t44 81z" />
    <glyph glyph-name="eight" unicode="8" 
d="M390 344q2 -31 16 -55q12 -21 37 -38t73 -17q45 0 69.5 17t35.5 38q13 24 15 55v190q-2 34 -15 60q-11 23 -35.5 41.5t-69.5 18.5q-24 0 -41.5 -5t-31 -13.5t-22.5 -19.5t-15 -22q-14 -26 -16 -60v-190zM516 1408q23 0 61.5 -2.5t82.5 -13.5t88.5 -34t80.5 -65
t58.5 -105.5t22.5 -155.5v-26q0 -62 -8 -105.5t-23 -73.5t-36 -50t-47 -35q26 -15 50.5 -35t43 -50t29.5 -73.5t11 -105.5v-110q0 -92 -24 -155.5t-62.5 -105.5t-85.5 -65t-93 -34t-86 -13.5t-63 -2.5t-63.5 2.5t-88 13.5t-96 34t-88.5 65t-65 105.5t-25 155.5v110
q0 62 11 105.5t29.5 73.5t43 50t50.5 35q-26 15 -47 35t-36 50t-23 73.5t-8 105.5v26q0 92 23.5 155.5t61 105.5t84 65t91.5 34t84 13.5t62 2.5zM390 952q2 -31 16 -55q12 -21 37 -38t73 -17q45 0 69.5 17t35.5 38q13 24 15 55v82q-2 34 -15 60q-11 23 -35.5 41.5
t-69.5 18.5q-24 0 -41.5 -5t-31 -13.5t-22.5 -19.5t-15 -22q-14 -26 -16 -60v-82z" />
    <glyph glyph-name="nine" unicode="9" horiz-adv-x="992" 
d="M870 908q0 -47 -0.5 -108t-0.5 -120t-0.5 -108.5t-0.5 -73.5q0 -88 -26.5 -176.5t-73 -160t-110.5 -116.5t-140 -45q-36 2 -63 13.5t-45 29t-27 39.5t-9 46q0 33 18 66t56 62q31 23 53 42.5t37 38.5t23.5 40.5t13 49.5t6 65t1.5 88q-11 -21 -29.5 -35t-41 -22t-48 -11.5
t-49.5 -3.5q-28 0 -66.5 5t-79.5 19.5t-81 41t-71 70t-50.5 105t-19.5 147.5v92q0 100 24.5 170.5t62.5 117t85 73t92 40t83 16.5t59 3q27 0 69 -3t88.5 -16.5t93 -40t83.5 -73t60.5 -117t23.5 -170.5v-80zM582 1026q-2 33 -15 59q-11 22 -35 40.5t-68 18.5t-68 -18.5
t-35 -40.5q-13 -26 -15 -59v-146q2 -33 15 -59q11 -23 35 -41t68 -18t68 18t35 41q13 26 15 59v146z" />
    <glyph glyph-name="colon" unicode=":" horiz-adv-x="572" 
d="M454 166q0 -85 -43 -125.5t-121 -40.5q-80 0 -123 40.5t-43 125.5q0 86 43 125t123 39q83 0 123.5 -39t40.5 -125zM452 690q0 -85 -43 -125.5t-121 -40.5q-80 0 -123 40.5t-43 125.5q0 86 43 125t123 39q83 0 123.5 -39t40.5 -125z" />
    <glyph glyph-name="semicolon" unicode=";" horiz-adv-x="596" 
d="M450 688q0 -85 -43 -125.5t-121 -40.5q-80 0 -123 40.5t-43 125.5q0 86 43 125t123 39q83 0 123.5 -39t40.5 -125zM452 164q0 -49 -11 -106.5t-33.5 -107t-57 -83t-80.5 -33.5q-17 0 -32.5 12t-15.5 38v8q1 10 6 20.5t11 20.5t10.5 20t4.5 21t-10 18t-24.5 15t-31.5 18.5
t-31.5 28t-24.5 44t-10 66.5q0 86 43 125t123 39q83 0 123.5 -39t40.5 -125z" />
    <glyph glyph-name="less" unicode="&#x3c;" horiz-adv-x="930" 
d="M222 498q-10 10 -20.5 21t-19.5 24t-14.5 27t-5.5 30q0 29 18 52.5t44 49.5l314 312q23 23 47.5 41.5t54.5 18.5q20 0 41 -11t45 -35q23 -23 32.5 -42.5t9.5 -39.5q0 -30 -17.5 -55.5t-40.5 -48.5l-246 -244l244 -240q24 -24 42 -48.5t18 -53.5q0 -20 -10 -41t-36 -47
q-23 -23 -42.5 -32.5t-39.5 -9.5q-29 0 -54.5 18t-49.5 42z" />
    <glyph glyph-name="equal" unicode="=" horiz-adv-x="1102" 
d="M328 682q-28 0 -54 3.5t-46 16t-32 36t-12 64.5q0 44 12 69t32 37t46 15t54 3h442q25 0 51 -3t46.5 -15t33.5 -37t13 -69q0 -41 -13 -64.5t-33.5 -36t-46.5 -16t-51 -3.5h-386h-56zM324 290q-28 0 -54 3.5t-46 16t-32 36t-12 64.5q0 44 12 69t32 37t46 15t54 3h442
q25 0 51 -3t46.5 -15t33.5 -37t13 -69q0 -41 -13 -64.5t-33.5 -36t-46.5 -16t-51 -3.5h-386h-56z" />
    <glyph glyph-name="greater" unicode="&#x3e;" horiz-adv-x="930" 
d="M394 186q-24 -24 -49.5 -42t-54.5 -18q-20 0 -39.5 9.5t-42.5 32.5q-26 26 -36 47t-10 41q0 29 18 53.5t42 48.5l244 240l-246 244q-23 23 -40.5 48.5t-17.5 55.5q0 20 9.5 39.5t32.5 42.5q24 24 45 35t41 11q30 0 54.5 -18.5t47.5 -41.5l314 -312q26 -26 44 -49.5
t18 -52.5q0 -16 -5.5 -30t-14.5 -27t-19.5 -24t-20.5 -21z" />
    <glyph glyph-name="question" unicode="?" horiz-adv-x="1122" 
d="M1012 1008q0 -52 -18.5 -95t-47.5 -79t-64.5 -66t-69 -55t-62 -46.5t-42.5 -40.5q-6 -8 -14 -24.5t-8 -37.5q0 -54 -33.5 -89t-104.5 -35q-43 0 -70.5 13.5t-44 33.5t-23 43t-6.5 42q0 68 23 114t58 79.5t75 58.5t75 52t58 60.5t23 83.5q0 52 -17.5 82t-43 44.5t-53 18
t-46.5 3.5q-50 0 -80 -14.5t-45.5 -36.5t-20 -48.5t-4.5 -50.5q0 -39 -15 -66.5t-37.5 -44.5t-49 -25t-48.5 -8q-68 0 -110 37.5t-42 96.5q0 26 6 67t23 87t48 92t81 83t122 60t172 23q113 0 198.5 -30.5t142.5 -85t86 -130t29 -166.5zM720 166q0 -85 -43 -125.5t-121 -40.5
q-80 0 -123 40.5t-43 125.5q0 86 43 125t123 39q83 0 123.5 -39t40.5 -125z" />
    <glyph glyph-name="at" unicode="@" horiz-adv-x="1494" 
d="M1050 256q0 -11 1 -23t5 -21.5t12.5 -15.5t23.5 -6q28 0 51.5 22t41 62.5t27.5 96t10 123.5q0 120 -27.5 212.5t-87.5 155.5t-155 95.5t-230 32.5q-108 0 -199.5 -26t-158.5 -84.5t-104.5 -153.5t-37.5 -232q0 -125 29.5 -211t76.5 -142t104.5 -86.5t113 -45t102.5 -17
t74 -2.5h38.5h58t68.5 0.5t67.5 1t56 1.5t35.5 3q23 3 42.5 10.5t37 16.5t33.5 18t33 15q5 2 9 3t9 1q17 0 26.5 -9.5t9.5 -24.5q0 -23 -15.5 -40.5t-38 -30t-49.5 -21.5t-49 -16q-12 -4 -42 -6t-68.5 -3.5t-81 -2.5t-79.5 -1.5t-65 -0.5h-36q-70 0 -141.5 9.5t-137 34.5
t-122.5 67.5t-99 108t-66 156.5t-24 214q0 72 10.5 143.5t36 136.5t68.5 120.5t108.5 96.5t156 64t210.5 23q169 0 281 -42.5t179.5 -119.5t95.5 -184.5t28 -237.5q0 -88 -16.5 -164.5t-57 -133.5t-107.5 -89.5t-167 -32.5q-54 0 -93.5 24.5t-48.5 77.5q-2 12 -3 22.5
t-1 19.5q-8 -23 -21 -46.5t-33.5 -42.5t-49 -31t-66.5 -12q-43 0 -86 14t-77.5 47t-56.5 86t-22 131v228q0 78 22 131t56.5 86t77.5 47t86 14q38 0 66.5 -12t49 -31t33.5 -42.5t21 -46.5q0 39 11 65t28 41t38.5 21.5t42.5 6.5q40 0 63.5 -15t35.5 -40.5t15.5 -58t3.5 -66.5
v-436zM642 384q0 -21 1.5 -41.5t8.5 -36.5t20.5 -26t37.5 -10q31 0 50.5 13.5t30.5 42t15.5 72.5t5.5 104q0 25 -4.5 56.5t-16 60t-31 48t-50.5 19.5q-24 0 -37.5 -9.5t-20.5 -25.5t-8.5 -36t-1.5 -41v-190z" />
    <glyph glyph-name="A" unicode="A" horiz-adv-x="1104" 
d="M394 604h318l-148 536h-22zM1022 506q2 -68 5 -139t3 -137v-30q0 -38 -2.5 -73.5t-15.5 -64t-41 -45.5t-79 -17q-52 0 -80 17t-41.5 45t-16 64t-2.5 74v140h-400v-140q0 -38 -2.5 -74t-16 -64t-41.5 -45t-80 -17t-80 17t-41 45.5t-15 64t-2 73.5v30q0 31 0.5 66t1.5 71
t2 71.5t2 67.5q50 174 105 352.5t105 353.5q10 37 24 71.5t37 60t59 41t92 15.5h100q55 0 91.5 -15.5t59.5 -41t36.5 -60t24.5 -71.5z" />
    <glyph glyph-name="B" unicode="B" horiz-adv-x="1104" 
d="M562 1400q89 0 167.5 -23t137 -69t92 -114.5t33.5 -159.5q0 -47 -12.5 -85.5t-32 -69.5t-43 -54t-45.5 -39.5t-39 -26t-24 -11.5q60 -17 101 -43.5t68.5 -58t43 -65t23 -65t9 -58t1.5 -42.5q0 -78 -19 -137.5t-50 -103t-71 -74t-81 -49.5q-98 -46 -221 -52h-328
q-57 0 -88 19.5t-45 52t-16.5 73.5t-2.5 85v942q0 43 2.5 84t16.5 73t45 51.5t88 19.5h290zM424 612v-376h146q47 2 84 22q16 8 31 21t27 32.5t19 45t7 59.5q0 37 -7.5 64.5t-20 48t-28.5 35t-32 23.5q-39 21 -88 25h-138zM424 1164v-340h128q43 2 77 20q14 7 28 19t25 28.5
t17.5 39.5t6.5 53q0 34 -7 59.5t-18.5 44t-26 31.5t-29.5 22q-36 19 -81 23h-120z" />
    <glyph glyph-name="C" unicode="C" horiz-adv-x="1110" 
d="M556 1408q110 0 189.5 -25t134 -65t87.5 -90.5t50.5 -102.5t23 -100t5.5 -83q0 -15 -2.5 -36.5t-17.5 -41.5t-47.5 -34t-92.5 -14q-20 0 -50 2.5t-58 13t-48 30t-20 54.5q0 54 -6.5 97t-23.5 73t-47 46t-77 16q-49 0 -75.5 -20.5t-38.5 -44.5q-14 -29 -16 -65v-634
q2 -44 16 -77q12 -29 38.5 -53t75.5 -24q47 0 77 19.5t47 52.5t23.5 76t6.5 90q0 15 5 31t23 29.5t53 22.5t95 9t92.5 -13.5t47.5 -31t17.5 -34t2.5 -21.5q0 -110 -37 -196.5t-104.5 -146.5t-161 -91.5t-205.5 -31.5q-18 0 -58.5 3t-90.5 16t-103 39t-96.5 72.5t-71.5 116
t-28 169.5v558q0 82 20 145t52.5 109.5t74.5 78t86 52.5q102 48 233 55z" />
    <glyph glyph-name="D" unicode="D" horiz-adv-x="1094" 
d="M576 1400q91 0 169.5 -23t137 -68.5t92 -113.5t33.5 -159v-620q0 -78 -17 -137.5t-44.5 -103t-62.5 -74t-71 -49.5q-86 -46 -195 -52h-332q-57 0 -88 19.5t-45 52t-16.5 73.5t-2.5 85v942q0 43 2.5 84t16.5 73t45 51.5t88 19.5h290zM438 1166v-928h130q43 2 77 20
q14 7 28 19t25 28.5t17.5 39.5t6.5 53v590q0 33 -6.5 58.5t-17.5 44.5t-25 32t-28 21q-34 19 -77 22h-130z" />
    <glyph glyph-name="E" unicode="E" horiz-adv-x="986" 
d="M682 1400q40 0 81 -3t74 -17t54 -42.5t21 -79.5t-21 -79.5t-54 -42.5t-74 -17t-81 -3h-238v-272h126q40 0 80.5 -2.5t72 -16t51.5 -41t20 -76.5q0 -50 -20 -77t-51.5 -40.5t-72 -16t-80.5 -2.5h-126v-288h238q40 0 81 -3t74 -16.5t54 -42t21 -78.5q0 -52 -21.5 -81
t-54.5 -43t-74 -17t-80 -3h-392q-56 0 -86.5 20t-44.5 52.5t-16.5 73.5t-2.5 84v940q0 43 2.5 84t16.5 73.5t44.5 52.5t86.5 20h392z" />
    <glyph glyph-name="F" unicode="F" horiz-adv-x="938" 
d="M682 1400q40 0 81 -4t74 -19t54 -44.5t21 -80.5t-21 -80.5t-54 -44.5t-74 -19t-81 -4h-238v-260h126q39 0 80 -3t74 -17t54.5 -44t21.5 -84t-21 -84t-54 -44t-74 -17t-81 -3h-126v-318q0 -44 -2.5 -85t-17 -73.5t-45.5 -52t-87 -19.5q-57 0 -88 19.5t-45 52t-16.5 73.5
t-2.5 85v940q0 43 2.5 84t16.5 73.5t45 52.5t88 20h390z" />
    <glyph glyph-name="G" unicode="G" horiz-adv-x="1156" 
d="M1072 92q0 -13 -2.5 -30t-13 -32.5t-30.5 -26.5t-54 -11q-38 0 -60 10.5t-33.5 26t-15 32.5t-3.5 31v60q-48 -71 -122.5 -115.5t-183.5 -44.5q-19 0 -59 3t-90 16t-103 39t-96.5 72.5t-71.5 116t-28 169.5v560q0 82 20 145t52.5 109.5t74.5 78t86 52.5q102 48 233 55
q111 0 190 -25t134 -65t88 -90.5t51 -102.5t23.5 -100t5.5 -83q0 -15 -2.5 -36.5t-17.5 -41t-47.5 -33t-92.5 -13.5q-21 0 -51.5 2.5t-58.5 12.5t-48 29.5t-20 53.5q0 54 -6.5 96.5t-23.5 72.5t-47 45.5t-77 15.5q-49 0 -75.5 -20t-38.5 -44q-14 -28 -16 -64v-640
q0 -32 11.5 -60t32.5 -49t49.5 -33t62.5 -12q40 0 72.5 17.5t58.5 47t46.5 67t36.5 78.5h-96q-29 3 -51 15q-20 10 -35.5 30t-15.5 55q0 38 15.5 58.5t35.5 30.5q22 11 51 13h260q7 0 22.5 -2.5t32 -14.5t29 -35.5t12.5 -65.5v-426z" />
    <glyph glyph-name="H" unicode="H" horiz-adv-x="1166" 
d="M146 1170q0 43 4 84t19.5 73.5t45.5 52.5t83 20q52 0 82.5 -20t46 -52.5t19.5 -73.5t4 -84v-314h274v314q0 43 4 84t19.5 73.5t45.5 52.5t83 20q52 0 82.5 -20t46 -52.5t19.5 -73.5t4 -84v-940q0 -44 -4 -85t-19.5 -73.5t-46 -52t-82.5 -19.5q-53 0 -83 19.5t-45.5 52
t-19.5 73.5t-4 85v332h-274v-332q0 -44 -4 -85t-19.5 -73.5t-46 -52t-82.5 -19.5q-53 0 -83 19.5t-45.5 52t-19.5 73.5t-4 85v940z" />
    <glyph glyph-name="I" unicode="I" horiz-adv-x="666" 
d="M168 1170q0 43 4.5 84t21 73.5t49.5 52.5t91 20t91 -20t49.5 -52.5t21 -73.5t4.5 -84v-940q0 -44 -4 -85t-20.5 -73.5t-50 -52t-91.5 -19.5t-91 19.5t-49.5 52t-21 73.5t-4.5 85v940z" />
    <glyph glyph-name="J" unicode="J" horiz-adv-x="1126" 
d="M536 -8q-110 0 -189.5 25t-134 65t-87.5 90.5t-50.5 102.5t-23 100t-5.5 83q0 15 2.5 36.5t17.5 41.5t47.5 34t92.5 14q20 0 50 -2.5t58 -13t48 -30.5t20 -54q0 -54 6.5 -97t23.5 -73t47 -46t77 -16q49 0 75.5 20t38.5 45q14 28 16 65v734h-262q-40 0 -80 4t-72.5 18
t-53 42t-20.5 76q0 49 20.5 78t53 43.5t72.5 18.5t80 4h408q57 0 90.5 -20t50.5 -52.5t22 -73.5t5 -84v-760q0 -104 -30 -176t-75.5 -118.5t-100 -71.5t-104 -36.5t-86.5 -13.5t-48 -2z" />
    <glyph glyph-name="K" unicode="K" horiz-adv-x="1142" 
d="M140 1172q0 43 4 84t19 73t45 51.5t82 19.5q53 0 84 -19.5t46.5 -51.5t19.5 -73t4 -84v-360h114q33 86 66 169l29 72.5t29.5 73.5t28 69.5t25.5 59.5q12 28 25.5 54t31.5 46t40.5 32t52.5 12q29 0 57 -9t50 -27t35.5 -44t13.5 -60q0 -26 -8.5 -61.5t-23.5 -70.5
l-180 -426q52 -19 92 -62q17 -18 33.5 -43.5t29.5 -59.5t21 -77.5t8 -97.5v-142q0 -11 8 -18t16 -16q20 -23 23 -40t3 -28q0 -36 -13.5 -60t-36 -39t-52 -21t-60.5 -6q-33 0 -67 10t-62 30.5t-45.5 51.5t-17.5 72v206q0 43 -6 80.5t-23 65t-47 43t-78 15.5h-112v-336
q0 -44 -4 -85t-19.5 -73.5t-46.5 -52t-84 -19.5q-52 0 -82 19.5t-45 52t-19 73.5t-4 85v942z" />
    <glyph glyph-name="L" unicode="L" horiz-adv-x="968" 
d="M178 1170q0 43 4 84t19.5 73.5t45.5 52.5t83 20q57 0 89 -20t47 -52.5t18.5 -73.5t3.5 -84v-876h196q41 0 81 -4t71.5 -19t50.5 -44t19 -79q0 -51 -19 -80.5t-50.5 -44.5t-71.5 -19t-81 -4h-284q-53 0 -94 4t-69.5 19t-43.5 44.5t-15 80.5v1022z" />
    <glyph glyph-name="M" unicode="M" horiz-adv-x="1594" 
d="M784 324q-29 0 -49.5 11t-35.5 28t-25.5 38t-17.5 41l-190 548h-26v-834q0 -32 -4 -60t-17.5 -49.5t-40 -34t-72.5 -12.5q-52 0 -82 12.5t-45 34t-19 49.5t-4 60v1016q0 43 2.5 84t16.5 73t44.5 51.5t86.5 19.5h136q34 0 57.5 -2.5t43.5 -17t39.5 -46.5t43 -90.5
t54.5 -149t76 -222.5l26 -80h24l32 100q41 126 70 213t51 143.5t39.5 87t37 45t42.5 17t56 2.5h146q56 0 86.5 -19.5t44.5 -51.5t16.5 -73t2.5 -84v-1016q0 -32 -4 -60t-19 -49.5t-45 -34t-82 -12.5q-46 0 -72.5 12.5t-40 34t-17.5 49.5t-4 60v834h-28l-188 -548
q-8 -20 -18 -41t-25 -38t-35 -28t-48 -11h-20z" />
    <glyph glyph-name="N" unicode="N" horiz-adv-x="1360" 
d="M916 414h24v830q0 32 4 60.5t17.5 49.5t40 33.5t72.5 12.5q51 0 80.5 -12.5t44.5 -33.5t19 -49.5t4 -60.5v-1014q0 -44 -2.5 -85t-16 -73.5t-44 -52t-85.5 -19.5h-132q-47 0 -78.5 18.5t-52.5 45t-33.5 55.5t-19.5 49l-302 818h-24v-830q0 -32 -4 -60.5t-17.5 -49.5
t-40 -33.5t-72.5 -12.5q-52 0 -82 12.5t-45 33.5t-19 49.5t-4 60.5v1014q0 43 2.5 84.5t16.5 74t44.5 52t86.5 19.5h132q50 0 81.5 -19.5t51.5 -42.5q22 -27 35 -62z" />
    <glyph glyph-name="O" unicode="O" horiz-adv-x="1128" 
d="M104 1004q0 96 28 163.5t71.5 112.5t96 70.5t102 38.5t89.5 16t59 3h34q19 0 59 -3t89 -16t101.5 -38.5t95 -70.5t70 -112.5t27.5 -163.5v-598q0 -99 -27.5 -168t-70 -115t-95 -72.5t-101.5 -39.5t-89 -16t-59 -3h-34q-19 0 -59 3t-89.5 16t-102 39.5t-96 72.5t-71.5 115
t-28 168v598zM436 368q2 -37 17 -65q13 -25 39.5 -45t75.5 -20q48 0 74 20t39 45q14 28 17 65v652q-3 36 -17 65q-13 24 -39 44.5t-74 20.5q-49 0 -75.5 -20.5t-39.5 -44.5q-15 -29 -17 -65v-652z" />
    <glyph glyph-name="P" unicode="P" horiz-adv-x="1082" 
d="M446 552v-324q0 -43 -2.5 -84t-17 -73t-45.5 -51.5t-89 -19.5q-56 0 -86.5 19.5t-44.5 51.5t-16.5 73t-2.5 84v944q0 43 2.5 84t16.5 73t44.5 51.5t86.5 19.5h330q124 -6 222 -52q42 -20 81.5 -50t71 -73.5t50.5 -103t19 -137.5q0 -107 -33.5 -187.5t-97 -135t-155 -82
t-206.5 -27.5h-128zM582 790q50 3 90 24q17 9 33 23t29 34.5t20.5 48.5t7.5 64q0 34 -7.5 59.5t-19.5 44t-27 31.5t-31 22q-38 19 -85 23h-146v-374h136z" />
    <glyph glyph-name="Q" unicode="Q" horiz-adv-x="1156" 
d="M122 1002q0 97 28 165t71.5 113.5t96 71t102 38t89.5 15.5t59 3h34q19 0 58.5 -3t89 -15.5t101.5 -38t95 -71t70.5 -113.5t27.5 -165v-596q0 -75 -17.5 -134t-46.5 -106l100 -90q14 -14 24 -29.5t10 -50.5q0 -15 -7 -35.5t-27 -40.5q-20 -18 -39.5 -24t-36.5 -6
q-35 0 -53 9.5t-29 20.5l-112 106q-38 -13 -70.5 -20t-59 -10t-46.5 -3.5t-32 -0.5h-34q-19 0 -59 3t-89.5 16t-102 39.5t-96 72.5t-71.5 115t-28 168v596zM454 368q2 -37 17 -65q13 -25 39.5 -45t75.5 -20q48 0 74 20t39 45q14 28 17 65v652q-3 36 -17 64q-13 24 -39 44
t-74 20q-49 0 -75.5 -20t-39.5 -44q-15 -28 -17 -64v-652z" />
    <glyph glyph-name="R" unicode="R" horiz-adv-x="1142" 
d="M142 1172q0 43 2.5 84t16.5 73t44.5 51.5t86.5 19.5h330q123 -6 220 -52q41 -20 80.5 -49.5t70.5 -73t50 -102.5t19 -137q0 -16 -3 -42.5t-13 -58t-27 -65.5t-45 -65t-68.5 -57t-95.5 -42q35 -14 71 -36.5t65 -57.5t47.5 -84t18.5 -114v-142q0 -12 6 -20t12 -14
q24 -24 28 -41.5t4 -28.5q0 -35 -14 -59t-36.5 -39t-51 -21.5t-58.5 -6.5q-33 0 -67 10.5t-62 30.5t-45.5 50t-17.5 69v212q0 44 -6 81t-23 64t-47 42t-78 15h-112v-334q0 -44 -2.5 -86t-16.5 -74.5t-45 -52t-88 -19.5q-56 0 -86.5 19.5t-44.5 52t-16.5 74.5t-2.5 86v940z
M580 790q50 2 90 24q17 9 33 23t29 35t20.5 49t7.5 65q0 33 -7.5 58.5t-19.5 44.5t-27.5 32t-31.5 21q-38 19 -86 22h-144v-374h136z" />
    <glyph glyph-name="S" unicode="S" horiz-adv-x="1014" 
d="M398 1048q1 -42 24.5 -75.5t62 -63.5t87.5 -58.5t100.5 -60t100.5 -68.5t88 -84t63 -106t26 -134v-8q0 -82 -20 -143t-53 -105t-77 -72.5t-92.5 -45.5t-98 -24t-93.5 -8h-10q-85 0 -149 17t-110 45.5t-76.5 65.5t-48.5 76.5t-26 78.5t-8 73q0 35 12 61t31.5 42.5t45 24.5
t53.5 8q26 0 53.5 -8t50 -24.5t37 -42t15.5 -59.5q2 -75 34 -102.5t92 -27.5q30 1 55.5 7.5t43.5 23t28.5 44t10.5 69.5q0 52 -23.5 94t-61.5 78t-87 68.5t-100 65t-99.5 68t-87.5 77.5t-62.5 93t-24.5 116v16q1 107 28.5 178t81 113t131.5 59.5t179 17.5h26q92 0 156 -20
t106.5 -51t67 -70t36.5 -77t15 -71t3 -53q0 -30 -11.5 -54.5t-31 -41.5t-46 -26.5t-57.5 -9.5q-24 0 -48 9.5t-43 24.5t-31 34.5t-12 39.5q0 82 -29.5 114t-86.5 32q-27 0 -52.5 -3t-45 -16.5t-31 -41.5t-11.5 -79z" />
    <glyph glyph-name="T" unicode="T" horiz-adv-x="982" 
d="M746 1400q40 0 80.5 -3t73.5 -17t53.5 -42.5t20.5 -79.5q0 -50 -20.5 -78.5t-53.5 -42.5t-73.5 -17.5t-80.5 -3.5h-102v-888q0 -43 -2.5 -84t-16.5 -73t-45 -51.5t-88 -19.5t-88 19.5t-45 51.5t-16.5 73t-2.5 84v888h-102q-40 0 -80.5 3.5t-73.5 17.5t-53.5 42.5
t-20.5 78.5q0 51 20.5 79.5t53.5 42.5t73.5 17t80.5 3h508z" />
    <glyph glyph-name="U" unicode="U" horiz-adv-x="1208" 
d="M142 1172q0 43 4.5 84t21 73t49.5 51.5t91 19.5t91.5 -19.5t50 -51.5t20.5 -73t4 -84v-788q3 -44 18 -78q6 -15 16 -29t23.5 -25t32 -17.5t42.5 -6.5t43 6.5t32.5 17.5t23.5 25t16 29q15 34 17 78v788q0 43 4 84t20.5 73t49.5 51.5t92 19.5q58 0 91 -19.5t49.5 -51.5
t21 -73t4.5 -84v-762q0 -104 -33.5 -182t-95 -130.5t-147 -79t-188.5 -26.5q-104 0 -189 27.5t-146.5 80.5t-95 131t-33.5 179v762z" />
    <glyph glyph-name="V" unicode="V" horiz-adv-x="1000" 
d="M844 1400q29 0 56 -10t47.5 -27t32.5 -40.5t12 -50.5q0 -13 -1.5 -24.5t-3.5 -20.5q-3 -11 -5 -19q-68 -267 -142 -544.5t-142 -543.5q-15 -34 -40 -60q-21 -23 -54.5 -41.5t-83.5 -18.5h-32q-50 0 -84 18.5t-55 41.5q-25 26 -39 60l-284 1088q-3 8 -5 19q-5 20 -5 45
q0 27 11.5 50.5t31.5 40.5t47 27t58 10q48 0 77.5 -21t46.5 -47q19 -30 28 -68q12 -48 26 -108.5t28 -125.5t28.5 -132.5t27.5 -130.5q31 -148 62 -303h32q34 155 66 303q13 63 27.5 130.5t28.5 132.5t27 125.5t23 108.5q10 38 29 68q17 26 46 47t77 21z" />
    <glyph glyph-name="W" unicode="W" horiz-adv-x="1666" 
d="M842 1394q28 0 52.5 -10t44 -27.5t33.5 -42t20 -52.5l172 -798h34q42 195 86 398.5t88 399.5q9 38 27 69q16 26 44.5 47.5t74.5 21.5q35 0 61.5 -12.5t44 -32t26 -42.5t8.5 -45q0 -12 -1 -23t-3 -19q-2 -10 -4 -18l-274 -1088q-15 -34 -40 -60q-21 -23 -54.5 -41.5
t-83.5 -18.5h-34q-50 0 -82 18.5t-51 41.5q-22 26 -33 60l-140 586h-34q-32 -142 -68.5 -293t-69.5 -293q-13 -34 -35 -60q-20 -23 -51.5 -41.5t-81.5 -18.5h-34q-50 0 -84.5 18.5t-56.5 41.5q-26 26 -41 60l-270 1088q-2 8 -4 18q-2 8 -3 19t-1 23q0 22 8.5 45t26 42.5
t44 32t61.5 12.5q46 0 74.5 -21.5t44.5 -47.5q18 -31 27 -69l174 -798h34q19 92 41 193.5t44.5 205t45 205t43.5 194.5q14 57 54 94.5t96 37.5z" />
    <glyph glyph-name="X" unicode="X" horiz-adv-x="1146" 
d="M388 714l-252 382q-22 33 -40 66q-15 27 -27.5 57t-12.5 51q0 27 15.5 55t54.5 51q45 24 82 24q28 0 51.5 -12.5t43 -33t36.5 -46.5t33 -52l186 -306h30l186 306q16 26 33 52t36.5 46.5t42.5 33t52 12.5q18 0 38.5 -7t43.5 -19q42 -23 58 -49.5t16 -52.5q0 -22 -13 -52
t-29 -58q-18 -33 -42 -66l-250 -382v-18l278 -438q21 -33 36.5 -65.5t15.5 -64.5q0 -27 -14.5 -53.5t-53.5 -50.5q-45 -24 -82 -24q-26 0 -47 10.5t-39 27.5t-33.5 39t-30.5 45l-202 328h-30l-202 -328q-15 -23 -30.5 -45t-33 -39t-38.5 -27.5t-46 -10.5q-38 0 -80 24
q-41 24 -56.5 50.5t-15.5 53.5q0 32 15.5 64.5t36.5 65.5l280 438v18z" />
    <glyph glyph-name="Y" unicode="Y" horiz-adv-x="1000" 
d="M654 226q0 -42 -4 -82.5t-19 -72.5t-45 -51.5t-82 -19.5q-53 0 -83 19.5t-45.5 51.5t-19.5 72.5t-4 82.5v348l-298 532q-24 42 -46 82.5t-22 81.5q0 27 15.5 54.5t56.5 51.5q45 24 84 24q30 0 54.5 -13.5t44.5 -35.5t36 -49.5t29 -55.5l182 -382h32l182 382
q13 28 29 55.5t36 49.5t44.5 35.5t54.5 13.5q21 0 41 -6t43 -18q39 -24 55.5 -51.5t16.5 -54.5q0 -18 -16 -58.5t-52 -105.5l-300 -532v-348z" />
    <glyph glyph-name="Z" unicode="Z" horiz-adv-x="1042" 
d="M600 1098l-16 16h-288q-40 0 -80 4t-72.5 17.5t-53 40t-20.5 72.5q0 52 20.5 82.5t53 46t72.5 19.5t80 4h526q38 0 67.5 -13.5t49.5 -35.5t30.5 -49t10.5 -54q0 -15 -3 -29t-9 -25l-514 -894l14 -14h288q39 0 79 -4t73 -18.5t53.5 -42.5t20.5 -77q0 -50 -20.5 -78.5
t-53.5 -43t-73 -18.5t-79 -4h-526q-38 0 -67.5 12.5t-50 32.5t-31.5 46t-11 53q0 18 2.5 31.5t11.5 28.5z" />
    <glyph glyph-name="bracketleft" unicode="[" horiz-adv-x="836" 
d="M590 246q28 0 54 -3.5t46 -16t32 -36.5t12 -64q0 -44 -12 -69t-32 -37t-46 -15t-54 -3h-206q-31 0 -57 6.5t-45.5 23t-30.5 44t-11 70.5v1110q0 71 32.5 109.5t113.5 38.5h206q28 0 54 -3.5t46 -16t32 -36.5t12 -64q0 -44 -12 -69t-32 -37t-46 -15t-54 -3h-108v-914h106z
" />
    <glyph glyph-name="backslash" unicode="\" horiz-adv-x="906" 
d="M222 1408q19 -2 34 -11.5t26 -23t19 -30.5t15 -33l488 -1142q9 -23 15.5 -44t6.5 -50q-3 -24 -21 -46t-59 -40q-31 -14 -56 -14q-23 0 -40.5 9.5t-31 24t-23.5 32t-17 34.5l-486 1140q-9 20 -15.5 43t-6.5 53q3 24 20 45.5t56 38.5q20 8 37.5 11t38.5 3z" />
    <glyph glyph-name="bracketright" unicode="]" horiz-adv-x="836" 
d="M392 246v914h-108q-28 0 -54 3t-46 15t-32 37t-12 69q0 40 12 64t32 36.5t46 16t54 3.5h206q81 0 113.5 -38.5t32.5 -109.5v-1110q0 -43 -11 -70.5t-30.5 -44t-45.5 -23t-57 -6.5h-206q-28 0 -54 3t-46 15t-32 37t-12 69q0 40 12 64t32 36.5t46 16t54 3.5h106z" />
    <glyph glyph-name="asciicircum" unicode="^" horiz-adv-x="976" 
d="M754 942q11 -11 19.5 -29.5t8.5 -42.5q0 -26 -11.5 -45t-26.5 -33q-18 -17 -35 -23.5t-35 -6.5q-24 0 -48 7.5t-38 24.5l-110 104l-110 -104q-14 -17 -38 -24.5t-48 -7.5q-18 0 -35 6.5t-35 23.5q-15 14 -26.5 33t-11.5 45q0 24 8.5 42.5t19.5 29.5l190 180
q15 15 33.5 23.5t42.5 10.5h20q45 -3 76 -34z" />
    <glyph glyph-name="underscore" unicode="_" horiz-adv-x="1408" 
d="M290 2q-28 0 -54 3.5t-46 16t-32 36t-12 64.5q0 44 12 69t32 37t46 15t54 3h820q25 0 51 -3t46.5 -15t33.5 -37t13 -69q0 -41 -13 -64.5t-33.5 -36t-46.5 -16t-51 -3.5h-764h-56z" />
    <glyph glyph-name="grave" unicode="`" horiz-adv-x="698" 
d="M534 1298q14 -9 29 -32.5t15 -53.5q0 -14 -5 -30.5t-17 -33.5q-20 -29 -43.5 -37.5t-50.5 -8.5q-15 0 -30.5 3.5t-29.5 12.5l-220 134q-20 14 -35 36.5t-15 49.5q0 14 5 32t17 36q20 29 47 37.5t53 8.5q29 0 56 -18z" />
    <glyph glyph-name="a" unicode="a" 
d="M912 226q0 -42 -3 -82.5t-18 -72.5t-45 -51.5t-84 -19.5q-55 0 -86 18.5t-46 45t-18.5 55.5t-3.5 49q-9 -29 -25.5 -59t-42.5 -54t-62.5 -39.5t-85.5 -15.5q-55 0 -110 18t-99 60t-71.5 109.5t-27.5 166.5v290q0 100 27.5 167.5t71.5 109t99 59.5t110 18q49 0 85.5 -15
t62.5 -39t42.5 -54t25.5 -60q0 50 14 83t36 52.5t49.5 27t54.5 7.5q50 0 80 -19.5t45.5 -51t20 -73t4.5 -84.5v-546zM392 380q0 -27 2 -53t11 -47t26.5 -33.5t48.5 -12.5q39 0 63.5 17.5t38.5 54t19.5 92t6.5 132.5q0 31 -5.5 71.5t-19.5 76.5t-39 61t-64 25
q-31 0 -48.5 -12.5t-26.5 -32.5t-11 -45.5t-2 -51.5v-242z" />
    <glyph glyph-name="b" unicode="b" horiz-adv-x="1042" 
d="M120 1172q0 43 4.5 84.5t20 73t45.5 51t80 19.5q52 0 83 -19.5t46.5 -51t20 -73t4.5 -84.5v-342q9 30 25.5 60t42.5 54t62.5 39t85.5 15q55 0 110 -18t99 -59.5t71.5 -109t27.5 -167.5v-290q0 -99 -27.5 -166.5t-71.5 -109.5t-99 -60t-110 -18q-49 0 -85.5 15.5
t-62.5 39.5t-42.5 54t-25.5 59q0 -20 -3.5 -49t-18.5 -55.5t-46 -45t-86 -18.5q-54 0 -84 19.5t-45 51.5t-18 72.5t-3 82.5v946zM640 622q0 26 -2 51.5t-11 45.5t-26.5 32.5t-48.5 12.5q-39 0 -64 -25t-39 -61t-19.5 -76.5t-5.5 -71.5q1 -77 6.5 -132.5t19.5 -92t38.5 -54
t63.5 -17.5q31 0 48.5 12.5t26.5 33.5t11 47t2 53v242z" />
    <glyph glyph-name="c" unicode="c" horiz-adv-x="1000" 
d="M388 346q0 -16 3 -40.5t14 -48t32.5 -40.5t58.5 -17q44 0 69 10t37 27.5t15 41t3 49.5q0 13 4.5 29.5t21.5 31t50.5 24t91.5 9.5q53 0 82 -12t42.5 -28.5t15.5 -34t2 -27.5q0 -64 -19.5 -112.5t-52.5 -84t-76 -59.5t-91.5 -38t-98.5 -20t-96 -6q-79 0 -153 21t-131.5 66
t-92.5 115.5t-35 169.5v234q0 95 22.5 161t58.5 110t81 68.5t91 36.5t87.5 15t71.5 3q89 0 155.5 -15t114.5 -40t79.5 -57.5t49.5 -68.5t25.5 -72t7.5 -67q0 -16 -2 -37.5t-15.5 -41t-42.5 -33.5t-82 -14q-19 0 -47.5 1.5t-55.5 10.5t-46 28t-19 54q0 24 -2.5 46.5
t-14.5 39.5t-36.5 27.5t-68.5 10.5q-37 0 -58.5 -12t-32.5 -30t-14 -38t-3 -36v-310z" />
    <glyph glyph-name="d" unicode="d" 
d="M910 226q0 -42 -3 -82.5t-18 -72.5t-45 -51.5t-84 -19.5q-55 0 -86 18.5t-46 45t-18.5 55.5t-3.5 49q-9 -29 -25.5 -59t-42.5 -54t-62.5 -39.5t-85.5 -15.5q-55 0 -110 18t-99 60t-71.5 109.5t-27.5 166.5v290q0 100 27.5 167.5t71.5 109t99 59.5t110 18q49 0 85.5 -15
t62.5 -39t42.5 -54t25.5 -60v342q0 43 4.5 84.5t20 73t46 51t83.5 19.5q50 0 80 -19.5t45.5 -51t20 -73t4.5 -84.5v-946zM390 380q0 -27 2 -53t11 -47t26.5 -33.5t48.5 -12.5q39 0 63.5 17.5t38.5 54t19.5 92t6.5 132.5q0 31 -5.5 71.5t-19.5 76.5t-39 61t-64 25
q-31 0 -48.5 -12.5t-26.5 -32.5t-11 -45.5t-2 -51.5v-242z" />
    <glyph glyph-name="e" unicode="e" 
d="M936 570q0 -16 -2 -37.5t-15.5 -41t-42.5 -33.5t-82 -14h-398v-96q0 -24 6 -50t20.5 -48t38.5 -36t59 -14q40 0 61.5 9.5t34 23.5t22.5 30t26.5 30t46 23.5t81.5 9.5q25 0 48.5 -4t41.5 -15t29 -30.5t11 -50.5q0 -65 -41 -108.5t-103 -69.5t-134.5 -37t-135.5 -11
q-83 1 -158 21t-132.5 64t-91.5 115t-34 174v234q0 95 22.5 161t58.5 110t81 68.5t91 36.5t87.5 15t71.5 3q101 0 172.5 -18t119.5 -47t76 -67t42 -78.5t18 -82t4 -77.5v-62zM396 594h250q0 47 -2.5 83.5t-15 61.5t-39 38t-75.5 13q-41 0 -64.5 -13t-35.5 -32.5t-15 -41.5
t-3 -39v-70z" />
    <glyph glyph-name="f" unicode="f" horiz-adv-x="750" 
d="M564 1000q25 0 51 -3t46.5 -15t33.5 -37t13 -69q0 -41 -13 -64.5t-33.5 -36t-46.5 -16t-51 -3.5h-60v-530q0 -44 -4.5 -84.5t-21 -72t-48 -50.5t-84.5 -19q-51 0 -80.5 19t-44.5 50.5t-19 72t-4 84.5v530h-56q-28 0 -53.5 3.5t-45 16t-31.5 36t-12 64.5q0 44 12 69
t31.5 37t45 15t53.5 3h56q0 88 8 162t39 126.5t92 82t167 29.5q45 0 85 -8t70 -25t47.5 -44.5t17.5 -66.5q0 -36 -12.5 -60t-30.5 -39t-39.5 -21t-39.5 -6q-15 0 -28 7t-30 7q-14 0 -21.5 -9t-12 -24t-5.5 -33t-1 -36v-42h60z" />
    <glyph glyph-name="g" unicode="g" horiz-adv-x="1042" 
d="M922 -30q0 -90 -24.5 -152t-62.5 -103t-84.5 -64t-91 -34.5t-81.5 -14t-56 -2.5q-71 0 -142 10t-129.5 37t-97 73t-43.5 118q0 12 4 27t18 28.5t42 23t76 9.5q58 0 89 -9.5t46 -23t19.5 -29t9.5 -28.5q8 -21 31.5 -29.5t64.5 -8.5q37 0 58.5 17t32.5 40.5t14 48t3 40.5
v224q-9 -30 -25.5 -60t-42.5 -54t-62.5 -39t-85.5 -15q-55 0 -110 18t-99.5 59.5t-72.5 109.5t-28 169v290q0 99 28 166.5t72.5 109.5t99.5 60t110 18q49 0 85.5 -15.5t62.5 -39.5t42.5 -54t25.5 -59q0 20 3.5 49t18.5 55.5t46 45t86 18.5q54 0 84 -19.5t45 -51.5t18 -72.5
t3 -82.5v-804zM402 378q0 -26 2 -52t11 -46.5t26.5 -33t48.5 -12.5q39 0 64 25t39 61.5t19.5 77t5.5 72.5q-1 76 -6.5 132t-19.5 92.5t-38.5 54t-63.5 17.5q-31 0 -48.5 -12.5t-26.5 -33.5t-11 -47t-2 -53v-242z" />
    <glyph glyph-name="h" unicode="h" horiz-adv-x="1042" 
d="M956 226q0 -42 -4.5 -82.5t-20 -72.5t-45.5 -51.5t-82 -19.5t-82.5 19.5t-47 51.5t-21.5 72.5t-5 82.5v394q0 26 -2 51.5t-11 45.5t-26.5 32.5t-48.5 12.5q-40 0 -65 -26.5t-39.5 -73t-20 -110t-5.5 -136.5v-190q0 -42 -4.5 -82.5t-20.5 -72.5t-47 -51.5t-84 -19.5
q-52 0 -82 19.5t-45.5 51.5t-20 72.5t-4.5 82.5v948q0 42 4.5 82.5t20 72.5t45.5 51.5t82 19.5q53 0 84 -19.5t47 -51.5t20.5 -72.5t4.5 -82.5v-342q9 29 26 59t44 54t63.5 39.5t84.5 15.5q55 0 110.5 -18.5t99 -60.5t71 -110.5t27.5 -168.5v-416z" />
    <glyph glyph-name="i" unicode="i" horiz-adv-x="626" 
d="M154 776q0 42 4.5 82t20.5 71.5t46 51t81 19.5t81 -19.5t46 -51t20.5 -71.5t4.5 -82v-552q0 -42 -4.5 -82.5t-20.5 -72t-46 -50.5t-81 -19t-81 19t-46 50.5t-20.5 72t-4.5 82.5v552zM460 1248q0 -77 -40 -114.5t-112 -37.5t-112 37.5t-40 114.5q0 80 40 116t112 36
q77 0 114.5 -36t37.5 -116z" />
    <glyph glyph-name="j" unicode="j" horiz-adv-x="626" 
d="M176 776q0 43 4.5 83.5t20.5 72t46.5 50t82.5 18.5q50 0 80 -18.5t45.5 -50t20 -72t4.5 -83.5v-746q0 -93 -7 -172t-37 -136t-91 -89.5t-169 -32.5q-44 0 -84 9t-70 28t-48 48t-18 69q0 37 7.5 61t24 38.5t42 20.5t62.5 6q31 0 48 12.5t25 33.5t9.5 48t1.5 56v746z
M480 1250q0 -75 -39.5 -112.5t-110.5 -37.5q-72 0 -113 37.5t-41 112.5q0 78 41 115t113 37q77 0 113.5 -37t36.5 -115z" />
    <glyph glyph-name="k" unicode="k" horiz-adv-x="1014" 
d="M150 1178q0 42 3 82t17 71t42.5 50t79.5 19q52 0 80.5 -19t42 -50t16.5 -71t3 -82v-394h16l206 242q18 21 42 30.5t50 9.5q25 0 50.5 -9.5t45 -27t32 -42t12.5 -55.5q0 -40 -28 -74l-180 -212l196 -374q18 -36 31 -72.5t13 -69.5q0 -32 -14 -57t-36.5 -41.5t-50 -25
t-53.5 -8.5q-33 0 -59 16t-45.5 39.5t-34.5 50.5t-25 50l-112 238h-56v-168q0 -42 -3 -82.5t-16.5 -72t-42 -50.5t-80.5 -19q-51 0 -79.5 19t-42.5 50.5t-17 72t-3 82.5v954z" />
    <glyph glyph-name="l" unicode="l" horiz-adv-x="586" 
d="M140 1178q0 42 4.5 82t20.5 71t46 50t81 19q52 0 82 -19t45.5 -50t20 -71t4.5 -82v-954q0 -42 -4.5 -82.5t-20 -72t-45.5 -50.5t-82 -19q-51 0 -81 19t-46 50.5t-20.5 72t-4.5 82.5v954z" />
    <glyph glyph-name="m" unicode="m" horiz-adv-x="1604" 
d="M808 0q-51 0 -81 19.5t-46 51.5t-20.5 72.5t-4.5 82.5v396q0 27 -2.5 53t-11.5 46t-26.5 32.5t-47.5 12.5q-40 0 -65 -27t-39.5 -73.5t-20 -109.5t-5.5 -136v-194q0 -42 -4.5 -82.5t-20 -72.5t-45.5 -51.5t-82 -19.5t-82 19.5t-45.5 51.5t-20 72.5t-4.5 82.5v548
q0 42 3.5 82.5t18.5 72.5t45.5 51.5t84.5 19.5q55 0 85.5 -18.5t45.5 -45t18 -55.5t3 -49q9 29 28.5 59t49.5 54t69 39.5t87 15.5q66 0 128 -32t106 -104q15 34 44 59.5t66 42.5t79 25.5t83 8.5q55 0 110 -18t99 -60t71.5 -109.5t27.5 -166.5v-420q0 -42 -5 -82.5t-21 -72.5
t-46.5 -51.5t-81.5 -19.5q-52 0 -82.5 19.5t-46.5 51.5t-20.5 72.5t-4.5 82.5v396q0 27 -3 53t-12 46t-27 32.5t-48 12.5q-32 0 -54.5 -20t-37.5 -55t-23 -83.5t-11 -105.5v-276q0 -42 -4.5 -82.5t-20.5 -72.5t-46.5 -51.5t-82.5 -19.5z" />
    <glyph glyph-name="n" unicode="n" horiz-adv-x="1082" 
d="M966 228q0 -43 -5 -84t-21.5 -73t-47 -51.5t-82.5 -19.5q-51 0 -81 19.5t-46 51.5t-20.5 73t-4.5 84v390q0 28 -2.5 55t-11.5 47.5t-26.5 33t-47.5 12.5q-41 0 -66 -27t-39.5 -74t-19.5 -110.5t-5 -136.5v-190q0 -43 -5 -84t-21.5 -73t-47 -51.5t-82.5 -19.5
q-51 0 -81 19.5t-46 51.5t-20.5 73t-4.5 84v546q0 43 3 83.5t18 72t45.5 51t85.5 19.5t86 -18.5t46.5 -44.5t19.5 -55t4 -50q8 29 25 59t43.5 54t63.5 39.5t86 15.5q55 0 110 -18t99 -60t71.5 -110t27.5 -168v-416z" />
    <glyph glyph-name="o" unicode="o" horiz-adv-x="990" 
d="M78 624q0 92 25 156t64.5 107t88 67t95.5 36t87.5 15t63.5 3t63 -3t85.5 -15t92 -36t84 -67t61.5 -107t24 -156v-248q0 -92 -24 -156t-61.5 -107t-84 -67t-92 -36t-85.5 -15t-63 -3t-63.5 3t-87.5 15t-95.5 36t-88 67t-64.5 107t-25 156v248zM386 306q1 -29 14 -51
q11 -20 34.5 -35.5t67.5 -15.5q42 0 64.5 15.5t33.5 35.5q12 22 14 51v362q-2 30 -14 55q-11 20 -33.5 37.5t-64.5 17.5q-44 0 -67.5 -17.5t-34.5 -37.5q-13 -25 -14 -55v-362z" />
    <glyph glyph-name="p" unicode="p" horiz-adv-x="1062" 
d="M132 774q0 42 3 82.5t18 72.5t45 51.5t84 19.5q55 0 86 -18.5t46 -45t18.5 -55.5t3.5 -49q9 29 25.5 59t42.5 54t62.5 39.5t85.5 15.5q55 0 110 -18t99 -60t71.5 -109.5t27.5 -166.5v-290q0 -100 -27.5 -167.5t-71.5 -109t-99 -59.5t-110 -18q-49 0 -85.5 15t-62.5 39
t-42.5 54t-25.5 60v-342q0 -44 -4.5 -85t-20 -72.5t-46.5 -51t-83 -19.5q-50 0 -80 19.5t-45.5 51t-20 72.5t-4.5 85v946zM652 620q0 27 -2 53t-11 47t-26.5 33.5t-48.5 12.5q-39 0 -63.5 -17.5t-38.5 -54t-19.5 -92.5t-6.5 -132q0 -32 5.5 -72.5t19.5 -76.5t39 -60.5
t64 -24.5q31 0 48.5 12.5t26.5 32.5t11 45.5t2 51.5v242z" />
    <glyph glyph-name="q" unicode="q" horiz-adv-x="1062" 
d="M932 -172q0 -44 -4.5 -85t-20 -72.5t-45.5 -51t-80 -19.5q-53 0 -83.5 19.5t-46 51t-20 72.5t-4.5 85v342q-9 -30 -25.5 -60t-42.5 -54t-62.5 -39t-85.5 -15q-55 0 -110 18t-99 59.5t-71.5 109t-27.5 167.5v290q0 99 27.5 166.5t71.5 109.5t99 60t110 18q49 0 85.5 -15.5
t62.5 -39.5t42.5 -54t25.5 -59q0 20 3.5 49t18.5 55.5t46 45t86 18.5q54 0 84 -19.5t45 -51.5t18 -72.5t3 -82.5v-946zM412 378q0 -26 2 -51.5t11 -45.5t26.5 -32.5t48.5 -12.5q39 0 64 24.5t39 60.5t19.5 76.5t5.5 72.5q-1 76 -6.5 132t-19.5 92.5t-38.5 54t-63.5 17.5
q-31 0 -48.5 -12.5t-26.5 -33.5t-11 -47t-2 -53v-242z" />
    <glyph glyph-name="r" unicode="r" horiz-adv-x="792" 
d="M770 850q0 -78 -38.5 -114t-109.5 -36q-10 0 -28.5 -1.5t-39.5 -8t-42.5 -19t-39.5 -34t-29 -54.5t-11 -79v-286q0 -41 -4.5 -80t-20.5 -69.5t-46 -49.5t-81 -19q-50 0 -79 19t-44.5 49.5t-20 69.5t-4.5 80v560q0 42 4.5 81.5t20 70.5t44.5 49.5t79 18.5q51 0 78.5 -22.5
t40.5 -58t15 -79t2 -84.5h16q14 56 37 101.5t51 77t60 48.5t64 17q39 0 63.5 -8.5t38.5 -26.5t19 -46t5 -67z" />
    <glyph glyph-name="s" unicode="s" horiz-adv-x="910" 
d="M386 738q0 -20 13 -37t35.5 -32.5t52 -30.5t61.5 -30q49 -24 100 -51.5t93 -64.5t68.5 -85.5t26.5 -114.5q0 -60 -17.5 -106t-46.5 -79.5t-67.5 -55.5t-81 -35t-86.5 -18.5t-83 -5.5q-77 0 -134 13t-98 34.5t-67.5 49t-41.5 57.5t-21 59.5t-6 54.5q0 60 33.5 88t102.5 28
q50 0 82 -27t34 -87q1 -20 11.5 -32t27 -19.5t36.5 -10t39 -2.5q39 0 63.5 20.5t24.5 53.5q0 28 -16.5 52.5t-43.5 45.5t-61.5 40.5t-70.5 39.5q-45 24 -90.5 51t-82.5 60t-60 74.5t-23 94.5q0 78 25.5 130.5t74.5 85t119.5 46.5t160.5 16h16q81 0 137.5 -14t94 -36.5
t59 -50.5t32 -56.5t13 -54.5t2.5 -44q0 -30 -12.5 -49.5t-33 -31t-46.5 -16t-54 -5.5q-24 0 -43.5 8t-33.5 20t-21.5 27t-7.5 29q-2 38 -30.5 58t-69.5 20q-17 0 -32.5 -3.5t-28 -12t-20 -22.5t-7.5 -36z" />
    <glyph glyph-name="t" unicode="t" horiz-adv-x="870" 
d="M258 1000v176q0 42 4.5 82t20.5 71.5t46 51t81 19.5q50 0 80 -19.5t45.5 -51t20 -71.5t4.5 -82v-176h82q26 0 52 -2.5t46.5 -14.5t33 -36t12.5 -67q0 -41 -12.5 -65t-33 -36t-46.5 -15.5t-52 -3.5h-82v-350q0 -20 1.5 -42.5t10.5 -41.5t27 -31.5t51 -12.5q36 0 61.5 -5.5
t42 -19.5t24.5 -39t8 -64q0 -40 -18.5 -69t-49.5 -48t-72 -28t-86 -9q-71 0 -121.5 15t-84 42.5t-53 66t-29 86.5t-12 103.5t-2.5 116.5v330h-56q-26 0 -51.5 3.5t-45.5 15.5t-32.5 36t-12.5 65q0 43 12.5 67t32.5 36t45.5 14.5t51.5 2.5h56z" />
    <glyph glyph-name="u" unicode="u" horiz-adv-x="1076" 
d="M118 772q0 43 5 84t21.5 73t47 51.5t82.5 19.5q51 0 81 -19.5t46 -51.5t20.5 -73t4.5 -84v-390q0 -29 2.5 -55.5t11.5 -47t26.5 -33t47.5 -12.5q40 0 65.5 27t40 74t19.5 110.5t5 136.5v190q0 43 5 84t21.5 73t47 51.5t82.5 19.5q51 0 81 -19.5t46 -51.5t20.5 -73
t4.5 -84v-546q0 -43 -3 -83.5t-18 -72t-45.5 -51t-85.5 -19.5t-86 18.5t-46.5 44.5t-19.5 55t-4 50q-8 -29 -25 -59t-43.5 -54t-63.5 -39.5t-86 -15.5q-55 0 -110 18t-99 60t-71.5 110t-27.5 168v416z" />
    <glyph glyph-name="v" unicode="v" horiz-adv-x="876" 
d="M598 156q-22 -58 -41 -89.5t-37 -46.5t-36 -17.5t-38 -2.5q-22 0 -41 2.5t-38 17t-39 46t-42 90.5l-226 592q-9 24 -16.5 51.5t-7.5 54.5q0 29 7.5 55.5t24.5 46.5t44 32t66 12q28 0 51.5 -12t42 -32t32.5 -46t22 -54l112 -364h16l104 364q7 25 20 51t31.5 46.5t44 33.5
t58.5 13q36 0 61 -12.5t41 -33t23 -47.5t7 -55q0 -26 -6.5 -52t-17.5 -52z" />
    <glyph glyph-name="w" unicode="w" horiz-adv-x="1396" 
d="M700 884q48 0 85.5 -30.5t66.5 -109.5l106 -282h16l112 392q8 28 20.5 54t30.5 46.5t43 33t60 12.5q36 0 61 -13t41 -34t23 -48t7 -55q0 -27 -7.5 -52.5t-16.5 -51.5l-222 -590q-23 -59 -41.5 -90.5t-36.5 -46t-36 -17t-38 -2.5q-22 0 -41.5 2.5t-39 17t-39.5 46
t-42 90.5l-104 360h-16l-108 -360q-22 -59 -40.5 -90.5t-36 -46t-35.5 -17t-38 -2.5q-22 0 -41.5 2.5t-39 17t-39.5 46t-42 90.5l-224 590q-9 24 -16.5 51.5t-7.5 54.5q0 29 7.5 56t24 47.5t43.5 32.5t67 12q28 0 50.5 -12.5t40.5 -33t31 -46.5t22 -54l126 -392h16l92 282
q25 79 66.5 109.5t89.5 30.5z" />
    <glyph glyph-name="x" unicode="x" horiz-adv-x="938" 
d="M728 1000q17 0 36 -6t40 -20q30 -20 43 -43t13 -49q0 -33 -16 -69t-40 -69l-178 -244l178 -242q23 -35 39.5 -70t16.5 -68q0 -26 -13 -50t-43 -44q-40 -26 -74 -26q-21 0 -39.5 9t-35 24t-32 35t-31.5 42l-120 168l-124 -168q-14 -23 -29 -43t-31.5 -35t-34.5 -23.5
t-39 -8.5q-34 0 -74 26q-30 21 -43 44.5t-13 49.5q0 33 16.5 68t39.5 70l168 242l-168 244q-23 35 -39.5 69t-16.5 67q0 26 13 49.5t43 44.5q40 26 74 26q21 0 39 -8.5t34.5 -23.5t31.5 -34.5t29 -41.5l124 -168l120 168q15 22 30 41.5t31.5 34.5t35 23.5t39.5 8.5z" />
    <glyph glyph-name="y" unicode="y" horiz-adv-x="916" 
d="M230 -400q-114 0 -162 32.5t-48 95.5q0 31 8.5 52t23.5 34t34.5 18.5t41.5 5.5q15 0 28 -1t22 -1q19 0 36.5 22.5t34 56.5t33.5 73t34 72l-16 40q-29 73 -61 153.5t-63.5 163t-62 164.5t-55.5 159q-11 32 -18.5 63t-7.5 61q0 29 12 54t33 43t48.5 28.5t58.5 10.5
q28 0 51.5 -12t42 -33t32.5 -48t24 -57l134 -422l128 422q9 28 23 56t33 49.5t43 35t53 13.5t55.5 -11t46 -30.5t31 -46.5t11.5 -58q0 -30 -7.5 -59.5t-18.5 -58.5l-240 -636q-21 -54 -45.5 -112.5t-53.5 -114.5t-62 -106t-70 -88t-78.5 -60.5t-86.5 -22.5z" />
    <glyph glyph-name="z" unicode="z" horiz-adv-x="916" 
d="M654 1000q28 0 61 -5t60.5 -18.5t46 -38t18.5 -62.5q0 -17 -5.5 -34t-13.5 -34.5t-17.5 -34.5t-17.5 -33l-348 -486h220q35 0 68.5 -3.5t59.5 -16.5t42 -38t16 -68q0 -42 -16 -67.5t-42 -39t-59.5 -17.5t-68.5 -4h-394q-30 0 -63 4t-61 17t-46 37t-18 64q0 36 17.5 72
t38.5 66l346 488h-220q-35 0 -68 3.5t-59.5 16.5t-42.5 37.5t-16 66.5q0 43 16 68t42.5 38.5t59.5 17.5t68 4h396z" />
    <glyph glyph-name="braceleft" unicode="{" horiz-adv-x="1012" 
d="M794 1566q37 0 63.5 -9t43 -25t24 -37t7.5 -45q0 -48 -30.5 -82t-99.5 -34q-45 -2 -80 -21q-15 -8 -29.5 -21t-25.5 -31.5t-18 -44.5t-7 -60v-138q0 -70 -15 -124.5t-35.5 -92.5t-41.5 -59.5t-32 -25.5q11 -4 32 -25.5t41.5 -60t35.5 -93t15 -123.5v-176q0 -31 7 -54.5
t18 -41t25.5 -29.5t29.5 -20q35 -18 80 -21q69 0 99.5 -34t30.5 -82q0 -24 -8.5 -45t-29.5 -37t-56 -25t-88 -9q-109 6 -194 52q-36 19 -71 49.5t-62.5 74t-44 103t-16.5 137.5v188q0 46 -9.5 76.5t-24.5 50t-34 31.5t-38 22q-14 8 -26.5 16t-21.5 18.5t-14.5 24t-5.5 33.5
q0 39 19.5 57t48.5 33q19 10 38 22t34 31.5t24.5 50.5t9.5 78v216q0 91 33.5 159t92 113t137 67.5t169.5 22.5z" />
    <glyph glyph-name="bar" unicode="|" horiz-adv-x="604" 
d="M424 -16q0 -28 -3.5 -54t-16 -46t-36.5 -32t-64 -12q-44 0 -69 12t-37 32t-15 46t-3 54v1438q0 25 3 51t15 46.5t37 33.5t69 13q40 0 64 -13t36.5 -33.5t16 -46.5t3.5 -51v-1382v-56z" />
    <glyph glyph-name="braceright" unicode="}" horiz-adv-x="1012" 
d="M824 716q0 -20 -5.5 -33.5t-14.5 -24t-21.5 -18.5t-26.5 -16q-18 -10 -37 -22t-34 -31.5t-25 -50t-10 -76.5v-188q0 -78 -16.5 -137.5t-44 -103t-62.5 -74t-71 -49.5q-85 -46 -194 -52q-53 0 -88 9t-56 25t-29.5 37t-8.5 45t7.5 45t23.5 37t41 25t60 9q44 3 79 21
q15 8 29 20t25 29.5t18 41t7 54.5v176q0 69 15.5 123.5t36.5 93t42 60t32 25.5q-11 4 -32 25.5t-42 59.5t-36.5 92.5t-15.5 124.5v138q0 34 -7 60t-18 44.5t-25 31.5t-29 21q-35 19 -79 21q-35 0 -60 9t-41 25t-23.5 37t-7.5 45t7.5 45t24 37t43.5 25t65 9q91 0 169.5 -22.5
t136.5 -67.5t91 -113t33 -159v-216q0 -47 10 -78t25 -50.5t34 -31.5t37 -22q29 -15 48.5 -33t19.5 -57z" />
    <glyph glyph-name="asciitilde" unicode="~" horiz-adv-x="918" 
d="M422 158q-20 11 -35 16.5t-27 5.5q-18 0 -36 -12.5t-44 -39.5q-15 -17 -32 -27.5t-32 -10.5q-18 0 -42.5 11.5t-39.5 32.5q-22 25 -22 52q0 21 14 45.5t46 54.5l74 66q24 21 48.5 33.5t53.5 12.5q21 0 41.5 -8t44.5 -20q43 -22 69.5 -35t41.5 -20t21 -9t10 -2
q15 0 30.5 10t33.5 30q17 15 35 25.5t39 10.5q14 -2 27.5 -8.5t30.5 -23.5q18 -18 24 -35t6 -35q-2 -12 -9 -25t-16.5 -25.5t-20 -23.5t-18.5 -18q-35 -36 -59 -56.5t-40.5 -30.5t-27.5 -12.5t-21 -2.5q-8 0 -17.5 1.5t-27.5 9t-47 22.5t-76 41z" />
    <glyph glyph-name="exclamdown" unicode="&#xa1;" horiz-adv-x="808" 
d="M302 812q0 31 3.5 61.5t15.5 54t34.5 38t60.5 14.5t60.5 -14.5t34.5 -38t15.5 -54t3.5 -61.5l52 -324v-268q0 -42 -7 -82t-25 -71t-50.5 -50t-83.5 -19t-83 19t-50 50.5t-24.5 72t-6.5 82.5v270zM252 1232q0 85 43 125.5t121 40.5q80 0 123 -40.5t43 -125.5
q0 -86 -43 -125t-123 -39q-83 0 -123.5 39t-40.5 125z" />
    <glyph glyph-name="cent" unicode="&#xa2;" horiz-adv-x="1000" 
d="M386 520q0 -16 3 -40.5t14 -48t32.5 -40.5t58.5 -17q44 0 69 10t37 27.5t15 41t3 49.5q0 13 4.5 29.5t21.5 31t50.5 24t91.5 9.5q53 0 82 -12t42.5 -28.5t15.5 -34t2 -27.5q0 -78 -28 -133t-73 -92t-103 -57.5t-118 -29.5v-32q0 -28 -3.5 -54t-16 -46t-36.5 -32t-64 -12
q-44 0 -69 12t-37 32t-15 46t-3 54v38q-59 14 -110 42.5t-88.5 72.5t-59.5 104.5t-22 138.5v234q0 102 25.5 171t66 112.5t90 66t98.5 32.5v78q0 25 3 51t15 46.5t37 33.5t69 13q40 0 64 -13t36.5 -33.5t16 -46.5t3.5 -51v-74q97 -14 159.5 -48.5t98 -79t49 -93.5t13.5 -91
q0 -16 -2 -37.5t-15.5 -41t-42.5 -33.5t-82 -14q-19 0 -47.5 1.5t-55.5 10.5t-46 28t-19 54q0 24 -2.5 46.5t-14.5 39.5t-36.5 27.5t-68.5 10.5q-37 0 -58.5 -12t-32.5 -30t-14 -38t-3 -36v-310z" />
    <glyph glyph-name="sterling" unicode="&#xa3;" horiz-adv-x="1236" 
d="M488 498v-216h276q39 0 78.5 -4t71.5 -18t52 -41.5t20 -74.5q0 -50 -20 -78.5t-52 -43t-71.5 -18.5t-78.5 -4h-416q-52 0 -83.5 18t-48.5 48.5t-22.5 71t-5.5 86.5v274h-10q-28 0 -54 3.5t-46 16t-32 36t-12 64.5q0 44 12 69t32.5 37t46.5 15t55 3h8v250
q0 104 29.5 175.5t75 117.5t100 71t103.5 36.5t86 13.5t48 2q110 0 189 -25t133.5 -65t87.5 -90.5t51 -102.5t23.5 -100t5.5 -83q0 -14 -2.5 -34t-17 -38.5t-45.5 -32t-89 -13.5q-19 0 -47.5 2.5t-55.5 12t-46 27.5t-19 50q0 58 -7 104t-26 78t-51.5 49t-83.5 17
q-53 0 -82 -22.5t-42 -49.5q-16 -32 -18 -72v-278h132q25 0 51 -3t46.5 -15t33.5 -37t13 -69q0 -41 -13 -64.5t-33.5 -36t-46.5 -16t-51 -3.5h-132z" />
    <glyph glyph-name="currency" unicode="&#xa4;" horiz-adv-x="1192" 
d="M906 598q0 -39 -5.5 -73t-14.5 -63l66 -64q24 -24 42 -48.5t18 -53.5q0 -20 -10 -41t-36 -47q-23 -23 -42.5 -32.5t-39.5 -9.5q-29 0 -54.5 18t-49.5 42l-64 62q-60 -18 -136 -18t-136 18l-64 -62q-24 -24 -49.5 -42t-54.5 -18q-20 0 -39.5 9.5t-42.5 32.5q-26 26 -36 47
t-10 41q0 29 18 53.5t42 48.5l62 62q-18 60 -18 138q0 77 18 134l-64 66q-23 23 -40.5 48.5t-17.5 55.5q0 20 9.5 39.5t32.5 42.5q24 24 45 35t41 11q30 0 54.5 -18.5t47.5 -41.5l64 -66q30 11 64.5 15.5t73.5 4.5q78 0 138 -18l64 64q23 23 47.5 41.5t54.5 18.5
q40 0 86 -46q23 -23 32.5 -42.5t9.5 -39.5q0 -30 -17.5 -55.5t-40.5 -48.5l-66 -66q18 -57 18 -134zM742 598q0 86 -40.5 125t-121.5 39q-77 0 -119.5 -39t-42.5 -125q0 -81 42.5 -121.5t119.5 -40.5t119.5 40.5t42.5 121.5z" />
    <glyph glyph-name="yen" unicode="&#xa5;" horiz-adv-x="1000" 
d="M626 330v-142q0 -36 -3.5 -70.5t-16 -61.5t-38 -43.5t-68.5 -16.5q-44 0 -69.5 16.5t-38.5 43.5t-16.5 61.5t-3.5 70.5v142h-68q-28 0 -54 3.5t-46 16t-32 36t-12 64.5q0 44 12 69t32 37t46 15t54 3h68v128l-258 458q-24 38 -38 71t-14 59q0 23 13.5 46t46.5 44
q37 20 72 20q25 0 46 -11.5t38 -30t30 -42t24 -46.5l154 -324h28l154 324q10 23 23.5 46.5t30.5 42t37.5 30t46.5 11.5q35 0 72 -20q33 -21 46.5 -44t13.5 -46q0 -15 -13 -49.5t-45 -88.5l-254 -450v-128h70q25 0 51 -3t46.5 -15t33.5 -37t13 -69q0 -41 -13 -64.5t-33.5 -36
t-46.5 -16t-51 -3.5h-70z" />
    <glyph glyph-name="brokenbar" unicode="&#xa6;" horiz-adv-x="666" 
d="M452 962q0 -28 -3.5 -54t-16 -46t-36.5 -32t-64 -12q-44 0 -69 12t-37 32t-15 46t-3 54v460q0 25 3 51t15 46.5t37 33.5t69 13q40 0 64 -13t36.5 -33.5t16 -46.5t3.5 -51v-404v-56zM452 -16q0 -28 -3.5 -54t-16 -46t-36.5 -32t-64 -12q-44 0 -69 12t-37 32t-15 46t-3 54
v458q0 25 3 51t15 46.5t37 33.5t69 13q40 0 64 -13t36.5 -33.5t16 -46.5t3.5 -51v-402v-56z" />
    <glyph glyph-name="section" unicode="&#xa7;" horiz-adv-x="1162" 
d="M1004 618q0 -58 -10 -104t-28 -82.5t-42 -64t-52 -47.5q25 -17 48 -39t39.5 -47.5t26.5 -54.5t10 -59q0 -109 -29.5 -179.5t-85.5 -112t-137.5 -58t-185.5 -16.5q-95 0 -161 18t-110 47t-68.5 66t-36.5 74t-15 71t-3 58q0 35 12.5 60.5t33 42t46.5 24t52 7.5
q25 0 49 -9.5t43.5 -24.5t31.5 -35t12 -41q0 -41 7 -69.5t21.5 -46t35.5 -25t50 -7.5q28 0 53.5 2.5t45 16t31.5 43t12 82.5q0 28 -11.5 52t-29 41.5t-39 28t-40.5 12.5q-24 0 -63.5 2.5t-85 13.5t-92 34t-84 65t-61.5 105.5t-24 155.5v8q0 56 9 101.5t25.5 81.5t39 63.5
t48.5 47.5q-26 16 -49.5 38.5t-41 49t-27.5 56t-10 60.5q0 109 29.5 179.5t85.5 112t137.5 58t185.5 16.5q95 0 161 -18t110 -47t68.5 -66t36.5 -74t15 -71t3 -58q0 -35 -12.5 -60.5t-33 -42t-46.5 -24t-52 -7.5q-25 0 -49 9.5t-43.5 24.5t-31.5 35t-12 41q0 82 -28.5 115
t-85.5 33q-28 0 -53.5 -2.5t-45 -16t-31.5 -43t-12 -82.5q0 -30 12.5 -54.5t30.5 -42.5t39 -27.5t38 -9.5q23 0 63.5 -2.5t87.5 -13.5t95.5 -34t88 -65t64.5 -105.5t25 -155.5v-8zM696 696q-3 28 -15 51q-11 19 -34 35t-67 16q-42 0 -64.5 -16t-33.5 -35q-12 -23 -14 -51
v-122q2 -31 14 -55q11 -21 33.5 -38t64.5 -17q44 0 67 17t34 38q12 24 15 55v122z" />
    <glyph glyph-name="dieresis" unicode="&#xa8;" horiz-adv-x="934" 
d="M400 1252q0 -77 -40 -114.5t-112 -37.5t-112 37.5t-40 114.5q0 80 40 116t112 36q77 0 114.5 -36t37.5 -116zM816 1252q0 -77 -40 -114.5t-112 -37.5t-112 37.5t-40 114.5q0 80 40 116t112 36q77 0 114.5 -36t37.5 -116z" />
    <glyph glyph-name="copyright" unicode="&#xa9;" horiz-adv-x="1470" 
d="M510 872q0 40 9.5 70.5t25.5 53t36.5 38t41.5 25.5q49 24 113 27q53 0 91 -12t64 -31.5t41.5 -44t24 -49.5t11 -48.5t2.5 -40.5q0 -8 -1 -18.5t-8.5 -20t-23 -16.5t-43.5 -7q-10 0 -24 1.5t-27.5 6.5t-23 14t-9.5 24q0 27 -3 49t-11 37t-22.5 23.5t-37.5 8.5t-35.5 -10
t-17.5 -22q-7 -14 -7 -32v-300q0 -21 7 -38q5 -14 17.5 -26t35.5 -12t37.5 9.5t22.5 26t11 37t3 43.5q0 9 2.5 17t11 14t25 9.5t45.5 3.5q28 0 43.5 -7t23 -15.5t8.5 -15.5t1 -8q0 -53 -18 -94.5t-50.5 -71t-77.5 -45t-98 -15.5q-9 0 -29 1t-44 7t-49.5 18t-46 34t-34 55.5
t-13.5 82.5v264zM1228 742q0 264 -125 385t-375 121q-118 0 -210.5 -29.5t-156.5 -91.5t-97.5 -157.5t-33.5 -227.5q0 -123 33.5 -216t97.5 -155t156.5 -93.5t210.5 -31.5t210.5 31.5t157 93.5t98.5 155t34 216zM1316 744q0 -149 -38.5 -259.5t-113.5 -183.5t-184 -109
t-250 -36t-251.5 36t-186.5 109t-116 183.5t-40 259.5q0 154 40 266t116 184.5t186.5 107t251.5 34.5q148 0 258.5 -34.5t183 -107t108.5 -184.5t36 -266z" />
    <glyph glyph-name="ordfeminine" unicode="&#xaa;" horiz-adv-x="798" 
d="M602.881 969.663q0 -23.3535 -1.67383 -45.873q-1.67383 -22.5186 -10.0439 -40.3115t-25.1094 -28.6357t-46.8701 -10.8428q-30.6895 0 -47.9863 10.2861q-17.2979 10.2871 -25.668 25.0215q-8.36914 14.7354 -10.3223 30.8604t-1.95312 27.2451
q-5.02148 -16.125 -14.2285 -32.8057t-23.7148 -30.0254q-14.5068 -13.3447 -34.873 -21.9639q-20.3672 -8.61816 -47.708 -8.61816q-30.6895 0 -61.3779 10.0088q-30.6895 10.0088 -55.2402 33.3613q-24.5518 23.3535 -39.8965 60.8857q-15.3438 37.5322 -15.3438 92.5791
v161.249q0 55.6025 15.3438 93.1348q15.3447 37.5322 39.8965 60.6074q24.5508 23.0752 55.2402 33.084q30.6885 10.0078 61.3779 10.0078q27.3408 0 47.708 -8.33984q20.3662 -8.34082 34.873 -21.6855q14.5078 -13.3447 23.7148 -30.0254
q9.20703 -16.6816 14.2285 -33.3623q0 27.8018 7.81152 46.1504q7.81152 18.3496 20.0879 29.1924q12.2754 10.8418 27.6201 15.0127q15.3447 4.16992 30.4102 4.16992q27.8984 0 44.6387 -10.8428q16.7393 -10.8428 25.3877 -28.3574q8.64941 -17.5146 11.1602 -40.5898
t2.51074 -46.9844v-303.593zM312.729 1055.29q0 -15.0127 1.11621 -29.4688q1.11523 -14.457 6.1377 -26.1338q5.02148 -11.6768 14.7861 -18.627t27.0625 -6.9502q21.7617 0 35.4316 9.73047q13.6709 9.73047 21.4824 30.0254q7.8125 20.2949 10.8809 51.1553
q3.06934 30.8594 3.62695 73.6738q0 17.2363 -3.06934 39.7559q-3.06836 22.5195 -10.8799 42.5361q-7.8125 20.0176 -21.7617 33.918t-35.7109 13.9004q-17.2979 0 -27.0625 -6.9502t-14.7861 -18.0703q-5.02246 -11.1211 -6.1377 -25.2998
q-1.11621 -14.1787 -1.11621 -28.6357v-134.56z" />
    <glyph glyph-name="guillemotleft" unicode="&#xab;" horiz-adv-x="1526" 
d="M188 506q-10 10 -20.5 21t-19.5 24t-14.5 27t-5.5 30q0 29 18 52.5t44 49.5l314 312q23 23 47.5 41.5t54.5 18.5q20 0 41 -11t45 -35q23 -23 32.5 -42.5t9.5 -39.5q0 -30 -17.5 -55.5t-40.5 -48.5l-246 -244l244 -240q24 -24 42 -48.5t18 -53.5q0 -20 -10 -41t-36 -47
q-23 -23 -42.5 -32.5t-39.5 -9.5q-29 0 -54.5 18t-49.5 42zM750 508q-10 10 -20.5 21t-19.5 24t-14.5 27t-5.5 30q0 29 18 52.5t44 49.5l314 312q23 23 47.5 41.5t54.5 18.5q20 0 41 -11t45 -35q23 -23 32.5 -42.5t9.5 -39.5q0 -30 -17.5 -55.5t-40.5 -48.5l-246 -244
l244 -240q24 -24 42 -48.5t18 -53.5q0 -20 -10 -41t-36 -47q-23 -23 -42.5 -32.5t-39.5 -9.5q-29 0 -54.5 18t-49.5 42z" />
    <glyph glyph-name="logicalnot" unicode="&#xac;" horiz-adv-x="1492" 
d="M308 858q-29 0 -55 3.5t-45.5 16t-31.5 36t-12 64.5q0 44 12 69t32 37t46 15t54 3h810q35 0 62.5 -5.5t46.5 -21.5t29 -44.5t10 -74.5v-352q0 -28 -3.5 -54t-16 -46t-36.5 -32t-64 -12q-44 0 -69 12t-37 32t-15 46t-3 54v254h-692h-22z" />
    <glyph glyph-name="registered" unicode="&#xae;" horiz-adv-x="1424" 
d="M492 974q0 21 1 40t8 34t22 23.5t43 8.5h156q60 -4 108 -25q20 -9 39.5 -23.5t34.5 -35t24.5 -48t9.5 -64.5q0 -13 -4 -35.5t-17.5 -46.5t-38 -46.5t-64.5 -35.5q17 -5 34.5 -15t31.5 -27t23 -41t9 -55v-66q0 -15 10 -18q12 -12 14 -21t2 -15q0 -17 -7 -29t-18 -19.5
t-25 -10.5t-28 -3q-16 0 -32.5 5t-30 15t-22.5 25t-9 35v102q0 21 -2.5 39t-10.5 31t-22.5 20.5t-38.5 7.5h-54v-162q0 -22 -1 -42t-8 -35.5t-21.5 -25t-41.5 -9.5q-28 0 -43 9.5t-22 25t-8 35.5t-1 42v456zM704 786q24 1 43 12q16 9 29.5 29t13.5 57q0 32 -12.5 49.5
t-27.5 25.5q-18 10 -40 11h-72v-184h66zM1208 742q0 264 -125 385t-375 121q-118 0 -210.5 -29.5t-156.5 -91.5t-97.5 -157.5t-33.5 -227.5q0 -123 33.5 -216t97.5 -155t156.5 -93.5t210.5 -31.5t210.5 31.5t157 93.5t98.5 155t34 216zM1296 744q0 -149 -38.5 -259.5
t-113.5 -183.5t-184 -109t-250 -36t-251.5 36t-186.5 109t-116 183.5t-40 259.5q0 154 40 266t116 184.5t186.5 107t251.5 34.5q148 0 258.5 -34.5t183 -107t108.5 -184.5t36 -266z" />
    <glyph glyph-name="macron" unicode="&#xaf;" horiz-adv-x="996" 
d="M700 1400q25 0 54 -2.5t53.5 -13t40.5 -33.5t16 -63q0 -41 -16 -63.5t-40.5 -33t-53.5 -13t-54 -2.5h-402q-28 0 -57 2.5t-53 13t-39 33t-15 63.5q0 40 15 63t39 33.5t53 13t57 2.5h402z" />
    <glyph glyph-name="degree" unicode="&#xb0;" horiz-adv-x="832" 
d="M524 1104q0 112 -110 112q-54 0 -84 -27.5t-30 -84.5t30 -85.5t84 -28.5q53 0 81.5 28.5t28.5 85.5zM694 1104q0 -146 -73 -215t-207 -69q-137 0 -211.5 69t-74.5 215q0 145 74.5 212.5t211.5 67.5q143 0 211.5 -67t68.5 -213z" />
    <glyph glyph-name="plusminus" unicode="&#xb1;" horiz-adv-x="1058" 
d="M308 212q-28 0 -54 3.5t-46 16t-32 36t-12 64.5q0 44 12 69t32 37t46 15t54 3h442q25 0 51 -3t46.5 -15t33.5 -37t13 -69q0 -41 -13 -64.5t-33.5 -36t-46.5 -16t-51 -3.5h-386h-56zM312 798q-28 0 -54 3.5t-46 16t-32 36t-12 64.5q0 44 12 69t32 37t46 15t54 3h98v98
q0 25 3 51t15 46.5t37 33.5t69 13q40 0 64 -13t36.5 -33.5t16 -46.5t3.5 -51v-98h100q25 0 51 -3t46.5 -15t33.5 -37t13 -69q0 -41 -13 -64.5t-33.5 -36t-46.5 -16t-51 -3.5h-100v-100q0 -28 -3.5 -54t-16 -46t-36.5 -32t-64 -12q-44 0 -69 12t-37 32t-15 46t-3 54v100h-98z
" />
    <glyph glyph-name="twosuperior" unicode="&#xb2;" horiz-adv-x="640" 
d="M312 1398q91 0 135.5 -44t44.5 -118q0 -47 -23.5 -80t-51.5 -53q-33 -25 -75 -39q-14 -5 -27.5 -12t-24 -16.5t-17.5 -22.5t-7 -29v-18h138q13 0 29 -1t30.5 -6.5t24.5 -17t10 -31.5q0 -23 -8 -35t-21.5 -17.5t-30.5 -6.5t-34 -1h-196q-19 0 -31.5 6.5t-20 17t-11 23
t-3.5 25.5v62q0 60 37.5 103t100.5 67q31 12 49.5 23.5t28.5 22t13 21t3 21.5q0 20 -6.5 31.5t-16 17.5t-20.5 7.5t-19 1.5q-20 0 -32 -5.5t-18 -14.5t-8 -19t-2 -19q0 -16 -5.5 -26.5t-14 -17t-18.5 -9.5t-18 -3q-29 0 -44.5 14.5t-15.5 35.5q0 16 6 43t24.5 53.5t53 46
t92.5 19.5z" />
    <glyph glyph-name="threesuperior" unicode="&#xb3;" horiz-adv-x="666" 
d="M330 1278h-96q-14 0 -28.5 1.5t-26.5 6.5t-19.5 15t-7.5 27q0 22 8 34.5t21 18.5t28.5 7.5t30.5 1.5h168q32 0 48 -19t16 -43q0 -3 -0.5 -10.5t-3.5 -13.5l-80 -126q38 -5 59 -23t30.5 -42.5t11 -52t1.5 -50.5v-10q0 -34 -11 -62.5t-33 -49.5t-55.5 -32.5t-78.5 -11.5
q-59 0 -94.5 19.5t-54 45t-24 51.5t-5.5 40q0 27 17 42.5t43 15.5q8 0 18 -3t19 -10t15 -18t6 -27q0 -10 2 -20.5t8.5 -19.5t18 -14.5t31.5 -5.5q8 0 19 2t21 10t17 23.5t7 42.5q0 22 -1.5 37t-7 24t-16 13t-29.5 4q-24 0 -38 15t-14 35q0 11 4 20t10 24z" />
    <glyph glyph-name="acute" unicode="&#xb4;" horiz-adv-x="718" 
d="M400 1434q27 18 56 18q26 0 53 -8.5t47 -37.5q12 -18 17 -36t5 -32q0 -27 -15 -49.5t-35 -36.5l-220 -134q-14 -9 -29.5 -12.5t-30.5 -3.5q-27 0 -50.5 8.5t-43.5 37.5q-12 17 -17 33.5t-5 30.5q0 30 15 53.5t29 32.5z" />
    <glyph glyph-name="uni00B5" unicode="&#xb5;" horiz-adv-x="1316" 
d="M180 778q0 43 7.5 83t25.5 71t49.5 49.5t79.5 18.5q85 0 123.5 -57.5t38.5 -156.5q0 -119 7.5 -205.5t25.5 -143t48 -84t75 -27.5q43 0 74.5 24t52.5 75.5t31 132.5t10 194q0 130 37.5 189t124.5 59q51 0 81.5 -19.5t46.5 -51.5t21 -73t5 -84v-546q0 -43 -3 -83.5
t-18 -72t-45.5 -51t-85.5 -19.5t-86 21.5t-46.5 51.5t-19.5 62t-4 53q-7 -25 -21.5 -50t-37 -45.5t-52 -33.5t-65.5 -13q-41 0 -74.5 10t-58 26.5t-40.5 38.5t-23 47v-224q0 -42 -2.5 -82.5t-16 -72t-41.5 -50.5t-80 -19q-51 0 -80 19t-43 50.5t-17.5 72t-3.5 82.5v834z" />
    <glyph glyph-name="paragraph" unicode="&#xb6;" horiz-adv-x="1408" 
d="M1020 1398q56 0 96.5 -19.5t66 -51.5t37.5 -73t12 -84v-1292q0 -42 -4.5 -82.5t-20 -72.5t-45.5 -51.5t-82 -19.5t-82.5 19.5t-47 51.5t-21.5 72.5t-5 82.5v1238h-188v-1238q0 -42 -4.5 -82.5t-20 -72.5t-45.5 -51.5t-82 -19.5t-82.5 19.5t-47 51.5t-21.5 72.5t-5 82.5
v760q-55 0 -110 20.5t-99 64t-71.5 110.5t-27.5 159v52q0 91 27.5 158t71.5 110.5t99 64.5t110 21h592z" />
    <glyph glyph-name="periodcentered" unicode="&#xb7;" horiz-adv-x="820" 
d="M578 700q0 -85 -43 -125.5t-121 -40.5q-80 0 -123 40.5t-43 125.5q0 86 43 125t123 39q83 0 123.5 -39t40.5 -125z" />
    <glyph glyph-name="cedilla" unicode="&#xb8;" horiz-adv-x="664" 
d="M350 96h122l-70 -118q45 -4 80.5 -6t60.5 -17t38 -48.5t13 -100.5v-8q0 -58 -23 -95t-60.5 -58t-86 -29t-100.5 -8q-69 0 -116.5 12.5t-76.5 36.5t-42 59.5t-13 81.5q0 13 8 24.5t21 19t29 12t32 4.5q10 0 25.5 -3.5t29 -11.5t23.5 -20.5t10 -30.5q0 -11 2 -25t9.5 -26.5
t21.5 -21.5t37 -9q9 0 21.5 4t24.5 16t20 32.5t8 53.5q0 25 -2 38.5t-8.5 20t-19 8t-34.5 1.5q-29 0 -43.5 18t-14.5 42q0 9 3.5 21t12.5 27z" />
    <glyph glyph-name="onesuperior" unicode="&#xb9;" horiz-adv-x="632" 
d="M330 1190q-17 -12 -33.5 -21t-40.5 -9q-29 0 -46.5 19t-17.5 45q0 27 16 38.5t36 23.5q22 13 40.5 28.5t32.5 29t24.5 24t18.5 14.5q11 6 19 7t17 1q26 0 40.5 -9t21 -24t7.5 -33t1 -36v-338q0 -20 -1.5 -38.5t-8 -33t-21 -23.5t-39.5 -9t-38.5 9t-19.5 23t-7 31.5
t-1 34.5v246z" />
    <glyph glyph-name="ordmasculine" unicode="&#xba;" horiz-adv-x="790" 
d="M152 1190q0 51 14 87t36 59t49 36t53.5 19.5t48.5 7.5t35 1t35.5 -1t48 -7.5t51.5 -19.5t47 -36t34.5 -59t13.5 -87v-138q0 -51 -13.5 -87t-34.5 -59t-47 -36t-51.5 -19t-48 -7.5t-35.5 -1.5t-35 1.5t-48.5 7.5t-53.5 19t-49 36t-36 58.5t-14 87.5v138zM324 1012
q1 -16 8 -28q6 -11 19 -19.5t37 -8.5t37 8.5t19 19.5q7 12 8 28v202q-1 17 -8 31q-6 11 -19 21t-37 10t-37 -10t-19 -21q-7 -14 -8 -31v-202z" />
    <glyph glyph-name="guillemotright" unicode="&#xbb;" horiz-adv-x="1536" 
d="M982 194q-24 -24 -49.5 -42t-54.5 -18q-20 0 -39.5 9.5t-42.5 32.5q-26 26 -36 47t-10 41q0 29 18 53.5t42 48.5l244 240l-246 244q-23 23 -40.5 48.5t-17.5 55.5q0 20 9.5 39.5t32.5 42.5q24 24 45 35t41 11q30 0 54.5 -18.5t47.5 -41.5l314 -312q26 -26 44 -49.5
t18 -52.5q0 -16 -5.5 -30t-14.5 -27t-19.5 -24t-20.5 -21zM420 196q-24 -24 -49.5 -42t-54.5 -18q-20 0 -39.5 9.5t-42.5 32.5q-26 26 -36 47t-10 41q0 29 18 53.5t42 48.5l244 240l-246 244q-23 23 -40.5 48.5t-17.5 55.5q0 20 9.5 39.5t32.5 42.5q24 24 45 35t41 11
q30 0 54.5 -18.5t47.5 -41.5l314 -312q26 -26 44 -49.5t18 -52.5q0 -16 -5.5 -30t-14.5 -27t-19.5 -24t-20.5 -21z" />
    <glyph glyph-name="onequarter" unicode="&#xbc;" horiz-adv-x="940" 
d="M228 664q-13 0 -25 2t-21 8t-14.5 17t-5.5 29q0 20 5.5 31.5t14.5 17.5t21 7.5t25 1.5h486q10 0 21.5 -1.5t21 -7.5t15.5 -17.5t6 -31.5q0 -18 -6 -29t-15.5 -17t-21 -8t-21.5 -2h-460h-26zM552 394q22 0 34.5 -6t19 -16.5t8.5 -24t2 -29.5v-250q0 -13 -2 -25t-8 -21.5
t-17.5 -15.5t-30.5 -6q-20 0 -32.5 5t-19 14t-8.5 21t-2 26v80h-142q-26 0 -43.5 3.5t-28 9.5t-14.5 14.5t-4 18.5q0 2 0.5 5t3.5 13.5t8.5 31.5t16 58t26.5 93t39 137q10 27 22 44.5t42 17.5t41 -16.5t11 -39.5q0 -15 -3 -30.5t-9 -29.5q-7 -23 -15 -54t-15.5 -61
t-14 -56.5t-9.5 -40.5h88v58q0 14 1.5 27t7.5 23t17 16t30 6zM392 1190q-17 -12 -33.5 -21t-40.5 -9q-29 0 -46.5 19t-17.5 45q0 27 15.5 39t36.5 23q22 15 40 30.5t32.5 29t25 23t18.5 13.5q11 6 19 7t17 1q26 0 40.5 -9t21 -24t7.5 -33t1 -36v-338q0 -20 -1.5 -38.5
t-8 -33t-21 -23.5t-39.5 -9t-38.5 9t-19.5 23t-7 31.5t-1 34.5v246z" />
    <glyph glyph-name="onehalf" unicode="&#xbd;" horiz-adv-x="940" 
d="M250 664q-14 0 -26 1.5t-21.5 7.5t-15 16.5t-5.5 28.5q0 20 5.5 31.5t15 17t21.5 6.5t26 1h484q11 0 22.5 -1t20.5 -6.5t15 -17t6 -31.5q0 -18 -6 -28.5t-15 -16.5t-20.5 -7.5t-22.5 -1.5h-460h-24zM414 1190q-18 -14 -35 -22t-41 -8q-29 0 -46.5 19t-17.5 45t15.5 38.5
t36.5 21.5q22 16 40.5 31.5t33 29t25.5 23t19 12.5q9 6 17 7t19 1q25 0 39 -9t20.5 -23t7.5 -32t1 -36v-338q0 -20 -1.5 -39t-8 -33.5t-20 -23t-38.5 -8.5t-38.5 9t-19.5 23t-7 32t-1 36v244zM478 594q98 0 147 -48t49 -128q0 -50 -25.5 -85.5t-55.5 -57.5q-36 -26 -81 -43
q-15 -6 -30 -13.5t-27 -18t-19.5 -24t-7.5 -30.5v-20h150q14 0 32 -1t33.5 -7t26 -18t10.5 -34q0 -25 -9 -38.5t-23.5 -19.5t-32.5 -7t-37 -1h-212q-20 0 -34 7t-22.5 18.5t-12 25t-3.5 27.5v68q0 65 41 111t109 73q34 13 54 25t30.5 23.5t14 23t3.5 22.5q0 22 -7.5 35
t-18 19.5t-22 8t-20.5 1.5q-22 0 -34.5 -6t-19 -15.5t-8.5 -21t-2 -21.5q0 -17 -6.5 -28t-15.5 -18.5t-20 -10.5t-20 -3q-30 0 -47 15.5t-17 38.5q0 17 6.5 47t26.5 58.5t57.5 49.5t99.5 21z" />
    <glyph glyph-name="threequarters" unicode="&#xbe;" horiz-adv-x="940" 
d="M238 664q-12 0 -24 1.5t-21 7.5t-15 17t-6 30t6 30t15 16.5t21 6.5t24 1h486q12 0 24 -1t21 -6.5t15 -16.5t6 -30t-6 -30t-15 -17t-21 -7.5t-24 -1.5h-460h-26zM460 1278h-96q-14 0 -28.5 1.5t-26.5 6.5t-19.5 15t-7.5 27q0 22 8 34.5t21 18.5t28.5 7.5t30.5 1.5h168
q32 0 48 -19t16 -43q0 -3 -0.5 -10.5t-3.5 -13.5l-80 -126q38 -5 59 -23t30.5 -42.5t11 -52t1.5 -50.5v-10q0 -34 -11 -62.5t-33 -49.5t-55.5 -32.5t-78.5 -11.5q-59 0 -94.5 19.5t-54 45t-24 51.5t-5.5 40q0 27 17 42.5t43 15.5q8 0 18 -3t19 -10t15 -18t6 -27
q0 -10 2 -20.5t8.5 -19.5t18 -14.5t31.5 -5.5q8 0 19 2t21 10t17 23.5t7 42.5q0 22 -1.5 37t-7 24t-16 13t-29.5 4q-24 0 -38 15t-14 35q0 11 4 20t10 24zM564 394q22 0 34.5 -6t19 -16.5t8.5 -24t2 -29.5v-250q0 -13 -2 -25t-8 -21.5t-17.5 -15.5t-30.5 -6q-20 0 -32.5 5
t-19 14t-8.5 21t-2 26v80h-142q-26 0 -43.5 3.5t-28 9.5t-14.5 14.5t-4 18.5q0 2 0.5 5t3.5 13.5t8.5 31.5t16 58t26.5 93t39 137q10 27 22 44.5t42 17.5t41 -16.5t11 -39.5q0 -15 -3 -30.5t-9 -29.5q-7 -23 -15 -54t-15.5 -61t-14 -56.5t-9.5 -40.5h88v58q0 14 1.5 27
t7.5 23t17 16t30 6z" />
    <glyph glyph-name="questiondown" unicode="&#xbf;" horiz-adv-x="1142" 
d="M1010 412q0 -91 -29 -166.5t-86 -130t-142.5 -85t-198.5 -30.5q-100 0 -172 23t-122 60t-81 83t-48 92t-23 86.5t-6 67.5q0 59 42 96.5t110 37.5q22 0 48.5 -8t49 -25t37.5 -44.5t15 -66.5q0 -24 4.5 -50.5t20 -48.5t45.5 -36.5t80 -14.5q19 0 46.5 3.5t53 18t43 44
t17.5 82.5q0 50 -23 83.5t-58 60.5t-75 52t-75 58.5t-58 79t-23 114.5q0 19 6.5 42t23 43t44 33.5t70.5 13.5q71 0 104.5 -35t33.5 -89q0 -21 8 -37.5t14 -24.5q14 -19 42.5 -40.5t62 -46.5t69 -55t64.5 -66t47.5 -79.5t18.5 -94.5zM718 1254q0 -86 -40.5 -125t-123.5 -39
q-80 0 -123 39t-43 125q0 85 43 125.5t123 40.5q78 0 121 -40.5t43 -125.5z" />
    <glyph glyph-name="Agrave" unicode="&#xc0;" horiz-adv-x="1104" 
d="M394 604h318l-148 536h-22zM1022 506q2 -68 5 -139t3 -137v-30q0 -38 -2.5 -73.5t-15.5 -64t-41 -45.5t-79 -17q-52 0 -80 17t-41.5 45t-16 64t-2.5 74v140h-400v-140q0 -38 -2.5 -74t-16 -64t-41.5 -45t-80 -17t-80 17t-41 45.5t-15 64t-2 73.5v30q0 31 0.5 66t1.5 71
t2 71.5t2 67.5q50 174 105 352.5t105 353.5q10 37 24 71.5t37 60t59 41t92 15.5h100q55 0 91.5 -15.5t59.5 -41t36.5 -60t24.5 -71.5zM734 1698q14 -9 29 -32.5t15 -53.5q0 -14 -5 -30.5t-17 -33.5q-20 -29 -43.5 -37.5t-50.5 -8.5q-15 0 -30.5 3.5t-29.5 12.5l-220 134
q-20 14 -35 36.5t-15 49.5q0 14 5 32t17 36q20 29 47 37.5t53 8.5q29 0 56 -18z" />
    <glyph glyph-name="Aacute" unicode="&#xc1;" horiz-adv-x="1104" 
d="M394 604h318l-148 536h-22zM1022 506q2 -68 5 -139t3 -137v-30q0 -38 -2.5 -73.5t-15.5 -64t-41 -45.5t-79 -17q-52 0 -80 17t-41.5 45t-16 64t-2.5 74v140h-400v-140q0 -38 -2.5 -74t-16 -64t-41.5 -45t-80 -17t-80 17t-41 45.5t-15 64t-2 73.5v30q0 31 0.5 66t1.5 71
t2 71.5t2 67.5q50 174 105 352.5t105 353.5q10 37 24 71.5t37 60t59 41t92 15.5h100q55 0 91.5 -15.5t59.5 -41t36.5 -60t24.5 -71.5zM604 1832q27 18 56 18q26 0 53 -8.5t47 -37.5q12 -18 17 -36t5 -32q0 -27 -15 -49.5t-35 -36.5l-220 -134q-14 -9 -29.5 -12.5t-30.5 -3.5
q-27 0 -50.5 8.5t-43.5 37.5q-12 17 -17 33.5t-5 30.5q0 30 15 53.5t29 32.5z" />
    <glyph glyph-name="Acircumflex" unicode="&#xc2;" horiz-adv-x="1104" 
d="M394 604h318l-148 536h-22zM1022 506q2 -68 5 -139t3 -137v-30q0 -38 -2.5 -73.5t-15.5 -64t-41 -45.5t-79 -17q-52 0 -80 17t-41.5 45t-16 64t-2.5 74v140h-400v-140q0 -38 -2.5 -74t-16 -64t-41.5 -45t-80 -17t-80 17t-41 45.5t-15 64t-2 73.5v30q0 31 0.5 66t1.5 71
t2 71.5t2 67.5q50 174 105 352.5t105 353.5q10 37 24 71.5t37 60t59 41t92 15.5h100q55 0 91.5 -15.5t59.5 -41t36.5 -60t24.5 -71.5zM830 1680q11 -11 19.5 -29.5t8.5 -42.5q0 -26 -11.5 -45t-26.5 -33q-18 -17 -35 -23.5t-35 -6.5q-24 0 -48 7.5t-38 24.5l-110 104
l-110 -104q-14 -17 -38 -24.5t-48 -7.5q-18 0 -35 6.5t-35 23.5q-15 14 -26.5 33t-11.5 45q0 24 8.5 42.5t19.5 29.5l190 180q15 15 33.5 23.5t42.5 10.5h20q45 -3 76 -34z" />
    <glyph glyph-name="Atilde" unicode="&#xc3;" horiz-adv-x="1104" 
d="M510 1574q-20 11 -35 16.5t-27 5.5q-18 0 -36 -12.5t-44 -39.5q-15 -17 -32 -27.5t-32 -10.5q-18 0 -42.5 11.5t-39.5 32.5q-22 25 -22 52q0 21 14 45.5t46 54.5l74 66q24 21 48.5 33.5t53.5 12.5q21 0 41.5 -8t44.5 -20q43 -22 69.5 -35t41.5 -20t21 -9t10 -2
q15 0 30.5 10t33.5 30q17 15 35 25.5t39 10.5q14 -2 27.5 -8.5t30.5 -23.5q18 -18 24 -35t6 -35q-2 -12 -9 -25t-16.5 -25.5t-20 -23.5t-18.5 -18q-35 -36 -59 -56.5t-40.5 -30.5t-27.5 -12.5t-21 -2.5q-8 0 -17.5 1.5t-27.5 9t-47 22.5t-76 41zM394 604h318l-148 536h-22z
M1022 506q2 -68 5 -139t3 -137v-30q0 -38 -2.5 -73.5t-15.5 -64t-41 -45.5t-79 -17q-52 0 -80 17t-41.5 45t-16 64t-2.5 74v140h-400v-140q0 -38 -2.5 -74t-16 -64t-41.5 -45t-80 -17t-80 17t-41 45.5t-15 64t-2 73.5v30q0 31 0.5 66t1.5 71t2 71.5t2 67.5q50 174 105 352.5
t105 353.5q10 37 24 71.5t37 60t59 41t92 15.5h100q55 0 91.5 -15.5t59.5 -41t36.5 -60t24.5 -71.5z" />
    <glyph glyph-name="Adieresis" unicode="&#xc4;" horiz-adv-x="1104" 
d="M394 604h318l-148 536h-22zM1022 506q2 -68 5 -139t3 -137v-30q0 -38 -2.5 -73.5t-15.5 -64t-41 -45.5t-79 -17q-52 0 -80 17t-41.5 45t-16 64t-2.5 74v140h-400v-140q0 -38 -2.5 -74t-16 -64t-41.5 -45t-80 -17t-80 17t-41 45.5t-15 64t-2 73.5v30q0 31 0.5 66t1.5 71
t2 71.5t2 67.5q50 174 105 352.5t105 353.5q10 37 24 71.5t37 60t59 41t92 15.5h100q55 0 91.5 -15.5t59.5 -41t36.5 -60t24.5 -71.5zM494 1652q0 -77 -40 -114.5t-112 -37.5t-112 37.5t-40 114.5q0 80 40 116t112 36q77 0 114.5 -36t37.5 -116zM910 1652q0 -77 -40 -114.5
t-112 -37.5t-112 37.5t-40 114.5q0 80 40 116t112 36q77 0 114.5 -36t37.5 -116z" />
    <glyph glyph-name="Aring" unicode="&#xc5;" horiz-adv-x="1104" 
d="M394 604h318l-148 536h-22zM1022 506q2 -68 5 -139t3 -137v-30q0 -38 -2.5 -73.5t-15.5 -64t-41 -45.5t-79 -17q-52 0 -80 17t-41.5 45t-16 64t-2.5 74v140h-400v-140q0 -38 -2.5 -74t-16 -64t-41.5 -45t-80 -17t-80 17t-41 45.5t-15 64t-2 73.5v30q0 31 0.5 66t1.5 71
t2 71.5t2 67.5q50 174 105 352.5t105 353.5q10 37 24 71.5t37 60t59 41t92 15.5h100q55 0 91.5 -15.5t59.5 -41t36.5 -60t24.5 -71.5zM668 1730q0 60 -28.5 87t-85.5 27q-54 0 -84 -27t-30 -87q0 -57 30 -85.5t84 -28.5t84 28.5t30 85.5zM782 1730q0 -118 -59 -174t-169 -56
t-170 56t-60 174q0 119 60 173.5t170 54.5q116 0 172 -54.5t56 -173.5z" />
    <glyph glyph-name="AE" unicode="&#xc6;" horiz-adv-x="1600" 
d="M84 506q98 174 202 352.5t202 353.5q21 37 48.5 71.5t63 60t80 41t100.5 15.5h516q40 0 81 -3t74 -16.5t54 -41.5t21 -79t-21 -80.5t-54 -44.5t-74 -19t-81 -4h-238v-272h126q40 0 80.5 -2t72 -14.5t51.5 -39.5t20 -76q0 -50 -20 -76.5t-51.5 -39t-72 -14.5t-80.5 -2
h-126v-288h238q40 0 81 -4t74 -19t54 -44t21 -79q0 -52 -21.5 -80.5t-54.5 -42t-74 -16.5t-80 -3h-376q-56 0 -86.5 20t-44.5 52.5t-16.5 73.5t-2.5 84v110h-414v-140q0 -38 -2.5 -74t-16 -64t-41.5 -45t-80 -17t-80 17t-41 45.5t-15 64t-2 73.5v30q0 31 0.5 66t1.5 71
t2 71.5t2 67.5zM452 604h318v536h-22z" />
    <glyph glyph-name="Ccedilla" unicode="&#xc7;" horiz-adv-x="1110" 
d="M556 230q47 0 77 19.5t47 52.5t23.5 76t6.5 90q0 15 5 31t23 29.5t53 22.5t95 9t92.5 -13.5t47.5 -31t17.5 -34t2.5 -21.5q0 -99 -30.5 -179t-86 -138.5t-133.5 -95t-172 -47.5l-12 -22q45 -4 80.5 -6t60.5 -17t38 -48.5t13 -100.5v-8q0 -58 -23 -95t-60.5 -58t-86 -29
t-100.5 -8q-69 0 -116.5 12.5t-76.5 36.5t-42 59.5t-13 81.5q0 13 8 24.5t21 19t29 12t32 4.5q10 0 25.5 -3.5t29 -11.5t23.5 -20.5t10 -30.5q0 -11 2 -25t9.5 -26.5t21.5 -21.5t37 -9q9 0 21.5 4t24.5 16t20 32.5t8 53.5q0 25 -2 38.5t-8.5 20t-19 8t-34.5 1.5
q-29 0 -43.5 18t-14.5 42q0 9 3.5 21.5t12.5 30.5q-30 2 -71.5 8.5t-87.5 22.5t-91 44.5t-81 74t-58.5 110.5t-22.5 154v558q0 82 20 145t52.5 109.5t74.5 78t86 52.5q102 48 233 55q110 0 189.5 -25t134 -65t87.5 -90.5t50.5 -102.5t23 -100t5.5 -83q0 -15 -2.5 -36.5
t-17.5 -41.5t-47.5 -34t-92.5 -14q-20 0 -50 2.5t-58 13t-48 30t-20 54.5q0 54 -6.5 97t-23.5 73t-47 46t-77 16q-49 0 -75.5 -20.5t-38.5 -44.5q-14 -29 -16 -65v-634q2 -44 16 -77q12 -29 38.5 -53t75.5 -24z" />
    <glyph glyph-name="Egrave" unicode="&#xc8;" horiz-adv-x="986" 
d="M682 1400q40 0 81 -4t74 -19t54 -44.5t21 -80.5t-21 -80.5t-54 -44.5t-74 -19t-81 -4h-238v-260h126q40 0 80.5 -2.5t72 -16t51.5 -41t20 -76.5q0 -50 -20 -77t-51.5 -40.5t-72 -16t-80.5 -2.5h-126v-276h238q40 0 81 -4t74 -19t54 -44t21 -79q0 -52 -21.5 -82t-54.5 -45
t-74 -19t-80 -4h-392q-56 0 -86.5 20t-44.5 52.5t-16.5 73.5t-2.5 84v940q0 43 2.5 84t16.5 73.5t44.5 52.5t86.5 20h392zM672 1696q14 -9 29 -32.5t15 -53.5q0 -14 -5 -30.5t-17 -33.5q-20 -29 -43.5 -37.5t-50.5 -8.5q-15 0 -30.5 3.5t-29.5 12.5l-220 134
q-20 14 -35 36.5t-15 49.5q0 14 5 32t17 36q20 29 47 37.5t53 8.5q29 0 56 -18z" />
    <glyph glyph-name="Eacute" unicode="&#xc9;" horiz-adv-x="986" 
d="M682 1400q40 0 81 -4t74 -19t54 -44.5t21 -80.5t-21 -80.5t-54 -44.5t-74 -19t-81 -4h-238v-260h126q40 0 80.5 -2.5t72 -16t51.5 -41t20 -76.5q0 -50 -20 -77t-51.5 -40.5t-72 -16t-80.5 -2.5h-126v-276h238q40 0 81 -4t74 -19t54 -44t21 -79q0 -52 -21.5 -82t-54.5 -45
t-74 -19t-80 -4h-392q-56 0 -86.5 20t-44.5 52.5t-16.5 73.5t-2.5 84v940q0 43 2.5 84t16.5 73.5t44.5 52.5t86.5 20h392zM542 1832q27 18 56 18q26 0 53 -8.5t47 -37.5q12 -18 17 -36t5 -32q0 -27 -15 -49.5t-35 -36.5l-220 -134q-14 -9 -29.5 -12.5t-30.5 -3.5
q-27 0 -50.5 8.5t-43.5 37.5q-12 17 -17 33.5t-5 30.5q0 30 15 53.5t29 32.5z" />
    <glyph glyph-name="Ecircumflex" unicode="&#xca;" horiz-adv-x="986" 
d="M682 1400q40 0 81 -4t74 -19t54 -44.5t21 -80.5t-21 -80.5t-54 -44.5t-74 -19t-81 -4h-238v-260h126q40 0 80.5 -2.5t72 -16t51.5 -41t20 -76.5q0 -50 -20 -77t-51.5 -40.5t-72 -16t-80.5 -2.5h-126v-276h238q40 0 81 -4t74 -19t54 -44t21 -79q0 -52 -21.5 -82t-54.5 -45
t-74 -19t-80 -4h-392q-56 0 -86.5 20t-44.5 52.5t-16.5 73.5t-2.5 84v940q0 43 2.5 84t16.5 73.5t44.5 52.5t86.5 20h392zM792 1680q11 -11 19.5 -29.5t8.5 -42.5q0 -26 -11.5 -45t-26.5 -33q-18 -17 -35 -23.5t-35 -6.5q-24 0 -48 7.5t-38 24.5l-110 104l-110 -104
q-14 -17 -38 -24.5t-48 -7.5q-18 0 -35 6.5t-35 23.5q-15 14 -26.5 33t-11.5 45q0 24 8.5 42.5t19.5 29.5l190 180q15 15 33.5 23.5t42.5 10.5h20q45 -3 76 -34z" />
    <glyph glyph-name="Edieresis" unicode="&#xcb;" horiz-adv-x="986" 
d="M682 1400q40 0 81 -4t74 -19t54 -44.5t21 -80.5t-21 -80.5t-54 -44.5t-74 -19t-81 -4h-238v-260h126q40 0 80.5 -2.5t72 -16t51.5 -41t20 -76.5q0 -50 -20 -77t-51.5 -40.5t-72 -16t-80.5 -2.5h-126v-276h238q40 0 81 -4t74 -19t54 -44t21 -79q0 -52 -21.5 -82t-54.5 -45
t-74 -19t-80 -4h-392q-56 0 -86.5 20t-44.5 52.5t-16.5 73.5t-2.5 84v940q0 43 2.5 84t16.5 73.5t44.5 52.5t86.5 20h392zM462 1652q0 -77 -40 -114.5t-112 -37.5t-112 37.5t-40 114.5q0 80 40 116t112 36q77 0 114.5 -36t37.5 -116zM878 1652q0 -77 -40 -114.5t-112 -37.5
t-112 37.5t-40 114.5q0 80 40 116t112 36q77 0 114.5 -36t37.5 -116z" />
    <glyph glyph-name="Igrave" unicode="&#xcc;" horiz-adv-x="666" 
d="M168 1170q0 43 4.5 84t21 73.5t49.5 52.5t91 20t91 -20t49.5 -52.5t21 -73.5t4.5 -84v-940q0 -44 -4 -85t-20.5 -73.5t-50 -52t-91.5 -19.5t-91 19.5t-49.5 52t-21 73.5t-4.5 85v940zM498 1696q14 -9 29 -32.5t15 -53.5q0 -14 -5 -30.5t-17 -33.5q-20 -29 -43.5 -37.5
t-50.5 -8.5q-15 0 -30.5 3.5t-29.5 12.5l-220 134q-20 14 -35 36.5t-15 49.5q0 14 5 32t17 36q20 29 47 37.5t53 8.5q29 0 56 -18z" />
    <glyph glyph-name="Iacute" unicode="&#xcd;" horiz-adv-x="666" 
d="M168 1170q0 43 4.5 84t21 73.5t49.5 52.5t91 20t91 -20t49.5 -52.5t21 -73.5t4.5 -84v-940q0 -44 -4 -85t-20.5 -73.5t-50 -52t-91.5 -19.5t-91 19.5t-49.5 52t-21 73.5t-4.5 85v940zM382 1832q27 18 56 18q26 0 53 -8.5t47 -37.5q12 -18 17 -36t5 -32q0 -27 -15 -49.5
t-35 -36.5l-220 -134q-14 -9 -29.5 -12.5t-30.5 -3.5q-27 0 -50.5 8.5t-43.5 37.5q-12 17 -17 33.5t-5 30.5q0 30 15 53.5t29 32.5z" />
    <glyph glyph-name="Icircumflex" unicode="&#xce;" horiz-adv-x="666" 
d="M168 1170q0 43 4.5 84t21 73.5t49.5 52.5t91 20t91 -20t49.5 -52.5t21 -73.5t4.5 -84v-940q0 -44 -4 -85t-20.5 -73.5t-50 -52t-91.5 -19.5t-91 19.5t-49.5 52t-21 73.5t-4.5 85v940zM610 1680q11 -11 19.5 -29.5t8.5 -42.5q0 -26 -11.5 -45t-26.5 -33q-18 -17 -35 -23.5
t-35 -6.5q-24 0 -48 7.5t-38 24.5l-110 104l-110 -104q-14 -17 -38 -24.5t-48 -7.5q-18 0 -35 6.5t-35 23.5q-15 14 -26.5 33t-11.5 45q0 24 8.5 42.5t19.5 29.5l190 180q15 15 33.5 23.5t42.5 10.5h20q45 -3 76 -34z" />
    <glyph glyph-name="Idieresis" unicode="&#xcf;" horiz-adv-x="666" 
d="M168 1170q0 43 4.5 84t21 73.5t49.5 52.5t91 20t91 -20t49.5 -52.5t21 -73.5t4.5 -84v-940q0 -44 -4 -85t-20.5 -73.5t-50 -52t-91.5 -19.5t-91 19.5t-49.5 52t-21 73.5t-4.5 85v940zM278 1652q0 -77 -40 -114.5t-112 -37.5t-112 37.5t-40 114.5q0 80 40 116t112 36
q77 0 114.5 -36t37.5 -116zM694 1652q0 -77 -40 -114.5t-112 -37.5t-112 37.5t-40 114.5q0 80 40 116t112 36q77 0 114.5 -36t37.5 -116z" />
    <glyph glyph-name="Eth" unicode="&#xd0;" horiz-adv-x="1126" 
d="M604 1400q91 0 169.5 -23t137 -68.5t92 -113.5t33.5 -159v-620q0 -78 -17 -137.5t-44.5 -103t-62.5 -74t-71 -49.5q-86 -46 -195 -52h-332q-57 0 -88 19.5t-45 52t-16.5 73.5t-2.5 85v364h-36q-28 0 -54 3.5t-46 16t-32 36t-12 64.5q0 44 12 69t32 37t46 15t54 3h36v334
q0 43 2.5 84t16.5 73t45 51.5t88 19.5h290zM750 988q0 33 -6.5 58.5t-17.5 44.5t-25 32t-28 21q-34 19 -77 22h-130v-328h52q25 0 51 -3t46.5 -15t33.5 -37t13 -69q0 -41 -13 -64.5t-33.5 -36t-46.5 -16t-51 -3.5h-52v-356h130q43 2 77 20q14 7 28 19t25 28.5t17.5 39.5
t6.5 53v590z" />
    <glyph glyph-name="Ntilde" unicode="&#xd1;" horiz-adv-x="1360" 
d="M940 1244q0 32 4 60.5t17.5 49.5t40 33.5t72.5 12.5q51 0 80.5 -12.5t44.5 -33.5t19 -49.5t4 -60.5v-1014q0 -44 -2.5 -85t-16 -73.5t-44 -52t-85.5 -19.5h-132q-47 0 -78.5 18.5t-52.5 45t-33.5 55.5t-19.5 49l-294 818h-32v-830q0 -32 -4 -60.5t-17.5 -49.5t-40 -33.5
t-72.5 -12.5q-52 0 -82 12.5t-45 33.5t-19 49.5t-4 60.5v1014q0 43 2.5 84.5t16.5 74t44.5 52t86.5 19.5h132q50 0 81.5 -19.5t51.5 -42.5q22 -27 35 -62l310 -862h32v830zM690 1576q-20 11 -35 16.5t-27 5.5q-18 0 -36 -12.5t-44 -39.5q-15 -17 -32 -27.5t-32 -10.5
q-18 0 -42.5 11.5t-39.5 32.5q-22 25 -22 52q0 21 14 45.5t46 54.5l74 66q24 21 48.5 33.5t53.5 12.5q21 0 41.5 -8t44.5 -20q43 -22 69.5 -35t41.5 -20t21 -9t10 -2q15 0 30.5 10t33.5 30q17 15 35 25.5t39 10.5q14 -2 27.5 -8.5t30.5 -23.5q18 -18 24 -35t6 -35
q-2 -12 -9 -25t-16.5 -25.5t-20 -23.5t-18.5 -18q-35 -36 -59 -56.5t-40.5 -30.5t-27.5 -12.5t-21 -2.5q-8 0 -17.5 1.5t-27.5 9t-47 22.5t-76 41z" />
    <glyph glyph-name="Ograve" unicode="&#xd2;" horiz-adv-x="1124" 
d="M742 1696q14 -9 29 -32.5t15 -53.5q0 -14 -5 -30.5t-17 -33.5q-20 -29 -43.5 -37.5t-50.5 -8.5q-15 0 -30.5 3.5t-29.5 12.5l-220 134q-20 14 -35 36.5t-15 49.5q0 14 5 32t17 36q20 29 47 37.5t53 8.5q29 0 56 -18zM104 1004q0 96 28 163.5t71.5 112.5t96 70.5t102 38.5
t89.5 16t59 3h34q19 0 59 -3t89 -16t101.5 -38.5t95 -70.5t70 -112.5t27.5 -163.5v-598q0 -99 -27.5 -168t-70 -115t-95 -72.5t-101.5 -39.5t-89 -16t-59 -3h-34q-19 0 -59 3t-89.5 16t-102 39.5t-96 72.5t-71.5 115t-28 168v598zM436 368q2 -37 17 -65q13 -25 39.5 -45
t75.5 -20q48 0 74 20t39 45q14 28 17 65v652q-3 36 -17 65q-13 24 -39 44.5t-74 20.5q-49 0 -75.5 -20.5t-39.5 -44.5q-15 -29 -17 -65v-652z" />
    <glyph glyph-name="Oacute" unicode="&#xd3;" horiz-adv-x="1124" 
d="M610 1832q27 18 56 18q26 0 53 -8.5t47 -37.5q12 -18 17 -36t5 -32q0 -27 -15 -49.5t-35 -36.5l-220 -134q-14 -9 -29.5 -12.5t-30.5 -3.5q-27 0 -50.5 8.5t-43.5 37.5q-12 17 -17 33.5t-5 30.5q0 30 15 53.5t29 32.5zM104 1004q0 96 28 163.5t71.5 112.5t96 70.5
t102 38.5t89.5 16t59 3h34q19 0 59 -3t89 -16t101.5 -38.5t95 -70.5t70 -112.5t27.5 -163.5v-598q0 -99 -27.5 -168t-70 -115t-95 -72.5t-101.5 -39.5t-89 -16t-59 -3h-34q-19 0 -59 3t-89.5 16t-102 39.5t-96 72.5t-71.5 115t-28 168v598zM436 368q2 -37 17 -65
q13 -25 39.5 -45t75.5 -20q48 0 74 20t39 45q14 28 17 65v652q-3 36 -17 65q-13 24 -39 44.5t-74 20.5q-49 0 -75.5 -20.5t-39.5 -44.5q-15 -29 -17 -65v-652z" />
    <glyph glyph-name="Ocircumflex" unicode="&#xd4;" horiz-adv-x="1124" 
d="M842 1680q11 -11 19.5 -29.5t8.5 -42.5q0 -26 -11.5 -45t-26.5 -33q-18 -17 -35 -23.5t-35 -6.5q-24 0 -48 7.5t-38 24.5l-110 104l-110 -104q-14 -17 -38 -24.5t-48 -7.5q-18 0 -35 6.5t-35 23.5q-15 14 -26.5 33t-11.5 45q0 24 8.5 42.5t19.5 29.5l190 180
q15 15 33.5 23.5t42.5 10.5h20q45 -3 76 -34zM104 1004q0 96 28 163.5t71.5 112.5t96 70.5t102 38.5t89.5 16t59 3h34q19 0 59 -3t89 -16t101.5 -38.5t95 -70.5t70 -112.5t27.5 -163.5v-598q0 -99 -27.5 -168t-70 -115t-95 -72.5t-101.5 -39.5t-89 -16t-59 -3h-34
q-19 0 -59 3t-89.5 16t-102 39.5t-96 72.5t-71.5 115t-28 168v598zM436 368q2 -37 17 -65q13 -25 39.5 -45t75.5 -20q48 0 74 20t39 45q14 28 17 65v652q-3 36 -17 65q-13 24 -39 44.5t-74 20.5q-49 0 -75.5 -20.5t-39.5 -44.5q-15 -29 -17 -65v-652z" />
    <glyph glyph-name="Otilde" unicode="&#xd5;" horiz-adv-x="1124" 
d="M510 1574q-20 11 -35 16.5t-27 5.5q-18 0 -36 -12.5t-44 -39.5q-15 -17 -32 -27.5t-32 -10.5q-18 0 -42.5 11.5t-39.5 32.5q-22 25 -22 52q0 21 14 45.5t46 54.5l74 66q24 21 48.5 33.5t53.5 12.5q21 0 41.5 -8t44.5 -20q43 -22 69.5 -35t41.5 -20t21 -9t10 -2
q15 0 30.5 10t33.5 30q17 15 35 25.5t39 10.5q14 -2 27.5 -8.5t30.5 -23.5q18 -18 24 -35t6 -35q-2 -12 -9 -25t-16.5 -25.5t-20 -23.5t-18.5 -18q-35 -36 -59 -56.5t-40.5 -30.5t-27.5 -12.5t-21 -2.5q-8 0 -17.5 1.5t-27.5 9t-47 22.5t-76 41zM104 1004q0 96 28 163.5
t71.5 112.5t96 70.5t102 38.5t89.5 16t59 3h34q19 0 59 -3t89 -16t101.5 -38.5t95 -70.5t70 -112.5t27.5 -163.5v-598q0 -99 -27.5 -168t-70 -115t-95 -72.5t-101.5 -39.5t-89 -16t-59 -3h-34q-19 0 -59 3t-89.5 16t-102 39.5t-96 72.5t-71.5 115t-28 168v598zM436 368
q2 -37 17 -65q13 -25 39.5 -45t75.5 -20q48 0 74 20t39 45q14 28 17 65v652q-3 36 -17 65q-13 24 -39 44.5t-74 20.5q-49 0 -75.5 -20.5t-39.5 -44.5q-15 -29 -17 -65v-652z" />
    <glyph glyph-name="Odieresis" unicode="&#xd6;" horiz-adv-x="1124" 
d="M506 1652q0 -77 -40 -114.5t-112 -37.5t-112 37.5t-40 114.5q0 80 40 116t112 36q77 0 114.5 -36t37.5 -116zM922 1652q0 -77 -40 -114.5t-112 -37.5t-112 37.5t-40 114.5q0 80 40 116t112 36q77 0 114.5 -36t37.5 -116zM104 1004q0 96 28 163.5t71.5 112.5t96 70.5
t102 38.5t89.5 16t59 3h34q19 0 59 -3t89 -16t101.5 -38.5t95 -70.5t70 -112.5t27.5 -163.5v-598q0 -99 -27.5 -168t-70 -115t-95 -72.5t-101.5 -39.5t-89 -16t-59 -3h-34q-19 0 -59 3t-89.5 16t-102 39.5t-96 72.5t-71.5 115t-28 168v598zM436 368q2 -37 17 -65
q13 -25 39.5 -45t75.5 -20q48 0 74 20t39 45q14 28 17 65v652q-3 36 -17 65q-13 24 -39 44.5t-74 20.5q-49 0 -75.5 -20.5t-39.5 -44.5q-15 -29 -17 -65v-652z" />
    <glyph glyph-name="multiply" unicode="&#xd7;" horiz-adv-x="1276" 
d="M436 352q-24 -24 -49.5 -42t-54.5 -18q-20 0 -39.5 9.5t-42.5 32.5q-26 26 -36 47t-10 41q0 29 18 53.5t42 48.5l198 198l-200 202q-23 23 -40.5 48.5t-17.5 55.5q0 20 9.5 39.5t32.5 42.5q24 24 45 35t41 11q30 0 54.5 -18.5t47.5 -41.5l202 -202l202 202
q23 23 47.5 41.5t54.5 18.5q20 0 41 -11t45 -35q23 -23 32.5 -42.5t9.5 -39.5q0 -30 -17.5 -55.5t-40.5 -48.5l-202 -202l200 -198q24 -24 42 -48.5t18 -53.5q0 -20 -10 -41t-36 -47q-23 -23 -42.5 -32.5t-39.5 -9.5q-29 0 -54.5 18t-49.5 42l-200 198z" />
    <glyph glyph-name="Oslash" unicode="&#xd8;" horiz-adv-x="1128" 
d="M104 996q0 96 28 163.5t71.5 112.5t96 70.5t102 38.5t89.5 16t59 3h34q19 0 59 -3t89 -16t101.5 -38.5t95 -70.5t70 -112.5t27.5 -163.5v-582q0 -99 -27.5 -168t-70 -115t-95 -72.5t-101.5 -39.5t-89 -16t-59 -3h-34q-19 0 -59 3t-89.5 16t-102 39.5t-96 72.5t-71.5 115
t-28 168v582zM568 246q48 0 74 20t38 45q14 28 16 65v406l-254 -438q3 -14 10.5 -31t22 -32t37 -25t56.5 -10zM568 1142q-49 0 -75.5 -20.5t-38.5 -44.5q-14 -29 -16 -65v-404l254 438q-4 14 -11.5 31t-21.5 31.5t-36 24t-55 9.5z" />
    <glyph glyph-name="Ugrave" unicode="&#xd9;" horiz-adv-x="1208" 
d="M796 1696q14 -9 29 -32.5t15 -53.5q0 -14 -5 -30.5t-17 -33.5q-20 -29 -43.5 -37.5t-50.5 -8.5q-15 0 -30.5 3.5t-29.5 12.5l-220 134q-20 14 -35 36.5t-15 49.5q0 14 5 32t17 36q20 29 47 37.5t53 8.5q29 0 56 -18zM142 1172q0 43 4.5 84t21 73t49.5 51.5t91 19.5
t91.5 -19.5t50 -51.5t20.5 -73t4 -84v-788q3 -44 18 -78q6 -15 16 -29t23.5 -25t32 -17.5t42.5 -6.5t43 6.5t32.5 17.5t23.5 25t16 29q15 34 17 78v788q0 43 4 84t20.5 73t49.5 51.5t92 19.5q58 0 91 -19.5t49.5 -51.5t21 -73t4.5 -84v-762q0 -104 -33.5 -182t-95 -130.5
t-147 -79t-188.5 -26.5q-104 0 -189 27.5t-146.5 80.5t-95 131t-33.5 179v762z" />
    <glyph glyph-name="Uacute" unicode="&#xda;" horiz-adv-x="1208" 
d="M710 1832q27 18 56 18q26 0 53 -8.5t47 -37.5q12 -18 17 -36t5 -32q0 -27 -15 -49.5t-35 -36.5l-220 -134q-14 -9 -29.5 -12.5t-30.5 -3.5q-27 0 -50.5 8.5t-43.5 37.5q-12 17 -17 33.5t-5 30.5q0 30 15 53.5t29 32.5zM142 1172q0 43 4.5 84t21 73t49.5 51.5t91 19.5
t91.5 -19.5t50 -51.5t20.5 -73t4 -84v-788q3 -44 18 -78q6 -15 16 -29t23.5 -25t32 -17.5t42.5 -6.5t43 6.5t32.5 17.5t23.5 25t16 29q15 34 17 78v788q0 43 4 84t20.5 73t49.5 51.5t92 19.5q58 0 91 -19.5t49.5 -51.5t21 -73t4.5 -84v-762q0 -104 -33.5 -182t-95 -130.5
t-147 -79t-188.5 -26.5q-104 0 -189 27.5t-146.5 80.5t-95 131t-33.5 179v762z" />
    <glyph glyph-name="Ucircumflex" unicode="&#xdb;" horiz-adv-x="1208" 
d="M884 1680q11 -11 19.5 -29.5t8.5 -42.5q0 -26 -11.5 -45t-26.5 -33q-18 -17 -35 -23.5t-35 -6.5q-24 0 -48 7.5t-38 24.5l-110 104l-110 -104q-14 -17 -38 -24.5t-48 -7.5q-18 0 -35 6.5t-35 23.5q-15 14 -26.5 33t-11.5 45q0 24 8.5 42.5t19.5 29.5l190 180
q15 15 33.5 23.5t42.5 10.5h20q45 -3 76 -34zM142 1172q0 43 4.5 84t21 73t49.5 51.5t91 19.5t91.5 -19.5t50 -51.5t20.5 -73t4 -84v-788q3 -44 18 -78q6 -15 16 -29t23.5 -25t32 -17.5t42.5 -6.5t43 6.5t32.5 17.5t23.5 25t16 29q15 34 17 78v788q0 43 4 84t20.5 73
t49.5 51.5t92 19.5q58 0 91 -19.5t49.5 -51.5t21 -73t4.5 -84v-762q0 -104 -33.5 -182t-95 -130.5t-147 -79t-188.5 -26.5q-104 0 -189 27.5t-146.5 80.5t-95 131t-33.5 179v762z" />
    <glyph glyph-name="Udieresis" unicode="&#xdc;" horiz-adv-x="1208" 
d="M550 1652q0 -77 -40 -114.5t-112 -37.5t-112 37.5t-40 114.5q0 80 40 116t112 36q77 0 114.5 -36t37.5 -116zM966 1652q0 -77 -40 -114.5t-112 -37.5t-112 37.5t-40 114.5q0 80 40 116t112 36q77 0 114.5 -36t37.5 -116zM142 1172q0 43 4.5 84t21 73t49.5 51.5t91 19.5
t91.5 -19.5t50 -51.5t20.5 -73t4 -84v-788q3 -44 18 -78q6 -15 16 -29t23.5 -25t32 -17.5t42.5 -6.5t43 6.5t32.5 17.5t23.5 25t16 29q15 34 17 78v788q0 43 4 84t20.5 73t49.5 51.5t92 19.5q58 0 91 -19.5t49.5 -51.5t21 -73t4.5 -84v-762q0 -104 -33.5 -182t-95 -130.5
t-147 -79t-188.5 -26.5q-104 0 -189 27.5t-146.5 80.5t-95 131t-33.5 179v762z" />
    <glyph glyph-name="Yacute" unicode="&#xdd;" horiz-adv-x="1000" 
d="M548 1832q27 18 56 18q26 0 53 -8.5t47 -37.5q12 -18 17 -36t5 -32q0 -27 -15 -49.5t-35 -36.5l-220 -134q-14 -9 -29.5 -12.5t-30.5 -3.5q-27 0 -50.5 8.5t-43.5 37.5q-12 17 -17 33.5t-5 30.5q0 30 15 53.5t29 32.5zM654 226q0 -42 -4 -82.5t-19 -72.5t-45 -51.5
t-82 -19.5q-53 0 -83 19.5t-45.5 51.5t-19.5 72.5t-4 82.5v348l-298 532q-24 42 -46 82.5t-22 81.5q0 27 15.5 54.5t56.5 51.5q45 24 84 24q30 0 54.5 -13.5t44.5 -35.5t36 -49.5t29 -55.5l182 -382h32l182 382q13 28 29 55.5t36 49.5t44.5 35.5t54.5 13.5q21 0 41 -6
t43 -18q39 -24 55.5 -51.5t16.5 -54.5q0 -18 -16 -58.5t-52 -105.5l-300 -532v-348z" />
    <glyph glyph-name="Thorn" unicode="&#xde;" horiz-adv-x="1130" 
d="M180 1172q0 43 4.5 84.5t20 73t45.5 51t80 19.5q52 0 83 -19.5t46.5 -51t20 -73t4.5 -84.5v-142q9 30 25.5 60t42.5 54t62.5 39t85.5 15q55 0 110 -18t99 -59.5t71.5 -109t27.5 -167.5v-290q0 -99 -27.5 -166.5t-71.5 -109.5t-99 -60t-110 -18q-49 0 -85.5 15.5
t-62.5 39.5t-42.5 54t-25.5 59v-140q0 -44 -4.5 -85t-20 -72.5t-45.5 -51t-80 -19.5q-53 0 -83.5 19.5t-46 51t-20 72.5t-4.5 85v944zM700 822q0 26 -2 51.5t-11 45.5t-26.5 32.5t-48.5 12.5q-39 0 -64 -25t-39 -61t-19.5 -76.5t-5.5 -71.5q1 -77 6.5 -132.5t19.5 -92
t38.5 -54t63.5 -17.5q31 0 48.5 12.5t26.5 33.5t11 47t2 53v242z" />
    <glyph glyph-name="germandbls" unicode="&#xdf;" horiz-adv-x="1130" 
d="M550 1380q89 0 164 -20.5t129 -65t84.5 -114t30.5 -166.5q0 -65 -18.5 -111t-44 -76t-51.5 -46t-40 -23v-10q60 -13 101 -37.5t68 -55t42 -65t22.5 -67t9 -61t1.5 -46.5q0 -80 -15.5 -142.5t-42.5 -108.5t-63.5 -77.5t-79 -51t-89 -28t-92.5 -8.5q-37 0 -68 4.5t-54.5 18
t-37.5 37.5t-16 62q0 40 11 68t29 44.5t41 24t47 7.5q14 0 25.5 -3.5t20.5 -7.5q11 -5 20 -11q22 0 34.5 16.5t18.5 42t7.5 55.5t1.5 58q0 63 -15.5 101.5t-38 63t-49.5 40t-49.5 32t-38 39t-15.5 62.5q0 47 11.5 73t28 40.5t36.5 23.5t36.5 21t28 32.5t11.5 59.5
q0 44 -12 74.5t-31.5 49.5t-45 27.5t-51.5 8.5q-14 0 -34.5 -1.5t-39.5 -10.5t-32.5 -28t-13.5 -54v-1052q0 -43 -2.5 -84t-17 -73.5t-45.5 -52.5t-87 -20t-86.5 19.5t-44.5 52t-16.5 73.5t-2.5 85v1074q0 140 103 214t317 74z" />
    <glyph glyph-name="agrave" unicode="&#xe0;" 
d="M912 226q0 -42 -3 -82.5t-18 -72.5t-45 -51.5t-84 -19.5q-55 0 -86 18.5t-46 45t-18.5 55.5t-3.5 49q-9 -29 -25.5 -59t-42.5 -54t-62.5 -39.5t-85.5 -15.5q-55 0 -110 18t-99 60t-71.5 109.5t-27.5 166.5v290q0 100 27.5 167.5t71.5 109t99 59.5t110 18q49 0 85.5 -15
t62.5 -39t42.5 -54t25.5 -60q0 50 14 83t36 52.5t49.5 27t54.5 7.5q50 0 80 -19.5t45.5 -51t20 -73t4.5 -84.5v-546zM392 380q0 -27 2 -53t11 -47t26.5 -33.5t48.5 -12.5q39 0 63.5 17.5t38.5 54t19.5 92t6.5 132.5q0 31 -5.5 71.5t-19.5 76.5t-39 61t-64 25
q-31 0 -48.5 -12.5t-26.5 -32.5t-11 -45.5t-2 -51.5v-242zM678 1296q14 -9 29 -32.5t15 -53.5q0 -14 -5 -30.5t-17 -33.5q-20 -29 -43.5 -37.5t-50.5 -8.5q-15 0 -30.5 3.5t-29.5 12.5l-220 134q-20 14 -35 36.5t-15 49.5q0 14 5 32t17 36q20 29 47 37.5t53 8.5q29 0 56 -18
z" />
    <glyph glyph-name="aacute" unicode="&#xe1;" 
d="M912 226q0 -42 -3 -82.5t-18 -72.5t-45 -51.5t-84 -19.5q-55 0 -86 18.5t-46 45t-18.5 55.5t-3.5 49q-9 -29 -25.5 -59t-42.5 -54t-62.5 -39.5t-85.5 -15.5q-55 0 -110 18t-99 60t-71.5 109.5t-27.5 166.5v290q0 100 27.5 167.5t71.5 109t99 59.5t110 18q49 0 85.5 -15
t62.5 -39t42.5 -54t25.5 -60q0 50 14 83t36 52.5t49.5 27t54.5 7.5q50 0 80 -19.5t45.5 -51t20 -73t4.5 -84.5v-546zM392 380q0 -27 2 -53t11 -47t26.5 -33.5t48.5 -12.5q39 0 63.5 17.5t38.5 54t19.5 92t6.5 132.5q0 31 -5.5 71.5t-19.5 76.5t-39 61t-64 25
q-31 0 -48.5 -12.5t-26.5 -32.5t-11 -45.5t-2 -51.5v-242zM568 1432q27 18 56 18q26 0 53 -8.5t47 -37.5q12 -18 17 -36t5 -32q0 -27 -15 -49.5t-35 -36.5l-220 -134q-14 -9 -29.5 -12.5t-30.5 -3.5q-27 0 -50.5 8.5t-43.5 37.5q-12 17 -17 33.5t-5 30.5q0 30 15 53.5
t29 32.5z" />
    <glyph glyph-name="acircumflex" unicode="&#xe2;" 
d="M912 226q0 -42 -3 -82.5t-18 -72.5t-45 -51.5t-84 -19.5q-55 0 -86 18.5t-46 45t-18.5 55.5t-3.5 49q-9 -29 -25.5 -59t-42.5 -54t-62.5 -39.5t-85.5 -15.5q-55 0 -110 18t-99 60t-71.5 109.5t-27.5 166.5v290q0 100 27.5 167.5t71.5 109t99 59.5t110 18q49 0 85.5 -15
t62.5 -39t42.5 -54t25.5 -60q0 50 14 83t36 52.5t49.5 27t54.5 7.5q50 0 80 -19.5t45.5 -51t20 -73t4.5 -84.5v-546zM392 380q0 -27 2 -53t11 -47t26.5 -33.5t48.5 -12.5q39 0 63.5 17.5t38.5 54t19.5 92t6.5 132.5q0 31 -5.5 71.5t-19.5 76.5t-39 61t-64 25
q-31 0 -48.5 -12.5t-26.5 -32.5t-11 -45.5t-2 -51.5v-242zM810 1280q11 -11 19.5 -29.5t8.5 -42.5q0 -26 -11.5 -45t-26.5 -33q-18 -17 -35 -23.5t-35 -6.5q-24 0 -48 7.5t-38 24.5l-110 104l-110 -104q-14 -17 -38 -24.5t-48 -7.5q-18 0 -35 6.5t-35 23.5q-15 14 -26.5 33
t-11.5 45q0 24 8.5 42.5t19.5 29.5l190 180q15 15 33.5 23.5t42.5 10.5h20q45 -3 76 -34z" />
    <glyph glyph-name="atilde" unicode="&#xe3;" 
d="M912 226q0 -42 -3 -82.5t-18 -72.5t-45 -51.5t-84 -19.5q-55 0 -86 18.5t-46 45t-18.5 55.5t-3.5 49q-9 -29 -25.5 -59t-42.5 -54t-62.5 -39.5t-85.5 -15.5q-55 0 -110 18t-99 60t-71.5 109.5t-27.5 166.5v290q0 100 27.5 167.5t71.5 109t99 59.5t110 18q49 0 85.5 -15
t62.5 -39t42.5 -54t25.5 -60q0 50 14 83t36 52.5t49.5 27t54.5 7.5q50 0 80 -19.5t45.5 -51t20 -73t4.5 -84.5v-546zM392 380q0 -27 2 -53t11 -47t26.5 -33.5t48.5 -12.5q39 0 63.5 17.5t38.5 54t19.5 92t6.5 132.5q0 31 -5.5 71.5t-19.5 76.5t-39 61t-64 25
q-31 0 -48.5 -12.5t-26.5 -32.5t-11 -45.5t-2 -51.5v-242zM472 1174q-20 11 -35 16.5t-27 5.5q-18 0 -36 -12.5t-44 -39.5q-15 -17 -32 -27.5t-32 -10.5q-18 0 -42.5 11.5t-39.5 32.5q-22 25 -22 52q0 21 14 45.5t46 54.5l74 66q24 21 48.5 33.5t53.5 12.5q21 0 41.5 -8
t44.5 -20q43 -22 69.5 -35t41.5 -20t21 -9t10 -2q15 0 30.5 10t33.5 30q17 15 35 25.5t39 10.5q14 -2 27.5 -8.5t30.5 -23.5q18 -18 24 -35t6 -35q-2 -12 -9 -25t-16.5 -25.5t-20 -23.5t-18.5 -18q-35 -36 -59 -56.5t-40.5 -30.5t-27.5 -12.5t-21 -2.5q-8 0 -17.5 1.5
t-27.5 9t-47 22.5t-76 41z" />
    <glyph glyph-name="adieresis" unicode="&#xe4;" 
d="M912 226q0 -42 -3 -82.5t-18 -72.5t-45 -51.5t-84 -19.5q-55 0 -86 18.5t-46 45t-18.5 55.5t-3.5 49q-9 -29 -25.5 -59t-42.5 -54t-62.5 -39.5t-85.5 -15.5q-55 0 -110 18t-99 60t-71.5 109.5t-27.5 166.5v290q0 100 27.5 167.5t71.5 109t99 59.5t110 18q49 0 85.5 -15
t62.5 -39t42.5 -54t25.5 -60q0 50 14 83t36 52.5t49.5 27t54.5 7.5q50 0 80 -19.5t45.5 -51t20 -73t4.5 -84.5v-546zM392 380q0 -27 2 -53t11 -47t26.5 -33.5t48.5 -12.5q39 0 63.5 17.5t38.5 54t19.5 92t6.5 132.5q0 31 -5.5 71.5t-19.5 76.5t-39 61t-64 25
q-31 0 -48.5 -12.5t-26.5 -32.5t-11 -45.5t-2 -51.5v-242zM454 1250q0 -77 -40 -114.5t-112 -37.5t-112 37.5t-40 114.5q0 80 40 116t112 36q77 0 114.5 -36t37.5 -116zM870 1250q0 -77 -40 -114.5t-112 -37.5t-112 37.5t-40 114.5q0 80 40 116t112 36q77 0 114.5 -36
t37.5 -116z" />
    <glyph glyph-name="aring" unicode="&#xe5;" 
d="M912 226q0 -42 -3 -82.5t-18 -72.5t-45 -51.5t-84 -19.5q-55 0 -86 18.5t-46 45t-18.5 55.5t-3.5 49q-9 -29 -25.5 -59t-42.5 -54t-62.5 -39.5t-85.5 -15.5q-55 0 -110 18t-99 60t-71.5 109.5t-27.5 166.5v290q0 100 27.5 167.5t71.5 109t99 59.5t110 18q49 0 85.5 -15
t62.5 -39t42.5 -54t25.5 -60q0 50 14 83t36 52.5t49.5 27t54.5 7.5q50 0 80 -19.5t45.5 -51t20 -73t4.5 -84.5v-546zM392 380q0 -27 2 -53t11 -47t26.5 -33.5t48.5 -12.5q39 0 63.5 17.5t38.5 54t19.5 92t6.5 132.5q0 31 -5.5 71.5t-19.5 76.5t-39 61t-64 25
q-31 0 -48.5 -12.5t-26.5 -32.5t-11 -45.5t-2 -51.5v-242zM622 1330q0 60 -28.5 87t-85.5 27q-54 0 -84 -27t-30 -87q0 -57 30 -85.5t84 -28.5t84 28.5t30 85.5zM736 1330q0 -118 -59 -174t-169 -56t-170 56t-60 174q0 119 60 173.5t170 54.5q116 0 172 -54.5t56 -173.5z
" />
    <glyph glyph-name="ae" unicode="&#xe6;" horiz-adv-x="1448" 
d="M22 250q0 83 41 143t108.5 100.5t152.5 64t174 34.5l56 6v122q0 36 -22 60t-78 24q-62 0 -88 -21.5t-26 -62.5q0 -14 -4.5 -30t-21.5 -30.5t-50.5 -24t-91.5 -9.5q-50 0 -78 11t-41.5 26.5t-16 32.5t-2.5 30q0 85 39.5 139t100 84.5t132 41.5t136.5 11q37 0 82 -4.5
t87 -16.5t77.5 -33.5t55.5 -55.5q18 28 47.5 48.5t63.5 34t69 20.5t64 7q89 0 153.5 -14.5t110 -38.5t73 -54.5t43 -63.5t21 -65.5t5.5 -59.5v-46q0 -44 -22.5 -80t-82 -63.5t-164 -46t-267.5 -26.5v-96q0 -24 6 -50t20.5 -48t38.5 -36t59 -14q22 0 42 5t35 15.5t24 26
t9 35.5q0 13 4.5 29.5t21.5 31t50.5 24t91.5 9.5q50 0 78 -11t41.5 -26.5t16 -32.5t2.5 -30q0 -57 -20.5 -99.5t-53 -73.5t-73.5 -50.5t-82 -31.5t-78.5 -16.5t-62.5 -4.5q-39 0 -79.5 5t-79.5 17.5t-75 34.5t-66 57q-25 -38 -59 -60.5t-74.5 -34.5t-87.5 -15.5t-97 -3.5
q-107 0 -180.5 18t-120 51t-67 79t-20.5 102zM1108 696q0 27 -10.5 47t-28 33.5t-39.5 20.5t-44 7q-47 0 -73 -18t-38 -45t-14.5 -58t-2.5 -57v-18q56 4 102 7.5t79 9.5t51 16.5t18 30.5v24zM554 426q-41 -2 -82.5 -13.5t-74.5 -32.5t-54 -52t-21 -74q0 -33 22 -43.5
t54 -10.5q45 0 75 10t48 29t25.5 45.5t7.5 59.5v82z" />
    <glyph glyph-name="ccedilla" unicode="&#xe7;" horiz-adv-x="1000" 
d="M496 772q-37 0 -58.5 -12t-32.5 -30t-14 -38t-3 -36v-310q0 -16 3 -40.5t14 -48t32.5 -40.5t58.5 -17q44 0 69 10t37 27.5t15 41t3 49.5q0 13 4.5 29.5t21.5 31t50.5 24t91.5 9.5q53 0 82 -12t42.5 -28.5t15.5 -34t2 -27.5q0 -81 -30.5 -137.5t-79.5 -93t-110.5 -56.5
t-123.5 -27l-20 -36q45 -4 80.5 -6t60.5 -17t38 -48.5t13 -100.5v-8q0 -58 -23 -95t-60.5 -58t-86 -29t-100.5 -8q-69 0 -116.5 12.5t-76.5 36.5t-42 59.5t-13 81.5q0 13 8 24.5t21 19t29 12t32 4.5q10 0 25.5 -3.5t29 -11.5t23.5 -20.5t10 -30.5q0 -11 2 -25t9.5 -26.5
t21.5 -21.5t37 -9q9 0 21.5 4t24.5 16t20 32.5t8 53.5q0 25 -2 38.5t-8.5 20t-19 8t-34.5 1.5q-29 0 -43.5 18t-14.5 42q0 9 3.5 21t12.5 27l8 16q-74 4 -143 27t-121.5 68t-84 113.5t-31.5 163.5v234q0 95 22.5 161t58.5 110t81 68.5t91 36.5t87.5 15t71.5 3
q89 0 155.5 -15t114.5 -40t79.5 -57.5t49.5 -68.5t25.5 -72t7.5 -67q0 -16 -2 -37.5t-15.5 -41t-42.5 -33.5t-82 -14q-19 0 -47.5 1.5t-55.5 10.5t-46 28t-19 54q0 24 -2.5 46.5t-14.5 39.5t-36.5 27.5t-68.5 10.5z" />
    <glyph glyph-name="egrave" unicode="&#xe8;" 
d="M684 1296q14 -9 29 -32.5t15 -53.5q0 -14 -5 -30.5t-17 -33.5q-20 -29 -43.5 -37.5t-50.5 -8.5q-15 0 -30.5 3.5t-29.5 12.5l-220 134q-20 14 -35 36.5t-15 49.5q0 14 5 32t17 36q20 29 47 37.5t53 8.5q29 0 56 -18zM936 570q0 -16 -2 -37.5t-15.5 -41t-42.5 -33.5
t-82 -14h-398v-96q0 -24 6 -50t20.5 -48t38.5 -36t59 -14q40 0 61.5 9.5t34 23.5t22.5 30t26.5 30t46 23.5t81.5 9.5q25 0 48.5 -4t41.5 -15t29 -30.5t11 -50.5q0 -65 -41 -108.5t-103 -69.5t-134.5 -37t-135.5 -11q-83 1 -158 21t-132.5 64t-91.5 115t-34 174v234
q0 95 22.5 161t58.5 110t81 68.5t91 36.5t87.5 15t71.5 3q101 0 172.5 -18t119.5 -47t76 -67t42 -78.5t18 -82t4 -77.5v-62zM396 594h250q0 47 -2.5 83.5t-15 61.5t-39 38t-75.5 13q-41 0 -64.5 -13t-35.5 -32.5t-15 -41.5t-3 -39v-70z" />
    <glyph glyph-name="eacute" unicode="&#xe9;" 
d="M570 1432q27 18 56 18q26 0 53 -8.5t47 -37.5q12 -18 17 -36t5 -32q0 -27 -15 -49.5t-35 -36.5l-220 -134q-14 -9 -29.5 -12.5t-30.5 -3.5q-27 0 -50.5 8.5t-43.5 37.5q-12 17 -17 33.5t-5 30.5q0 30 15 53.5t29 32.5zM936 570q0 -16 -2 -37.5t-15.5 -41t-42.5 -33.5
t-82 -14h-398v-96q0 -24 6 -50t20.5 -48t38.5 -36t59 -14q40 0 61.5 9.5t34 23.5t22.5 30t26.5 30t46 23.5t81.5 9.5q25 0 48.5 -4t41.5 -15t29 -30.5t11 -50.5q0 -65 -41 -108.5t-103 -69.5t-134.5 -37t-135.5 -11q-83 1 -158 21t-132.5 64t-91.5 115t-34 174v234
q0 95 22.5 161t58.5 110t81 68.5t91 36.5t87.5 15t71.5 3q101 0 172.5 -18t119.5 -47t76 -67t42 -78.5t18 -82t4 -77.5v-62zM396 594h250q0 47 -2.5 83.5t-15 61.5t-39 38t-75.5 13q-41 0 -64.5 -13t-35.5 -32.5t-15 -41.5t-3 -39v-70z" />
    <glyph glyph-name="ecircumflex" unicode="&#xea;" 
d="M780 1280q11 -11 19.5 -29.5t8.5 -42.5q0 -26 -11.5 -45t-26.5 -33q-18 -17 -35 -23.5t-35 -6.5q-24 0 -48 7.5t-38 24.5l-110 104l-110 -104q-14 -17 -38 -24.5t-48 -7.5q-18 0 -35 6.5t-35 23.5q-15 14 -26.5 33t-11.5 45q0 24 8.5 42.5t19.5 29.5l190 180
q15 15 33.5 23.5t42.5 10.5h20q45 -3 76 -34zM936 570q0 -16 -2 -37.5t-15.5 -41t-42.5 -33.5t-82 -14h-398v-96q0 -24 6 -50t20.5 -48t38.5 -36t59 -14q40 0 61.5 9.5t34 23.5t22.5 30t26.5 30t46 23.5t81.5 9.5q25 0 48.5 -4t41.5 -15t29 -30.5t11 -50.5q0 -65 -41 -108.5
t-103 -69.5t-134.5 -37t-135.5 -11q-83 1 -158 21t-132.5 64t-91.5 115t-34 174v234q0 95 22.5 161t58.5 110t81 68.5t91 36.5t87.5 15t71.5 3q101 0 172.5 -18t119.5 -47t76 -67t42 -78.5t18 -82t4 -77.5v-62zM396 594h250q0 47 -2.5 83.5t-15 61.5t-39 38t-75.5 13
q-41 0 -64.5 -13t-35.5 -32.5t-15 -41.5t-3 -39v-70z" />
    <glyph glyph-name="edieresis" unicode="&#xeb;" 
d="M448 1252q0 -77 -40 -114.5t-112 -37.5t-112 37.5t-40 114.5q0 80 40 116t112 36q77 0 114.5 -36t37.5 -116zM864 1252q0 -77 -40 -114.5t-112 -37.5t-112 37.5t-40 114.5q0 80 40 116t112 36q77 0 114.5 -36t37.5 -116zM936 570q0 -16 -2 -37.5t-15.5 -41t-42.5 -33.5
t-82 -14h-398v-96q0 -24 6 -50t20.5 -48t38.5 -36t59 -14q40 0 61.5 9.5t34 23.5t22.5 30t26.5 30t46 23.5t81.5 9.5q25 0 48.5 -4t41.5 -15t29 -30.5t11 -50.5q0 -65 -41 -108.5t-103 -69.5t-134.5 -37t-135.5 -11q-83 1 -158 21t-132.5 64t-91.5 115t-34 174v234
q0 95 22.5 161t58.5 110t81 68.5t91 36.5t87.5 15t71.5 3q101 0 172.5 -18t119.5 -47t76 -67t42 -78.5t18 -82t4 -77.5v-62zM396 594h250q0 47 -2.5 83.5t-15 61.5t-39 38t-75.5 13q-41 0 -64.5 -13t-35.5 -32.5t-15 -41.5t-3 -39v-70z" />
    <glyph glyph-name="igrave" unicode="&#xec;" horiz-adv-x="626" 
d="M152 776q0 42 4.5 82t20.5 71.5t46 51t81 19.5t81 -19.5t46 -51t20.5 -71.5t4.5 -82v-552q0 -42 -4.5 -82.5t-20.5 -72t-46 -50.5t-81 -19t-81 19t-46 50.5t-20.5 72t-4.5 82.5v552zM474 1296q14 -9 29 -32.5t15 -53.5q0 -14 -5 -30.5t-17 -33.5q-20 -29 -43.5 -37.5
t-50.5 -8.5q-15 0 -30.5 3.5t-29.5 12.5l-220 134q-20 14 -35 36.5t-15 49.5q0 14 5 32t17 36q20 29 47 37.5t53 8.5q29 0 56 -18z" />
    <glyph glyph-name="iacute" unicode="&#xed;" horiz-adv-x="626" 
d="M152 776q0 42 4.5 82t20.5 71.5t46 51t81 19.5t81 -19.5t46 -51t20.5 -71.5t4.5 -82v-552q0 -42 -4.5 -82.5t-20.5 -72t-46 -50.5t-81 -19t-81 19t-46 50.5t-20.5 72t-4.5 82.5v552zM364 1432q27 18 56 18q26 0 53 -8.5t47 -37.5q12 -18 17 -36t5 -32q0 -27 -15 -49.5
t-35 -36.5l-220 -134q-14 -9 -29.5 -12.5t-30.5 -3.5q-27 0 -50.5 8.5t-43.5 37.5q-12 17 -17 33.5t-5 30.5q0 30 15 53.5t29 32.5z" />
    <glyph glyph-name="icircumflex" unicode="&#xee;" horiz-adv-x="646" 
d="M172 776q0 42 4.5 82t20.5 71.5t46 51t81 19.5t81 -19.5t46 -51t20.5 -71.5t4.5 -82v-552q0 -42 -4.5 -82.5t-20.5 -72t-46 -50.5t-81 -19t-81 19t-46 50.5t-20.5 72t-4.5 82.5v552zM598 1280q11 -11 19.5 -29.5t8.5 -42.5q0 -26 -11.5 -45t-26.5 -33q-18 -17 -35 -23.5
t-35 -6.5q-24 0 -48 7.5t-38 24.5l-110 104l-110 -104q-14 -17 -38 -24.5t-48 -7.5q-18 0 -35 6.5t-35 23.5q-15 14 -26.5 33t-11.5 45q0 24 8.5 42.5t19.5 29.5l190 180q15 15 33.5 23.5t42.5 10.5h20q45 -3 76 -34z" />
    <glyph glyph-name="idieresis" unicode="&#xef;" horiz-adv-x="626" 
d="M152 776q0 42 4.5 82t20.5 71.5t46 51t81 19.5t81 -19.5t46 -51t20.5 -71.5t4.5 -82v-552q0 -42 -4.5 -82.5t-20.5 -72t-46 -50.5t-81 -19t-81 19t-46 50.5t-20.5 72t-4.5 82.5v552zM248 1252q0 -77 -40 -114.5t-112 -37.5t-112 37.5t-40 114.5q0 80 40 116t112 36
q77 0 114.5 -36t37.5 -116zM664 1252q0 -77 -40 -114.5t-112 -37.5t-112 37.5t-40 114.5q0 80 40 116t112 36q77 0 114.5 -36t37.5 -116z" />
    <glyph glyph-name="eth" unicode="&#xf0;" horiz-adv-x="1064" 
d="M948 418q0 -100 -21 -170.5t-55.5 -118t-79 -74.5t-91.5 -41t-92.5 -18t-82.5 -4q-20 0 -58.5 2.5t-84 14t-93 35.5t-86.5 68.5t-63.5 112t-24.5 165.5v136q0 86 19.5 148.5t51.5 105.5t72.5 70t81.5 41.5t79.5 19.5t67.5 5q39 0 74.5 -8t64.5 -25.5t51 -46t34 -68.5
q1 32 2 61q1 25 1.5 50.5t0.5 40.5q0 30 -2 50.5t-8 53.5l-156 -26q-5 -2 -10 -2h-10q-42 0 -66 24t-24 56t22 56.5t54 29.5l132 22q-15 15 -37 27t-45 21q-25 9 -46.5 14.5t-37.5 14t-25 23t-9 40.5q0 22 10.5 36.5t25.5 23t32.5 11.5t31.5 3q115 0 192 -44t124 -136l90 16
q6 2 12 2h12q25 0 41.5 -7t26.5 -18t14 -25.5t4 -29.5q0 -29 -17.5 -53t-68.5 -33l-60 -10q9 -56 15 -109t9 -106t4.5 -107.5t1.5 -113.5v-206zM540 204q44 0 68 18t35 41q13 26 15 59v218q0 27 -5.5 55t-19 51t-36.5 37.5t-57 14.5q-44 0 -67.5 -18.5t-34.5 -40.5
q-13 -26 -14 -59v-258q0 -9 2 -28.5t12.5 -39.5t34 -35t67.5 -15z" />
    <glyph glyph-name="ntilde" unicode="&#xf1;" horiz-adv-x="1082" 
d="M492 1174q-20 11 -35 16.5t-27 5.5q-18 0 -36 -12.5t-44 -39.5q-15 -17 -32 -27.5t-32 -10.5q-18 0 -42.5 11.5t-39.5 32.5q-22 25 -22 52q0 21 14 45.5t46 54.5l74 66q24 21 48.5 33.5t53.5 12.5q21 0 41.5 -8t44.5 -20q43 -22 69.5 -35t41.5 -20t21 -9t10 -2
q15 0 30.5 10t33.5 30q17 15 35 25.5t39 10.5q14 -2 27.5 -8.5t30.5 -23.5q18 -18 24 -35t6 -35q-2 -12 -9 -25t-16.5 -25.5t-20 -23.5t-18.5 -18q-35 -36 -59 -56.5t-40.5 -30.5t-27.5 -12.5t-21 -2.5q-8 0 -17.5 1.5t-27.5 9t-47 22.5t-76 41zM966 228q0 -43 -5 -84
t-21.5 -73t-47 -51.5t-82.5 -19.5q-51 0 -81 19.5t-46 51.5t-20.5 73t-4.5 84v390q0 28 -2.5 55t-11.5 47.5t-26.5 33t-47.5 12.5q-41 0 -66 -27t-39.5 -74t-19.5 -110.5t-5 -136.5v-190q0 -43 -5 -84t-21.5 -73t-47 -51.5t-82.5 -19.5q-51 0 -81 19.5t-46 51.5t-20.5 73
t-4.5 84v546q0 43 3 83.5t18 72t45.5 51t85.5 19.5t86 -18.5t46.5 -44.5t19.5 -55t4 -50q8 29 25 59t43.5 54t63.5 39.5t86 15.5q55 0 110 -18t99 -60t71.5 -110t27.5 -168v-416z" />
    <glyph glyph-name="ograve" unicode="&#xf2;" horiz-adv-x="1000" 
d="M680 1296q14 -9 29 -32.5t15 -53.5q0 -14 -5 -30.5t-17 -33.5q-20 -29 -43.5 -37.5t-50.5 -8.5q-15 0 -30.5 3.5t-29.5 12.5l-220 134q-20 14 -35 36.5t-15 49.5q0 14 5 32t17 36q20 29 47 37.5t53 8.5q29 0 56 -18zM78 624q0 92 25 155.5t64.5 105.5t88 65t95.5 34
t87.5 13.5t63.5 2.5t63 -2.5t85.5 -13.5t92 -34t84 -65t61.5 -105.5t24 -155.5v-248q0 -92 -24 -155.5t-61.5 -105.5t-84 -65t-92 -34t-85.5 -13.5t-63 -2.5t-63.5 2.5t-87.5 13.5t-95.5 34t-88 65t-64.5 105.5t-25 155.5v248zM386 306q1 -29 14 -51q11 -20 34.5 -35.5
t67.5 -15.5q42 0 64.5 15.5t33.5 35.5q12 22 14 51v362q-2 30 -14 55q-11 20 -33.5 37.5t-64.5 17.5q-44 0 -67.5 -17.5t-34.5 -37.5q-13 -25 -14 -55v-362z" />
    <glyph glyph-name="oacute" unicode="&#xf3;" horiz-adv-x="1000" 
d="M78 624q0 92 25 155.5t64.5 105.5t88 65t95.5 34t87.5 13.5t63.5 2.5t63 -2.5t85.5 -13.5t92 -34t84 -65t61.5 -105.5t24 -155.5v-248q0 -92 -24 -155.5t-61.5 -105.5t-84 -65t-92 -34t-85.5 -13.5t-63 -2.5t-63.5 2.5t-87.5 13.5t-95.5 34t-88 65t-64.5 105.5t-25 155.5
v248zM386 306q1 -29 14 -51q11 -20 34.5 -35.5t67.5 -15.5q42 0 64.5 15.5t33.5 35.5q12 22 14 51v362q-2 30 -14 55q-11 20 -33.5 37.5t-64.5 17.5q-44 0 -67.5 -17.5t-34.5 -37.5q-13 -25 -14 -55v-362zM540 1432q27 18 56 18q26 0 53 -8.5t47 -37.5q12 -18 17 -36t5 -32
q0 -27 -15 -49.5t-35 -36.5l-220 -134q-14 -9 -29.5 -12.5t-30.5 -3.5q-27 0 -50.5 8.5t-43.5 37.5q-12 17 -17 33.5t-5 30.5q0 30 15 53.5t29 32.5z" />
    <glyph glyph-name="ocircumflex" unicode="&#xf4;" horiz-adv-x="1000" 
d="M778 1280q11 -11 19.5 -29.5t8.5 -42.5q0 -26 -11.5 -45t-26.5 -33q-18 -17 -35 -23.5t-35 -6.5q-24 0 -48 7.5t-38 24.5l-110 104l-110 -104q-14 -17 -38 -24.5t-48 -7.5q-18 0 -35 6.5t-35 23.5q-15 14 -26.5 33t-11.5 45q0 24 8.5 42.5t19.5 29.5l190 180
q15 15 33.5 23.5t42.5 10.5h20q45 -3 76 -34zM78 624q0 92 25 155.5t64.5 105.5t88 65t95.5 34t87.5 13.5t63.5 2.5t63 -2.5t85.5 -13.5t92 -34t84 -65t61.5 -105.5t24 -155.5v-248q0 -92 -24 -155.5t-61.5 -105.5t-84 -65t-92 -34t-85.5 -13.5t-63 -2.5t-63.5 2.5
t-87.5 13.5t-95.5 34t-88 65t-64.5 105.5t-25 155.5v248zM386 306q1 -29 14 -51q11 -20 34.5 -35.5t67.5 -15.5q42 0 64.5 15.5t33.5 35.5q12 22 14 51v362q-2 30 -14 55q-11 20 -33.5 37.5t-64.5 17.5q-44 0 -67.5 -17.5t-34.5 -37.5q-13 -25 -14 -55v-362z" />
    <glyph glyph-name="otilde" unicode="&#xf5;" horiz-adv-x="1000" 
d="M456 1174q-30 18 -60 18q-24 0 -43 -12t-39 -36q-15 -17 -32 -27.5t-32 -10.5q-18 0 -42.5 11.5t-39.5 32.5q-22 25 -22 52q0 21 14 45.5t46 54.5l74 66q24 21 48.5 33.5t53.5 12.5q21 0 41.5 -8t44.5 -20q43 -22 69.5 -35t41.5 -20t21 -9t10 -2q15 0 30.5 10t33.5 30
q17 15 35 25.5t39 10.5q14 -2 27.5 -8.5t30.5 -23.5q18 -18 24 -35t6 -35q-2 -12 -9 -25t-16.5 -25.5t-20 -23.5t-18.5 -18q-35 -36 -59 -56.5t-40.5 -30.5t-27.5 -12.5t-21 -2.5q-8 0 -17.5 1.5t-27.5 9t-47 22.5t-76 41zM78 624q0 92 25 155.5t64.5 105.5t88 65t95.5 34
t87.5 13.5t63.5 2.5t63 -2.5t85.5 -13.5t92 -34t84 -65t61.5 -105.5t24 -155.5v-248q0 -92 -24 -155.5t-61.5 -105.5t-84 -65t-92 -34t-85.5 -13.5t-63 -2.5t-63.5 2.5t-87.5 13.5t-95.5 34t-88 65t-64.5 105.5t-25 155.5v248zM386 306q1 -29 14 -51q11 -20 34.5 -35.5
t67.5 -15.5q42 0 64.5 15.5t33.5 35.5q12 22 14 51v362q-2 30 -14 55q-11 20 -33.5 37.5t-64.5 17.5q-44 0 -67.5 -17.5t-34.5 -37.5q-13 -25 -14 -55v-362z" />
    <glyph glyph-name="odieresis" unicode="&#xf6;" horiz-adv-x="1000" 
d="M78 624q0 92 25 155.5t64.5 105.5t88 65t95.5 34t87.5 13.5t63.5 2.5t63 -2.5t85.5 -13.5t92 -34t84 -65t61.5 -105.5t24 -155.5v-248q0 -92 -24 -155.5t-61.5 -105.5t-84 -65t-92 -34t-85.5 -13.5t-63 -2.5t-63.5 2.5t-87.5 13.5t-95.5 34t-88 65t-64.5 105.5t-25 155.5
v248zM386 306q1 -29 14 -51q11 -20 34.5 -35.5t67.5 -15.5q42 0 64.5 15.5t33.5 35.5q12 22 14 51v362q-2 30 -14 55q-11 20 -33.5 37.5t-64.5 17.5q-44 0 -67.5 -17.5t-34.5 -37.5q-13 -25 -14 -55v-362zM446 1252q0 -77 -40 -114.5t-112 -37.5t-112 37.5t-40 114.5
q0 80 40 116t112 36q77 0 114.5 -36t37.5 -116zM862 1252q0 -77 -40 -114.5t-112 -37.5t-112 37.5t-40 114.5q0 80 40 116t112 36q77 0 114.5 -36t37.5 -116z" />
    <glyph glyph-name="divide" unicode="&#xf7;" horiz-adv-x="1396" 
d="M300 602q-28 0 -54 3.5t-46 16t-32 36t-12 64.5q0 44 12 69t32 37t46 15t54 3h810q25 0 51 -3t46.5 -15t33.5 -37t13 -69q0 -41 -13 -64.5t-33.5 -36t-46.5 -16t-51 -3.5h-754h-56zM870 340q0 -85 -43 -125.5t-121 -40.5q-80 0 -123 40.5t-43 125.5q0 86 43 125t123 39
q83 0 123.5 -39t40.5 -125zM868 1110q0 -85 -43 -125.5t-121 -40.5q-80 0 -123 40.5t-43 125.5q0 86 43 125t123 39q83 0 123.5 -39t40.5 -125z" />
    <glyph glyph-name="oslash" unicode="&#xf8;" horiz-adv-x="1000" 
d="M80 624q0 92 25 156t64.5 107t88 67t95.5 36t87.5 15t63.5 3q24 0 63.5 -3t85 -15t92 -36t84 -67t61.5 -107t24 -156v-248q0 -92 -24 -156t-61.5 -107t-84 -67t-92 -36t-85.5 -15t-63 -3t-63.5 3t-87.5 15t-95.5 36t-88 67t-64.5 107t-25 156v248zM582 750
q-12 12 -30.5 20t-47.5 8q-44 0 -67.5 -17.5t-34.5 -37.5q-13 -25 -14 -55v-248zM418 236q12 -12 33 -22t53 -10q42 0 64.5 15.5t33.5 35.5q12 22 14 51v270z" />
    <glyph glyph-name="ugrave" unicode="&#xf9;" horiz-adv-x="1084" 
d="M118 772q0 43 5 84t21.5 73t47 51.5t82.5 19.5q51 0 81 -19.5t46 -51.5t20.5 -73t4.5 -84v-390q0 -29 2.5 -55.5t11.5 -47t26.5 -33t47.5 -12.5q40 0 65.5 27t40 74t19.5 110.5t5 136.5v190q0 43 5 84t21.5 73t47 51.5t82.5 19.5q51 0 81 -19.5t46 -51.5t20.5 -73
t4.5 -84v-546q0 -43 -3 -83.5t-18 -72t-45.5 -51t-85.5 -19.5t-86 18.5t-46.5 44.5t-19.5 55t-4 50q-8 -29 -25 -59t-43.5 -54t-63.5 -39.5t-86 -15.5q-55 0 -110 18t-99 60t-71.5 110t-27.5 168v416zM716 1296q14 -9 29 -32.5t15 -53.5q0 -14 -5 -30.5t-17 -33.5
q-20 -29 -43.5 -37.5t-50.5 -8.5q-15 0 -30.5 3.5t-29.5 12.5l-220 134q-20 14 -35 36.5t-15 49.5q0 14 5 32t17 36q20 29 47 37.5t53 8.5q29 0 56 -18z" />
    <glyph glyph-name="uacute" unicode="&#xfa;" horiz-adv-x="1084" 
d="M118 772q0 43 5 84t21.5 73t47 51.5t82.5 19.5q51 0 81 -19.5t46 -51.5t20.5 -73t4.5 -84v-390q0 -29 2.5 -55.5t11.5 -47t26.5 -33t47.5 -12.5q40 0 65.5 27t40 74t19.5 110.5t5 136.5v190q0 43 5 84t21.5 73t47 51.5t82.5 19.5q51 0 81 -19.5t46 -51.5t20.5 -73
t4.5 -84v-546q0 -43 -3 -83.5t-18 -72t-45.5 -51t-85.5 -19.5t-86 18.5t-46.5 44.5t-19.5 55t-4 50q-8 -29 -25 -59t-43.5 -54t-63.5 -39.5t-86 -15.5q-55 0 -110 18t-99 60t-71.5 110t-27.5 168v416zM592 1432q27 18 56 18q26 0 53 -8.5t47 -37.5q12 -18 17 -36t5 -32
q0 -27 -15 -49.5t-35 -36.5l-220 -134q-14 -9 -29.5 -12.5t-30.5 -3.5q-27 0 -50.5 8.5t-43.5 37.5q-12 17 -17 33.5t-5 30.5q0 30 15 53.5t29 32.5z" />
    <glyph glyph-name="ucircumflex" unicode="&#xfb;" horiz-adv-x="1084" 
d="M810 1280q11 -11 19.5 -29.5t8.5 -42.5q0 -26 -11.5 -45t-26.5 -33q-18 -17 -35 -23.5t-35 -6.5q-24 0 -48 7.5t-38 24.5l-110 104l-110 -104q-14 -17 -38 -24.5t-48 -7.5q-18 0 -35 6.5t-35 23.5q-15 14 -26.5 33t-11.5 45q0 24 8.5 42.5t19.5 29.5l190 180
q15 15 33.5 23.5t42.5 10.5h20q45 -3 76 -34zM118 772q0 43 5 84t21.5 73t47 51.5t82.5 19.5q51 0 81 -19.5t46 -51.5t20.5 -73t4.5 -84v-390q0 -29 2.5 -55.5t11.5 -47t26.5 -33t47.5 -12.5q40 0 65.5 27t40 74t19.5 110.5t5 136.5v190q0 43 5 84t21.5 73t47 51.5
t82.5 19.5q51 0 81 -19.5t46 -51.5t20.5 -73t4.5 -84v-546q0 -43 -3 -83.5t-18 -72t-45.5 -51t-85.5 -19.5t-86 18.5t-46.5 44.5t-19.5 55t-4 50q-8 -29 -25 -59t-43.5 -54t-63.5 -39.5t-86 -15.5q-55 0 -110 18t-99 60t-71.5 110t-27.5 168v416z" />
    <glyph glyph-name="udieresis" unicode="&#xfc;" horiz-adv-x="1084" 
d="M118 772q0 43 5 84t21.5 73t47 51.5t82.5 19.5q51 0 81 -19.5t46 -51.5t20.5 -73t4.5 -84v-390q0 -29 2.5 -55.5t11.5 -47t26.5 -33t47.5 -12.5q40 0 65.5 27t40 74t19.5 110.5t5 136.5v190q0 43 5 84t21.5 73t47 51.5t82.5 19.5q51 0 81 -19.5t46 -51.5t20.5 -73
t4.5 -84v-546q0 -43 -3 -83.5t-18 -72t-45.5 -51t-85.5 -19.5t-86 18.5t-46.5 44.5t-19.5 55t-4 50q-8 -29 -25 -59t-43.5 -54t-63.5 -39.5t-86 -15.5q-55 0 -110 18t-99 60t-71.5 110t-27.5 168v416zM486 1252q0 -77 -40 -114.5t-112 -37.5t-112 37.5t-40 114.5
q0 80 40 116t112 36q77 0 114.5 -36t37.5 -116zM902 1252q0 -77 -40 -114.5t-112 -37.5t-112 37.5t-40 114.5q0 80 40 116t112 36q77 0 114.5 -36t37.5 -116z" />
    <glyph glyph-name="yacute" unicode="&#xfd;" horiz-adv-x="916" 
d="M230 -400q-114 0 -162 32.5t-48 95.5v13t2 13q3 27 13.5 43.5t25.5 25.5t32.5 12t34.5 3q15 0 28 -1t22 -1q19 0 36.5 22.5t34 56.5t33.5 73t34 72l-16 40q-29 73 -61 153.5t-63.5 163t-62 164.5t-55.5 159q-11 32 -18.5 63t-7.5 61q0 41 21 73.5t77 52.5q15 6 28.5 8
t25.5 2q28 0 51.5 -12t42 -33t32.5 -48t24 -57l134 -422l128 422q9 28 23 56t33 49.5t43 35t53 13.5q28 0 58 -12q48 -21 67 -57t19 -77q0 -30 -7.5 -59.5t-18.5 -58.5l-240 -636q-21 -54 -45.5 -112.5t-53.5 -114.5t-62 -106t-70 -88t-78.5 -60.5t-86.5 -22.5zM512 1434
q27 18 56 18q26 0 53 -8.5t47 -37.5q12 -18 17 -36t5 -32q0 -27 -15 -49.5t-35 -36.5l-220 -134q-14 -9 -29.5 -12.5t-30.5 -3.5q-27 0 -50.5 8.5t-43.5 37.5q-12 17 -17 33.5t-5 30.5q0 30 15 53.5t29 32.5z" />
    <glyph glyph-name="thorn" unicode="&#xfe;" horiz-adv-x="1172" 
d="M180 1172q0 43 6 84.5t23 73t48 51t81 19.5q52 0 84 -19.5t49.5 -51t23 -73t5.5 -84.5v-342q9 30 26.5 60t44.5 54t64.5 39t86.5 15q55 0 110 -18t99.5 -59.5t72.5 -109t28 -167.5v-290q0 -99 -28 -166.5t-72.5 -109.5t-99.5 -60t-110 -18q-49 0 -86.5 15.5t-64.5 39.5
t-44.5 54t-26.5 59v-340q0 -44 -6 -85t-23 -72.5t-48 -51t-81 -19.5q-53 0 -84.5 19.5t-49 51t-23 72.5t-5.5 85v1344zM716 622q0 26 -2 51.5t-11 45.5t-26.5 32.5t-48.5 12.5q-39 0 -64 -25t-39 -61t-19.5 -76.5t-5.5 -71.5q1 -77 6.5 -132.5t19.5 -92t38.5 -54t63.5 -17.5
q31 0 48.5 12.5t26.5 33.5t11 47t2 53v242z" />
    <glyph glyph-name="ydieresis" unicode="&#xff;" horiz-adv-x="916" 
d="M230 -400q-110 0 -160 29.5t-50 88.5q0 40 10.5 64t27 36.5t35 16t35.5 3.5q15 0 28 -1t22 -1q19 0 36.5 22.5t34 56.5t33.5 73t34 72l-16 40q-29 73 -61 153.5t-63.5 163t-62 164.5t-55.5 159q-11 32 -18.5 63t-7.5 61q0 41 21 73.5t77 52.5q15 6 28.5 8t25.5 2
q28 0 51.5 -12t42 -33t32.5 -48t24 -57l134 -422l128 422q9 28 23 56t33 49.5t43 35t53 13.5q28 0 58 -12q48 -21 67 -57t19 -77q0 -30 -7.5 -59.5t-18.5 -58.5l-240 -636q-21 -54 -45.5 -112.5t-53.5 -114.5t-62 -106t-70 -88t-78.5 -60.5t-86.5 -22.5zM406 1252
q0 -77 -40 -114.5t-112 -37.5t-112 37.5t-40 114.5q0 80 40 116t112 36q77 0 114.5 -36t37.5 -116zM822 1252q0 -77 -40 -114.5t-112 -37.5t-112 37.5t-40 114.5q0 80 40 116t112 36q77 0 114.5 -36t37.5 -116z" />
    <glyph glyph-name="Amacron" unicode="&#x100;" horiz-adv-x="1104" 
d="M394 604h318l-148 536h-22zM1022 506q2 -68 5 -139t3 -137v-30q0 -38 -2.5 -73.5t-15.5 -64t-41 -45.5t-79 -17q-52 0 -80 17t-41.5 45t-16 64t-2.5 74v140h-400v-140q0 -38 -2.5 -74t-16 -64t-41.5 -45t-80 -17t-80 17t-41 45.5t-15 64t-2 73.5v30q0 31 0.5 66t1.5 71
t2 71.5t2 67.5q50 174 105 352.5t105 353.5q10 37 24 71.5t37 60t59 41t92 15.5h100q55 0 91.5 -15.5t59.5 -41t36.5 -60t24.5 -71.5zM750 1804q25 0 54 -2.5t53.5 -13t40.5 -33.5t16 -63q0 -41 -16 -63.5t-40.5 -33t-53.5 -13t-54 -2.5h-402q-28 0 -57 2.5t-53 13t-39 33
t-15 63.5q0 40 15 63t39 33.5t53 13t57 2.5h402z" />
    <glyph glyph-name="amacron" unicode="&#x101;" 
d="M912 226q0 -42 -3 -82.5t-18 -72.5t-45 -51.5t-84 -19.5q-55 0 -86 18.5t-46 45t-18.5 55.5t-3.5 49q-9 -29 -25.5 -59t-42.5 -54t-62.5 -39.5t-85.5 -15.5q-55 0 -110 18t-99 60t-71.5 109.5t-27.5 166.5v290q0 100 27.5 167.5t71.5 109t99 59.5t110 18q49 0 85.5 -15
t62.5 -39t42.5 -54t25.5 -60q0 50 14 83t36 52.5t49.5 27t54.5 7.5q50 0 80 -19.5t45.5 -51t20 -73t4.5 -84.5v-546zM392 380q0 -27 2 -53t11 -47t26.5 -33.5t48.5 -12.5q39 0 63.5 17.5t38.5 54t19.5 92t6.5 132.5q0 31 -5.5 71.5t-19.5 76.5t-39 61t-64 25
q-31 0 -48.5 -12.5t-26.5 -32.5t-11 -45.5t-2 -51.5v-242zM724 1400q25 0 54 -2.5t53.5 -13t40.5 -33.5t16 -63q0 -41 -16 -63.5t-40.5 -33t-53.5 -13t-54 -2.5h-402q-28 0 -57 2.5t-53 13t-39 33t-15 63.5q0 40 15 63t39 33.5t53 13t57 2.5h402z" />
    <glyph glyph-name="Ccaron" unicode="&#x10c;" horiz-adv-x="1110" 
d="M650 1532q-31 -31 -76 -34h-20q-24 2 -42.5 10.5t-33.5 23.5l-190 180q-11 11 -19.5 29.5t-8.5 42.5q0 26 11.5 45t26.5 33q18 17 35 23.5t35 6.5q24 0 48 -7.5t38 -24.5l110 -104l110 104q14 17 38 24.5t48 7.5q18 0 35 -6.5t35 -23.5q15 -14 26.5 -33t11.5 -45
q0 -24 -8.5 -42.5t-19.5 -29.5zM556 1148q-49 0 -75.5 -20.5t-38.5 -44.5q-14 -29 -16 -65v-634q2 -44 16 -77q12 -29 38.5 -53t75.5 -24q47 0 77 19.5t47 52.5t23.5 76t6.5 90q0 15 5 31t23 29.5t53 22.5t95 9t92.5 -13.5t47.5 -31t17.5 -34t2.5 -21.5q0 -110 -37 -196.5
t-104.5 -146.5t-161 -91.5t-205.5 -31.5q-18 0 -58.5 3t-90.5 16t-103 39t-96.5 72.5t-71.5 116t-28 169.5v558q0 82 20 145t52.5 109.5t74.5 78t86 52.5q102 48 233 55q110 0 189.5 -25t134 -65t87.5 -90.5t50.5 -102.5t23 -100t5.5 -83q0 -15 -2.5 -36.5t-17.5 -41.5
t-47.5 -34t-92.5 -14q-20 0 -50 2.5t-58 13t-48 30t-20 54.5q0 54 -6.5 97t-23.5 73t-47 46t-77 16z" />
    <glyph glyph-name="ccaron" unicode="&#x10d;" horiz-adv-x="1000" 
d="M496 772q-37 0 -58.5 -12t-32.5 -30t-14 -38t-3 -36v-310q0 -16 3 -40.5t14 -48t32.5 -40.5t58.5 -17q44 0 69 10t37 27.5t15 41t3 49.5q0 13 4.5 29.5t21.5 31t50.5 24t91.5 9.5q53 0 82 -12t42.5 -28.5t15.5 -34t2 -27.5q0 -64 -19.5 -112.5t-52.5 -84t-76 -59.5
t-91.5 -38t-98.5 -20t-96 -6q-79 0 -153 21t-131.5 66t-92.5 115.5t-35 169.5v234q0 95 22.5 161t58.5 110t81 68.5t91 36.5t87.5 15t71.5 3q89 0 155.5 -15t114.5 -40t79.5 -57.5t49.5 -68.5t25.5 -72t7.5 -67q0 -16 -2 -37.5t-15.5 -41t-42.5 -33.5t-82 -14
q-19 0 -47.5 1.5t-55.5 10.5t-46 28t-19 54q0 24 -2.5 46.5t-14.5 39.5t-36.5 27.5t-68.5 10.5zM582 1134q-31 -31 -76 -34h-20q-24 2 -42.5 10.5t-33.5 23.5l-190 180q-11 11 -19.5 29.5t-8.5 42.5q0 26 11.5 45t26.5 33q18 17 35 23.5t35 6.5q24 0 48 -7.5t38 -24.5
l110 -104l110 104q14 17 38 24.5t48 7.5q18 0 35 -6.5t35 -23.5q15 -14 26.5 -33t11.5 -45q0 -24 -8.5 -42.5t-19.5 -29.5z" />
    <glyph glyph-name="Emacron" unicode="&#x112;" horiz-adv-x="986" 
d="M682 1400q40 0 81 -3t74 -17t54 -42.5t21 -79.5t-21 -79.5t-54 -42.5t-74 -17t-81 -3h-238v-272h126q40 0 80.5 -2.5t72 -16t51.5 -41t20 -76.5q0 -50 -20 -77t-51.5 -40.5t-72 -16t-80.5 -2.5h-126v-288h238q40 0 81 -3t74 -16.5t54 -42t21 -78.5q0 -52 -21.5 -81
t-54.5 -43t-74 -17t-80 -3h-392q-56 0 -86.5 20t-44.5 52.5t-16.5 73.5t-2.5 84v940q0 43 2.5 84t16.5 73.5t44.5 52.5t86.5 20h392zM714 1804q25 0 54 -2.5t53.5 -13t40.5 -33.5t16 -63q0 -41 -16 -63.5t-40.5 -33t-53.5 -13t-54 -2.5h-402q-28 0 -57 2.5t-53 13t-39 33
t-15 63.5q0 40 15 63t39 33.5t53 13t57 2.5h402z" />
    <glyph glyph-name="emacron" unicode="&#x113;" 
d="M936 570q0 -16 -2 -37.5t-15.5 -41t-42.5 -33.5t-82 -14h-398v-96q0 -24 6 -50t20.5 -48t38.5 -36t59 -14q40 0 61.5 9.5t34 23.5t22.5 30t26.5 30t46 23.5t81.5 9.5q25 0 48.5 -4t41.5 -15t29 -30.5t11 -50.5q0 -65 -41 -108.5t-103 -69.5t-134.5 -37t-135.5 -11
q-83 1 -158 21t-132.5 64t-91.5 115t-34 174v234q0 95 22.5 161t58.5 110t81 68.5t91 36.5t87.5 15t71.5 3q101 0 172.5 -18t119.5 -47t76 -67t42 -78.5t18 -82t4 -77.5v-62zM396 594h250q0 47 -2.5 83.5t-15 61.5t-39 38t-75.5 13q-41 0 -64.5 -13t-35.5 -32.5t-15 -41.5
t-3 -39v-70zM706 1400q25 0 54 -2.5t53.5 -13t40.5 -33.5t16 -63q0 -41 -16 -63.5t-40.5 -33t-53.5 -13t-54 -2.5h-402q-28 0 -57 2.5t-53 13t-39 33t-15 63.5q0 40 15 63t39 33.5t53 13t57 2.5h402z" />
    <glyph glyph-name="dotlessi" unicode="&#x131;" horiz-adv-x="626" 
d="M152 776q0 42 4.5 82t20.5 71.5t46 51t81 19.5t81 -19.5t46 -51t20.5 -71.5t4.5 -82v-552q0 -42 -4.5 -82.5t-20.5 -72t-46 -50.5t-81 -19t-81 19t-46 50.5t-20.5 72t-4.5 82.5v552z" />
    <glyph glyph-name="Scaron" unicode="&#x160;" horiz-adv-x="1014" 
d="M626 1532q-31 -31 -76 -34h-20q-24 2 -42.5 10.5t-33.5 23.5l-190 180q-11 11 -19.5 29.5t-8.5 42.5q0 26 11.5 45t26.5 33q18 17 35 23.5t35 6.5q24 0 48 -7.5t38 -24.5l110 -104l110 104q14 17 38 24.5t48 7.5q18 0 35 -6.5t35 -23.5q15 -14 26.5 -33t11.5 -45
q0 -24 -8.5 -42.5t-19.5 -29.5zM398 1048q1 -42 24.5 -75.5t62 -63.5t87.5 -58.5t100.5 -60t100.5 -68.5t88 -84t63 -106t26 -134v-8q0 -82 -20 -143t-53 -105t-77 -72.5t-92.5 -45.5t-98 -24t-93.5 -8h-10q-85 0 -149 17t-110 45.5t-76.5 65.5t-48.5 76.5t-26 78.5t-8 73
q0 35 12 61t31.5 42.5t45 24.5t53.5 8q26 0 53.5 -8t50 -24.5t37 -42t15.5 -59.5q2 -75 34 -102.5t92 -27.5q30 1 55.5 7.5t43.5 23t28.5 44t10.5 69.5q0 52 -23.5 94t-61.5 78t-87 68.5t-100 65t-99.5 68t-87.5 77.5t-62.5 93t-24.5 116v16q1 107 28.5 178t81 113
t131.5 59.5t179 17.5h26q92 0 156 -20t106.5 -51t67 -70t36.5 -77t15 -71t3 -53q0 -30 -11.5 -54.5t-31 -41.5t-46 -26.5t-57.5 -9.5q-24 0 -48 9.5t-43 24.5t-31 34.5t-12 39.5q0 82 -29.5 114t-86.5 32q-27 0 -52.5 -3t-45 -16.5t-31 -41.5t-11.5 -79z" />
    <glyph glyph-name="scaron" unicode="&#x161;" horiz-adv-x="910" 
d="M556 1134q-31 -31 -76 -34h-20q-24 2 -42.5 10.5t-33.5 23.5l-190 180q-11 11 -19.5 29.5t-8.5 42.5q0 26 11.5 45t26.5 33q18 17 35 23.5t35 6.5q24 0 48 -7.5t38 -24.5l110 -104l110 104q14 17 38 24.5t48 7.5q18 0 35 -6.5t35 -23.5q15 -14 26.5 -33t11.5 -45
q0 -24 -8.5 -42.5t-19.5 -29.5zM386 738q0 -20 13 -37t35.5 -32.5t52 -30.5t61.5 -30q49 -24 100 -51.5t93 -64.5t68.5 -85.5t26.5 -114.5q0 -60 -17.5 -106t-46.5 -79.5t-67.5 -55.5t-81 -35t-86.5 -18.5t-83 -5.5q-77 0 -134 13t-98 34.5t-67.5 49t-41.5 57.5t-21 59.5
t-6 54.5q0 60 33.5 88t102.5 28q50 0 82 -27t34 -87q1 -20 11.5 -32t27 -19.5t36.5 -10t39 -2.5q39 0 63.5 20.5t24.5 53.5q0 28 -16.5 52.5t-43.5 45.5t-61.5 40.5t-70.5 39.5q-45 24 -90.5 51t-82.5 60t-60 74.5t-23 94.5q0 78 25.5 130.5t74.5 85t119.5 46.5t160.5 16h16
q81 0 137.5 -14t94 -36.5t59 -50.5t32 -56.5t13 -54.5t2.5 -44q0 -30 -12.5 -49.5t-33 -31t-46.5 -16t-54 -5.5q-24 0 -43.5 8t-33.5 20t-21.5 27t-7.5 29q-2 38 -30.5 58t-69.5 20q-17 0 -32.5 -3.5t-28 -12t-20 -22.5t-7.5 -36z" />
    <glyph glyph-name="Ydieresis" unicode="&#x178;" horiz-adv-x="1000" 
d="M448 1652q0 -77 -40 -114.5t-112 -37.5t-112 37.5t-40 114.5q0 80 40 116t112 36q77 0 114.5 -36t37.5 -116zM864 1652q0 -77 -40 -114.5t-112 -37.5t-112 37.5t-40 114.5q0 80 40 116t112 36q77 0 114.5 -36t37.5 -116zM654 226q0 -42 -4 -82.5t-19 -72.5t-45 -51.5
t-82 -19.5q-53 0 -83 19.5t-45.5 51.5t-19.5 72.5t-4 82.5v348l-298 532q-24 42 -46 82.5t-22 81.5q0 27 15.5 54.5t56.5 51.5q45 24 84 24q30 0 54.5 -13.5t44.5 -35.5t36 -49.5t29 -55.5l182 -382h32l182 382q13 28 29 55.5t36 49.5t44.5 35.5t54.5 13.5q21 0 41 -6
t43 -18q39 -24 55.5 -51.5t16.5 -54.5q0 -18 -16 -58.5t-52 -105.5l-300 -532v-348z" />
    <glyph glyph-name="Zcaron" unicode="&#x17d;" horiz-adv-x="1042" 
d="M600 1098l-16 16h-288q-40 0 -80 4t-72.5 17.5t-53 40t-20.5 72.5q0 52 20.5 82.5t53 46t72.5 19.5t80 4h526q38 0 67.5 -13.5t49.5 -35.5t30.5 -49t10.5 -54q0 -15 -3 -29t-9 -25l-514 -894l14 -14h288q39 0 79 -4t73 -18.5t53.5 -42.5t20.5 -77q0 -50 -20.5 -78.5
t-53.5 -43t-73 -18.5t-79 -4h-526q-38 0 -67.5 12.5t-50 32.5t-31.5 46t-11 53q0 18 2.5 31.5t11.5 28.5zM606 1532q-31 -31 -76 -34h-20q-24 2 -42.5 10.5t-33.5 23.5l-190 180q-11 11 -19.5 29.5t-8.5 42.5q0 26 11.5 45t26.5 33q18 17 35 23.5t35 6.5q24 0 48 -7.5
t38 -24.5l110 -104l110 104q14 17 38 24.5t48 7.5q18 0 35 -6.5t35 -23.5q15 -14 26.5 -33t11.5 -45q0 -24 -8.5 -42.5t-19.5 -29.5z" />
    <glyph glyph-name="zcaron" unicode="&#x17e;" horiz-adv-x="916" 
d="M534 1134q-31 -31 -76 -34h-20q-24 2 -42.5 10.5t-33.5 23.5l-190 180q-11 11 -19.5 29.5t-8.5 42.5q0 26 11.5 45t26.5 33q18 17 35 23.5t35 6.5q24 0 48 -7.5t38 -24.5l110 -104l110 104q14 17 38 24.5t48 7.5q18 0 35 -6.5t35 -23.5q15 -14 26.5 -33t11.5 -45
q0 -24 -8.5 -42.5t-19.5 -29.5zM654 1000q28 0 61 -5t60.5 -18.5t46 -38t18.5 -62.5q0 -17 -5.5 -34t-13.5 -34.5t-17.5 -34.5t-17.5 -33l-348 -486h220q35 0 68.5 -3.5t59.5 -16.5t42 -38t16 -68q0 -42 -16 -67.5t-42 -39t-59.5 -17.5t-68.5 -4h-394q-30 0 -63 4t-61 17
t-46 37t-18 64q0 36 17.5 72t38.5 66l346 488h-220q-35 0 -68 3.5t-59.5 16.5t-42.5 37.5t-16 66.5q0 43 16 68t42.5 38.5t59.5 17.5t68 4h396z" />
    <glyph glyph-name="circumflex" unicode="&#x2c6;" horiz-adv-x="870" 
d="M710 1248q11 -11 19.5 -29.5t8.5 -42.5q0 -26 -11.5 -45t-26.5 -33q-18 -17 -35 -23.5t-35 -6.5q-24 0 -48 7.5t-38 24.5l-110 104l-110 -104q-14 -17 -38 -24.5t-48 -7.5q-18 0 -35 6.5t-35 23.5q-15 14 -26.5 33t-11.5 45q0 24 8.5 42.5t19.5 29.5l190 180
q15 15 33.5 23.5t42.5 10.5h20q45 -3 76 -34z" />
    <glyph glyph-name="caron" unicode="&#x2c7;" horiz-adv-x="902" 
d="M522 1096q-31 -31 -76 -34h-20q-24 2 -42.5 10.5t-33.5 23.5l-190 180q-11 11 -19.5 29.5t-8.5 42.5q0 26 11.5 45t26.5 33q18 17 35 23.5t35 6.5q24 0 48 -7.5t38 -24.5l110 -104l110 104q14 17 38 24.5t48 7.5q18 0 35 -6.5t35 -23.5q15 -14 26.5 -33t11.5 -45
q0 -24 -8.5 -42.5t-19.5 -29.5z" />
    <glyph glyph-name="breve" unicode="&#x2d8;" horiz-adv-x="862" 
d="M636 1408q51 0 74.5 -24t23.5 -80q0 -46 -18 -79t-46 -55.5t-62.5 -36.5t-68 -21t-62.5 -9.5t-45 -2.5t-45.5 2.5t-64 9.5t-70.5 21t-65.5 36.5t-48 55.5t-18.5 79q0 56 24 80t80 24q54 0 75 -23t21 -71q0 -13 6 -25.5t19.5 -23t34.5 -17t52 -6.5q29 0 50 6.5t34.5 17
t19.5 23t6 25.5q0 48 20.5 71t73.5 23z" />
    <glyph glyph-name="dotaccent" unicode="&#x2d9;" horiz-adv-x="574" 
d="M446 1308q0 -85 -43 -125.5t-121 -40.5q-80 0 -123 40.5t-43 125.5q0 86 43 125t123 39q83 0 123.5 -39t40.5 -125z" />
    <glyph glyph-name="ring" unicode="&#x2da;" horiz-adv-x="662" 
d="M436 1172q0 60 -28.5 87t-85.5 27q-54 0 -84 -27t-30 -87q0 -57 30 -85.5t84 -28.5t84 28.5t30 85.5zM550 1172q0 -118 -59 -174t-169 -56t-170 56t-60 174q0 119 60 173.5t170 54.5q116 0 172 -54.5t56 -173.5z" />
    <glyph glyph-name="ogonek" unicode="&#x2db;" horiz-adv-x="826" 
d="M574 -142q16 0 32 -4.5t29 -12t21 -19t8 -24.5q0 -46 -13 -81.5t-42 -59.5t-76.5 -36.5t-116.5 -12.5q-52 0 -100.5 8t-86 29t-60.5 58t-23 95v8q0 67 26 118.5t66 87.5t88.5 56t93.5 24h132q-18 -17 -53 -43.5t-70 -61.5t-61 -78.5t-26 -92.5q0 -33 8 -53.5t20 -32.5
t24.5 -16t21.5 -4q23 0 37 9t21.5 21.5t9.5 26.5t2 25q0 18 10 30.5t23.5 20.5t28.5 11.5t26 3.5z" />
    <glyph glyph-name="tilde" unicode="&#x2dc;" horiz-adv-x="924" 
d="M416 1176q-20 11 -35 16.5t-27 5.5q-18 0 -36 -12.5t-44 -39.5q-15 -17 -32 -27.5t-32 -10.5q-18 0 -42.5 11.5t-39.5 32.5q-22 25 -22 52q0 21 14 45.5t46 54.5l74 66q24 21 48.5 33.5t53.5 12.5q21 0 41.5 -8t44.5 -20q43 -22 69.5 -35t41.5 -20t21 -9t10 -2
q15 0 30.5 10t33.5 30q17 15 35 25.5t39 10.5q14 -2 27.5 -8.5t30.5 -23.5q18 -18 24 -35t6 -35q-2 -12 -9 -25t-16.5 -25.5t-20 -23.5t-18.5 -18q-35 -36 -59 -56.5t-40.5 -30.5t-27.5 -12.5t-21 -2.5q-8 0 -17.5 1.5t-27.5 9t-47 22.5t-76 41z" />
    <glyph glyph-name="hungarumlaut" unicode="&#x2dd;" horiz-adv-x="1080" 
d="M398 1186q-21 -35 -45 -60.5t-61 -25.5q-15 0 -32 5t-38 17q-39 23 -54.5 46.5t-15.5 47.5q0 23 10 45.5t24 46.5l82 144q9 16 19.5 31.5t23 27.5t28 19.5t35.5 7.5q32 0 74 -24q36 -21 50 -44.5t14 -47.5t-10 -47.5t-22 -44.5zM814 1186q-21 -35 -45 -60.5t-61 -25.5
q-15 0 -32 5t-38 17q-39 23 -54.5 46.5t-15.5 47.5q0 23 10 45.5t24 46.5l82 144q9 16 19.5 31.5t23 27.5t28 19.5t35.5 7.5q32 0 74 -24q36 -21 50 -44.5t14 -47.5t-10 -47.5t-22 -44.5z" />
    <glyph glyph-name="endash" unicode="&#x2013;" horiz-adv-x="996" 
d="M284 478q-28 0 -54 3.5t-46 16t-32 36t-12 64.5q0 44 12 69t32 37t46 15t54 3h442q25 0 51 -3t46.5 -15t33.5 -37t13 -69q0 -41 -13 -64.5t-33.5 -36t-46.5 -16t-51 -3.5h-386h-56z" />
    <glyph glyph-name="emdash" unicode="&#x2014;" horiz-adv-x="1706" 
d="M320 482q-28 0 -54 3.5t-46 16t-32 36t-12 64.5q0 44 12 69t32 37t46 15t54 3h1062q25 0 51 -3t46.5 -15t33.5 -37t13 -69q0 -41 -13 -64.5t-33.5 -36t-46.5 -16t-51 -3.5h-1006h-56z" />
    <glyph glyph-name="quoteleft" unicode="&#x2018;" horiz-adv-x="770" 
d="M202 1070q0 49 11 106.5t33.5 107t56.5 83t81 33.5q17 0 32.5 -12t15.5 -38v-8q-1 -11 -6 -21t-11 -20t-10.5 -20.5t-4.5 -20.5q0 -11 10 -18t24.5 -15t31.5 -18.5t31.5 -28t24.5 -44t10 -66.5q0 -86 -43 -125t-123 -39q-83 0 -123.5 39t-40.5 125z" />
    <glyph glyph-name="quoteright" unicode="&#x2019;" horiz-adv-x="694" 
d="M498 1236q0 -49 -11 -106.5t-33.5 -107t-57 -83t-80.5 -33.5q-17 0 -32.5 12t-15.5 38v8q1 10 6 20.5t11 20.5t10.5 20t4.5 21t-10 18t-24.5 15t-31.5 18.5t-31.5 28t-24.5 44t-10 66.5q0 86 43 125t123 39q83 0 123.5 -39t40.5 -125z" />
    <glyph glyph-name="quotesinglbase" unicode="&#x201a;" horiz-adv-x="592" 
d="M394 144q0 -28 -3.5 -54t-16 -46t-36.5 -32t-64 -12q-44 0 -69 12t-37 32t-15 46t-3 54v212q0 25 3 51t15 46.5t37 33.5t69 13q40 0 64 -13t36.5 -33.5t16 -46.5t3.5 -51v-156v-56z" />
    <glyph glyph-name="quotedblleft" unicode="&#x201c;" horiz-adv-x="1176" 
d="M608 1070q0 49 11 106.5t33.5 107t56.5 83t81 33.5q17 0 32.5 -12t15.5 -38v-8q-1 -11 -6 -21t-11 -20t-10.5 -20.5t-4.5 -20.5q0 -11 10 -18t24.5 -15t31.5 -18.5t31.5 -28t24.5 -44t10 -66.5q0 -86 -43 -125t-123 -39q-83 0 -123.5 39t-40.5 125zM190 1070
q0 49 11 106.5t33.5 107t56.5 83t81 33.5q17 0 32.5 -12t15.5 -38v-8q-1 -11 -6 -21t-11 -20t-10.5 -20.5t-4.5 -20.5q0 -11 10 -18t24.5 -15t31.5 -18.5t31.5 -28t24.5 -44t10 -66.5q0 -86 -43 -125t-123 -39q-83 0 -123.5 39t-40.5 125z" />
    <glyph glyph-name="quotedblright" unicode="&#x201d;" horiz-adv-x="1172" 
d="M526 1236q0 -49 -11 -106.5t-33.5 -107t-57 -83t-80.5 -33.5q-17 0 -32.5 12t-15.5 38v8q1 10 6 20.5t11 20.5t10.5 20t4.5 21t-10 18t-24.5 15t-31.5 18.5t-31.5 28t-24.5 44t-10 66.5q0 86 43 125t123 39q83 0 123.5 -39t40.5 -125zM944 1236q0 -49 -11 -106.5
t-33.5 -107t-57 -83t-80.5 -33.5q-17 0 -32.5 12t-15.5 38v8q1 10 6 20.5t11 20.5t10.5 20t4.5 21t-10 18t-24.5 15t-31.5 18.5t-31.5 28t-24.5 44t-10 66.5q0 86 43 125t123 39q83 0 123.5 -39t40.5 -125z" />
    <glyph glyph-name="quotedblbase" unicode="&#x201e;" horiz-adv-x="1122" 
d="M518 170q0 -49 -11 -106.5t-33.5 -107t-57 -83t-80.5 -33.5q-17 0 -32.5 12t-15.5 38v8q1 10 6 20.5t11 20.5t10.5 20t4.5 21t-10 18t-24.5 15t-31.5 18.5t-31.5 28t-24.5 44t-10 66.5q0 86 43 125t123 39q83 0 123.5 -39t40.5 -125zM936 170q0 -49 -11 -106.5
t-33.5 -107t-57 -83t-80.5 -33.5q-17 0 -32.5 12t-15.5 38v8q1 10 6 20.5t11 20.5t10.5 20t4.5 21t-10 18t-24.5 15t-31.5 18.5t-31.5 28t-24.5 44t-10 66.5q0 86 43 125t123 39q83 0 123.5 -39t40.5 -125z" />
    <glyph glyph-name="bullet" unicode="&#x2022;" horiz-adv-x="1034" 
d="M776 630q0 -134 -67 -198t-189 -64q-127 0 -194.5 64t-67.5 198t67.5 195t194.5 61q130 0 193 -61t63 -195z" />
    <glyph glyph-name="ellipsis" unicode="&#x2026;" horiz-adv-x="1720" 
d="M480 166q0 -85 -43 -125.5t-121 -40.5q-80 0 -123 40.5t-43 125.5q0 86 43 125t123 39q83 0 123.5 -39t40.5 -125zM1026 166q0 -85 -43 -125.5t-121 -40.5q-80 0 -123 40.5t-43 125.5q0 86 43 125t123 39q83 0 123.5 -39t40.5 -125zM1572 166q0 -85 -43 -125.5
t-121 -40.5q-80 0 -123 40.5t-43 125.5q0 86 43 125t123 39q83 0 123.5 -39t40.5 -125z" />
    <glyph glyph-name="guilsinglleft" unicode="&#x2039;" horiz-adv-x="1036" 
d="M480 184q-24 -24 -49.5 -42t-54.5 -18q-20 0 -39.5 9.5t-42.5 32.5q-26 26 -36 47t-10 41q0 29 18 53.5t42 48.5l244 240l-246 244q-23 23 -40.5 48.5t-17.5 55.5q0 20 9.5 39.5t32.5 42.5q24 24 45 35t41 11q30 0 54.5 -18.5t47.5 -41.5l314 -312q26 -26 44 -49.5
t18 -52.5q0 -16 -5.5 -30t-14.5 -27t-19.5 -24t-20.5 -21z" />
    <glyph glyph-name="guilsinglright" unicode="&#x203a;" horiz-adv-x="1024" 
d="M244 498q-10 10 -20.5 21t-19.5 24t-14.5 27t-5.5 30q0 29 18 52.5t44 49.5l314 312q23 23 47.5 41.5t54.5 18.5q20 0 41 -11t45 -35q23 -23 32.5 -42.5t9.5 -39.5q0 -30 -17.5 -55.5t-40.5 -48.5l-246 -244l244 -240q24 -24 42 -48.5t18 -53.5q0 -20 -10 -41t-36 -47
q-23 -23 -42.5 -32.5t-39.5 -9.5q-29 0 -54.5 18t-49.5 42z" />
    <glyph glyph-name="fraction" unicode="&#x2044;" horiz-adv-x="940" 
d="M228 664q-13 0 -25 2t-21 8t-14.5 17t-5.5 29q0 20 5.5 31.5t14.5 17.5t21 7.5t25 1.5h486q10 0 21.5 -1.5t21 -7.5t15.5 -17.5t6 -31.5q0 -18 -6 -29t-15.5 -17t-21 -8t-21.5 -2h-460h-26z" />
    <glyph glyph-name="foursuperior" unicode="&#x2074;" horiz-adv-x="652" 
d="M426 1216q20 0 32 -5.5t18 -15.5t8 -23t2 -28v-234q0 -12 -1.5 -23.5t-7.5 -20.5t-16.5 -14.5t-28.5 -5.5q-19 0 -30.5 5t-17.5 13.5t-8 19.5t-2 24v76h-134q-50 0 -67 12t-17 30q0 2 1.5 9.5t10 38t26.5 93.5t50 177q8 27 19.5 42.5t40.5 15.5q26 0 37 -17.5t11 -40.5
q0 -12 -3.5 -25t-6.5 -25q-5 -19 -11.5 -44.5t-14 -53t-14 -54.5t-10.5 -48h82v54q0 13 1.5 25.5t7 22t16 15t27.5 5.5z" />
    <glyph glyph-name="twoinferior" unicode="&#x2082;" horiz-adv-x="920" 
d="M478 594q98 0 147 -48t49 -128q0 -50 -25.5 -85.5t-55.5 -57.5q-36 -26 -81 -43q-15 -6 -30 -13.5t-27 -18t-19.5 -24t-7.5 -30.5v-20h150q14 0 32 -1t33.5 -7t26 -18t10.5 -34q0 -25 -9 -38.5t-23.5 -19.5t-32.5 -7t-37 -1h-212q-20 0 -34 7t-22.5 18.5t-12 25
t-3.5 27.5v68q0 65 41 111t109 73q34 13 54 25t30.5 23.5t14 23t3.5 22.5q0 22 -7.5 35t-18 19.5t-22 8t-20.5 1.5q-22 0 -34.5 -6t-19 -15.5t-8.5 -21t-2 -21.5q0 -17 -6.5 -28t-15.5 -18.5t-20 -10.5t-20 -3q-30 0 -47 15.5t-17 38.5q0 17 6.5 47t26.5 58.5t57.5 49.5
t99.5 21z" />
    <glyph glyph-name="fourinferior" unicode="&#x2084;" horiz-adv-x="924" 
d="M562 392q22 0 34.5 -6t19 -16.5t8.5 -24t2 -29.5v-250q0 -13 -2 -25t-8 -21.5t-17.5 -15.5t-30.5 -6q-20 0 -32.5 5t-19 14t-8.5 21t-2 26v80h-142q-26 0 -43.5 3.5t-28 9.5t-14.5 14.5t-4 18.5q0 1 0.5 4.5t3.5 14t8.5 31.5t16 58t26.5 93t39 137q10 27 22 44.5t42 17.5
t41 -16.5t11 -39.5q0 -15 -3 -30.5t-9 -29.5q-7 -23 -15 -54t-15.5 -61t-14 -56.5t-9.5 -40.5h88v58q0 14 1.5 27t7.5 23t17 16t30 6z" />
    <glyph glyph-name="Euro" unicode="&#x20ac;" horiz-adv-x="1126" 
d="M702 1408q41 0 88 -8t93.5 -25t89 -41.5t75.5 -58.5t52.5 -76t19.5 -93q0 -25 -7 -47.5t-21.5 -40t-36.5 -28t-53 -10.5q-41 0 -76.5 23t-59.5 71q-6 11 -18.5 25t-33 26t-49.5 20.5t-67 8.5q-58 0 -95.5 -18t-59.5 -47.5t-30.5 -67t-8.5 -75.5v-36h258q16 0 32 -2
t29.5 -10t22 -24.5t8.5 -45.5q0 -25 -8.5 -40.5t-22 -24.5t-29.5 -12t-32 -3h-258v-96h258q16 0 32 -2t29.5 -10.5t22 -25.5t8.5 -46q0 -26 -8.5 -41t-22 -23.5t-29.5 -11t-32 -2.5h-258v-30q0 -39 8.5 -77t30.5 -68t59.5 -48.5t95.5 -18.5q38 0 67 8.5t49.5 20.5t33 26
t18.5 25q24 48 59.5 71t76.5 23q31 0 53 -10.5t36.5 -28t21.5 -40t7 -47.5q0 -51 -19.5 -93t-52.5 -76t-75.5 -58.5t-89 -41.5t-93.5 -25t-88 -8q-54 0 -110 10t-108.5 33t-99 60.5t-81 92.5t-55 129t-20.5 171h-130q-17 0 -33.5 2.5t-29.5 11t-21 23.5t-8 41q0 29 8 46
t21 25.5t29.5 10.5t33.5 2h130v96h-130q-17 0 -33.5 3t-29.5 12t-21 24.5t-8 40.5q0 29 8 45.5t21 24.5t29.5 10t33.5 2h130q0 97 20 171.5t55 130t81 93t99 60.5t109 33t110 10z" />
    <glyph glyph-name="minus" unicode="&#x2212;" horiz-adv-x="1038" 
d="M274 600q-28 0 -54 3.5t-46 16t-32 36t-12 64.5q0 44 12 69t32 37t46 15t54 3h442q25 0 51 -3t46.5 -15t33.5 -37t13 -69q0 -41 -13 -64.5t-33.5 -36t-46.5 -16t-51 -3.5h-386h-56z" />
    <glyph glyph-name="divisionslash" unicode="&#x2215;" horiz-adv-x="1008" 
d="M322 92q-9 -15 -20 -31.5t-25.5 -30t-33 -22t-43.5 -8.5q-20 0 -41.5 9t-39.5 24t-30.5 35t-16.5 42q2 30 10 51.5t20 42.5l576 1106q8 16 18 32t22 29t27 21t35 8q21 0 46 -7t47 -20.5t36.5 -34t14.5 -46.5q0 -30 -9.5 -53t-20.5 -41z" />
  </font>
</defs>
</svg>
